<svg width="177" height="81" viewBox="0 0 177 81" fill="none" xmlns="http://www.w3.org/2000/svg">
<g clip-path="url(#clip0_149_3145)">
<path d="M77.0077 46.749H76.3957C76.3116 46.8436 76.2273 46.9382 76.1001 47.0462C75.9745 47.1541 75.8267 47.2621 75.658 47.3699C75.5102 47.4785 75.32 47.5591 75.1097 47.6537C74.9192 47.7344 74.708 47.8024 74.4761 47.8562V48.3292C74.7298 48.2886 74.9607 48.2346 75.1722 48.1534C75.4041 48.0588 75.5946 47.9642 75.784 47.8702C75.9745 47.7623 76.122 47.6537 76.2689 47.5591V53.4197H77.0077V46.749ZM84.7918 47.789C84.7918 47.5591 84.7292 47.3565 84.5815 47.1947C84.4119 47.0194 84.2019 46.8842 83.9479 46.7896C83.6742 46.695 83.3568 46.6551 82.9781 46.6551C82.6192 46.6551 82.3027 46.695 82.0281 46.7896C81.7753 46.8842 81.5641 47.0194 81.3954 47.1947C81.2476 47.3565 81.1636 47.5591 81.1636 47.789V49.5039C81.1636 49.7469 81.2476 49.9627 81.3954 50.1386C81.5641 50.3006 81.7753 50.435 82.0499 50.5297C82.3236 50.6243 82.6398 50.6649 82.9781 50.6649C83.2102 50.6649 83.4214 50.6382 83.5898 50.5844C83.7792 50.5297 83.927 50.4624 84.0541 50.3812V52.3524C84.0541 52.569 83.9697 52.7575 83.7792 52.8794C83.5898 53.0013 83.3362 53.0687 82.9781 53.0687C82.7669 53.0687 82.5982 53.0413 82.4298 52.9873C82.2602 52.9201 82.1552 52.8388 82.0499 52.7308C81.9647 52.623 81.9231 52.5018 81.9231 52.3524V51.7723H81.1636V52.3524C81.1636 52.5822 81.2476 52.7981 81.3954 52.9741C81.5641 53.1359 81.7753 53.2711 82.0499 53.3657C82.3236 53.4603 82.6398 53.5136 82.9781 53.5136C83.3362 53.5136 83.6524 53.4603 83.927 53.3657C84.2019 53.2711 84.4119 53.1359 84.5596 52.9741C84.7292 52.7981 84.7918 52.5822 84.7918 52.3524V47.789ZM81.9231 47.789C81.9231 47.6537 81.9647 47.5325 82.0499 47.4245C82.1343 47.3159 82.2602 47.2353 82.4298 47.1814C82.5776 47.114 82.7669 47.0868 82.9781 47.0868C83.3152 47.0868 83.568 47.1541 83.7586 47.2753C83.9479 47.4113 84.0541 47.5731 84.0541 47.789V49.5039C84.0541 49.7329 83.9697 49.9221 83.7792 50.0434C83.5898 50.1794 83.3362 50.2466 82.9781 50.2466C82.7669 50.2466 82.5982 50.2192 82.4298 50.152C82.2602 50.0974 82.1552 50.0168 82.0499 49.9087C81.9647 49.7875 81.9231 49.6657 81.9231 49.5039V47.789ZM91.2052 48.2752C91.2052 48.5045 91.1418 48.7343 91.0356 48.9502C90.9306 49.1792 90.8035 49.4092 90.6351 49.6251C90.4663 49.8415 90.2761 50.0708 90.0658 50.2872C89.8546 50.5164 89.6434 50.7463 89.4541 50.9621C89.2429 51.1912 89.0535 51.4344 88.8839 51.6637C88.7152 51.9075 88.5674 52.1365 88.4624 52.393C88.3563 52.6362 88.3147 52.8927 88.2937 53.1625V53.4197H91.9429V52.9741H89.0535C89.0535 52.7442 89.1376 52.5284 89.2429 52.2986C89.3491 52.0827 89.4957 51.8535 89.6641 51.6368C89.834 51.421 90.0233 51.1912 90.2345 50.9753C90.4248 50.7595 90.6351 50.5436 90.8462 50.3272C91.0356 50.0974 91.2261 49.8821 91.3946 49.6657C91.5633 49.4364 91.6901 49.22 91.7951 48.9908C91.9013 48.7609 91.9429 48.5451 91.9429 48.3153V47.8024C91.9429 47.5591 91.8588 47.3565 91.711 47.1814C91.5633 47.0194 91.353 46.8842 91.0784 46.7896C90.8035 46.695 90.4882 46.6551 90.1292 46.6551C89.7703 46.6551 89.4541 46.695 89.1804 46.7896C88.9058 46.8842 88.6946 47.0194 88.5468 47.1814C88.3781 47.3565 88.3147 47.5591 88.2937 47.8024V48.3693H89.0535V47.8024C89.0535 47.6537 89.0951 47.5325 89.1804 47.4245C89.2854 47.3159 89.4113 47.2353 89.5591 47.1814C89.7278 47.114 89.918 47.0868 90.1292 47.0868C90.4663 47.0868 90.7412 47.1541 90.9306 47.2753C91.099 47.4113 91.2052 47.5865 91.2052 47.8024V48.2752ZM95.6348 52.3664C95.6348 52.5962 95.7191 52.7981 95.8678 52.9741C96.0147 53.1493 96.2259 53.2711 96.5005 53.3657C96.7742 53.4603 97.0904 53.5136 97.4493 53.5136C97.8074 53.5136 98.1248 53.4603 98.3985 53.3657C98.6731 53.2711 98.8834 53.1493 99.0312 52.9741C99.1798 52.7981 99.2642 52.5962 99.2642 52.3664V50.6243C99.2642 50.3812 99.1798 50.1793 99.0518 50.0033C98.9052 49.8283 98.694 49.6923 98.4191 49.5983C98.1454 49.5171 97.8292 49.4631 97.4493 49.4631C97.2175 49.4631 97.006 49.4904 96.8167 49.5577C96.6264 49.6251 96.4786 49.7063 96.3736 49.8009V47.8163C96.3736 47.5865 96.4786 47.4113 96.6689 47.2893C96.8376 47.154 97.1113 47.0868 97.4493 47.0868C97.6596 47.0868 97.8502 47.114 98.0186 47.1814C98.1664 47.2353 98.2932 47.3159 98.3775 47.4245C98.4619 47.5325 98.5253 47.667 98.5253 47.8163V48.3693H99.2642V47.8163C99.2642 47.5731 99.1798 47.3699 99.0311 47.1947C98.8834 47.0194 98.6731 46.8842 98.3985 46.7896C98.1248 46.695 97.8074 46.6551 97.4493 46.6551C97.0904 46.6551 96.7742 46.695 96.5005 46.7896C96.2259 46.8842 96.0147 47.0194 95.8678 47.1947C95.7191 47.3699 95.6348 47.5731 95.6348 47.8163L95.6348 52.3664ZM98.5253 52.3664C98.5253 52.5822 98.4191 52.7575 98.2298 52.8794C98.0404 53.0012 97.7865 53.0687 97.4493 53.0687C97.2381 53.0687 97.0479 53.0413 96.8792 52.9873C96.7326 52.9335 96.6055 52.8388 96.5214 52.7442C96.4152 52.6362 96.3736 52.515 96.3736 52.3664V50.6243C96.3736 50.3944 96.4786 50.2192 96.6689 50.0974C96.8376 49.9627 97.1113 49.8955 97.4493 49.8955C97.6596 49.8955 97.8502 49.9355 98.0186 49.9894C98.1664 50.0434 98.2932 50.1246 98.3775 50.2332C98.4619 50.3404 98.5253 50.4758 98.5253 50.6243V52.3664Z" fill="#A50F20"/>
<path d="M107.28 50.6786H123.544V50.2736H107.28V50.6786Z" fill="#A50F20"/>
<path d="M52.3673 50.6786H68.6328V50.2736H52.3673V50.6786Z" fill="#A50F20"/>
<path d="M35.0691 27.8182H33.55V41.3481H35.0691V35.9738L36.9045 34.84C37.4322 35.1911 37.8962 35.5281 38.2761 35.8792C38.6557 36.2303 38.9512 36.5947 39.1615 37.0138C39.3727 37.4188 39.4789 37.8779 39.4789 38.4042V41.3481H40.976V38.4042C40.976 37.9185 40.9126 37.4729 40.7649 37.081C40.6171 36.6761 40.4277 36.3116 40.1531 35.9872C39.8794 35.6633 39.5632 35.3529 39.1833 35.0692C38.8034 34.772 38.3811 34.5021 37.8962 34.2185C38.5079 33.854 39.0347 33.4624 39.4995 33.0573C39.9638 32.6654 40.3215 32.2065 40.5755 31.7201C40.8492 31.2211 40.976 30.6535 40.976 30.0059V27.8182H39.4789V30.0059C39.4789 30.3564 39.4361 30.6809 39.3517 30.9647C39.2677 31.2612 39.1199 31.545 38.9087 31.8154C38.7182 32.0853 38.4445 32.355 38.1065 32.6388C37.7693 32.936 37.3478 33.2465 36.8621 33.5842C36.3562 33.9212 35.7651 34.3129 35.069 34.7454L35.0691 27.8182ZM54.709 41.3481V29.9514C54.709 29.4791 54.5624 29.0606 54.2451 28.723C53.9286 28.3719 53.5071 28.102 52.9588 27.9128C52.4096 27.7236 51.756 27.629 51.039 27.629C50.321 27.629 49.6677 27.7236 49.1194 27.9128C48.5711 28.102 48.1484 28.3719 47.8322 28.723C47.5158 29.0606 47.368 29.4791 47.3473 29.9514V41.3481H48.8663V35.9606H53.2116V41.3481H54.709ZM48.8663 29.9514C48.8663 29.6549 48.9507 29.4119 49.14 29.196C49.3294 28.9794 49.5627 28.8176 49.8998 28.6956C50.216 28.5743 50.5959 28.5203 51.0389 28.5203C51.7132 28.5203 52.2409 28.6557 52.6208 28.9122C53.0004 29.1547 53.2116 29.5057 53.2116 29.9514V35.0693H48.8663V29.9514ZM73.4635 41.3481V29.7761C73.4635 29.3305 73.2947 28.9388 72.9992 28.6283C72.683 28.3045 72.2825 28.0614 71.7548 27.8854C71.2481 27.7236 70.6788 27.629 70.0671 27.629C69.7081 27.629 69.371 27.6696 69.012 27.737C68.654 27.8182 68.3378 27.9262 68.0422 28.0614C67.7467 28.1966 67.5146 28.3445 67.3462 28.5203C67.1766 28.3313 66.9444 28.156 66.6707 28.034C66.3752 27.8996 66.059 27.805 65.7219 27.737C65.3629 27.6696 65.004 27.629 64.6459 27.629C64.0123 27.629 63.4431 27.7236 62.9375 27.8854C62.409 28.0614 62.0081 28.3045 61.6919 28.6283C61.3755 28.9388 61.2277 29.3305 61.207 29.7761V41.3481H62.726V29.7761C62.726 29.5197 62.8104 29.2899 62.9997 29.1006C63.1685 28.9122 63.4003 28.777 63.6752 28.6689C63.9707 28.5743 64.3079 28.5203 64.6459 28.5203C65.0039 28.5203 65.342 28.5743 65.6157 28.6689C65.9112 28.777 66.1433 28.9122 66.3118 29.1006C66.5023 29.2899 66.5867 29.5197 66.5867 29.7761V41.3481H68.1048V29.7761C68.1048 29.5197 68.1888 29.2899 68.3584 29.1006C68.5478 28.9122 68.7799 28.777 69.0755 28.6689C69.371 28.5743 69.7081 28.5203 70.0671 28.5203C70.4042 28.5203 70.7422 28.5743 71.0159 28.6689C71.3115 28.777 71.5227 28.9122 71.712 29.1006C71.8598 29.2899 71.9442 29.5197 71.966 29.7761V41.3481H73.4635ZM81.5855 27.8182H80.0872V41.3481H81.5855V27.8182ZM95.571 41.3481V29.9514C95.571 29.4791 95.4244 29.0606 95.1079 28.723C94.7905 28.3719 94.3693 28.102 93.821 27.9128C93.2724 27.7236 92.6179 27.629 91.9012 27.629C91.1635 27.629 90.5296 27.7236 89.9813 27.9128C89.433 28.102 88.9897 28.3719 88.6942 28.723C88.378 29.0606 88.2093 29.4791 88.2093 29.9514V41.3481H89.7286V29.9514C89.7286 29.5057 89.9179 29.1547 90.3185 28.9122C90.6984 28.6557 91.2257 28.5203 91.9012 28.5203C92.5763 28.5203 93.104 28.6557 93.4827 28.9122C93.8635 29.1547 94.0528 29.5057 94.0738 29.9514V41.3481H95.571ZM103.693 27.8182H102.195V41.3481H103.693V27.8182ZM117.68 41.3481V29.9514C117.68 29.4791 117.532 29.0606 117.216 28.723C116.9 28.3719 116.477 28.102 115.93 27.9128C115.381 27.7236 114.727 27.629 114.009 27.629C113.292 27.629 112.639 27.7236 112.089 27.9128C111.541 28.102 111.12 28.3719 110.803 28.723C110.486 29.0606 110.317 29.4791 110.317 29.9514V41.3481H111.837V35.9606H116.182V41.3481H117.68ZM111.837 29.9514C111.837 29.6549 111.921 29.4119 112.111 29.196C112.28 28.9794 112.533 28.8176 112.87 28.6956C113.187 28.5743 113.566 28.5203 114.009 28.5203C114.684 28.5203 115.212 28.6557 115.592 28.9122C115.972 29.1547 116.161 29.5057 116.182 29.9514V35.0693H111.837V29.9514ZM131.54 41.3481V36.4603C131.54 36.1764 131.476 35.9066 131.35 35.6634C131.223 35.4069 131.055 35.1911 130.823 35.0152C130.591 34.826 130.316 34.6914 130 34.5835C130.316 34.4882 130.591 34.3537 130.823 34.1645C131.055 33.9758 131.223 33.746 131.35 33.4896C131.476 33.2465 131.54 32.9627 131.54 32.6794V30.1406C131.54 29.6683 131.392 29.2632 131.097 28.9122C130.78 28.5743 130.359 28.3044 129.809 28.1154C129.262 27.9262 128.608 27.8316 127.869 27.8182H124.177V41.3481H125.696V35.0284H127.869C128.544 35.0418 129.072 35.1636 129.451 35.4203C129.831 35.6767 130.022 36.0144 130.043 36.4602V41.3481L131.54 41.3481ZM125.696 34.1371V28.7095H127.869C128.544 28.7095 129.072 28.8447 129.451 29.1006C129.831 29.3571 130.022 29.6949 130.042 30.1406V32.6794C130.042 32.9627 129.936 33.2191 129.768 33.4356C129.599 33.6648 129.346 33.8267 129.029 33.9486C128.714 34.0831 128.312 34.1371 127.869 34.1371L125.696 34.1371ZM137.447 28.7362H142.531C142.488 29.4118 142.383 30.0328 142.173 30.5997C141.982 31.1532 141.729 31.6802 141.413 32.1658C141.117 32.6522 140.78 33.1245 140.421 33.5976C140.084 34.0565 139.725 34.5288 139.366 35.0152C139.008 35.5149 138.691 36.0412 138.417 36.5947C138.122 37.1624 137.889 37.7965 137.7 38.4715C137.531 39.1743 137.447 39.9437 137.447 40.8078C137.447 40.9563 137.468 41.0777 137.489 41.1863C137.51 41.2941 137.531 41.3481 137.531 41.3481H144.05V40.4434H138.923C138.966 39.6332 139.071 38.9037 139.282 38.2556C139.472 37.6073 139.725 37.0138 140.042 36.4735C140.336 35.9198 140.675 35.4069 141.032 34.9206C141.392 34.4483 141.751 33.9619 142.11 33.4896C142.467 33.0165 142.785 32.5302 143.079 32.0179C143.354 31.5042 143.607 30.9507 143.775 30.3564C143.944 29.7621 144.05 29.1006 144.05 28.3585C144.05 28.21 144.029 28.0746 144.007 27.98C143.987 27.8722 143.966 27.8316 143.966 27.8182H137.447L137.447 28.7362Z" fill="#A50F20"/>
</g>
<defs>
<clipPath id="clip0_149_3145">
<rect width="110.5" height="26" fill="white" transform="translate(33.55 27.5713)"/>
</clipPath>
</defs>
</svg>
