<svg width="77" height="40" viewBox="0 0 77 40" fill="none" xmlns="http://www.w3.org/2000/svg">
<g clip-path="url(#clip0_149_3183)">
<path d="M43.1739 9.82492H42.7519V7.2673L41.6901 8.58224L40.6147 7.2673V9.82492H40.1927V6.54482H40.5739L41.6901 7.932L42.7928 6.54482H43.1739V9.82492Z" fill="black"/>
<path d="M47.6253 8.65449C47.6253 9.01573 47.5028 9.30473 47.2578 9.53592C47.0127 9.76712 46.686 9.88272 46.2913 9.88272C45.8148 9.88272 45.4473 9.70932 45.1886 9.36253C45.0933 9.23248 45.0253 9.08798 44.9981 8.92903C44.9844 8.82788 44.9708 8.66894 44.9708 8.45219V6.54482H45.4064V8.42329C45.4064 8.59669 45.4064 8.72673 45.42 8.81343C45.4473 8.92903 45.4881 9.01573 45.5426 9.10243C45.7331 9.31918 45.9782 9.43477 46.2913 9.43477C46.5635 9.43477 46.7813 9.36253 46.9447 9.21803C47.108 9.07353 47.1761 8.87123 47.1761 8.64004V6.54482H47.6253V8.65449Z" fill="black"/>
<path d="M51.8998 9.82492H49.1227L51.1374 6.96386H49.2589V6.54482H51.8998V6.60261L49.9123 9.42032H51.8998V9.82492Z" fill="black"/>
<path d="M55.3301 9.82492H53.438V6.54482H55.2893V6.97831H53.8736V7.9609H55.2485V8.37994H53.8736V9.40587H55.3301V9.82492Z" fill="black"/>
<path d="M59.6727 8.65449C59.6727 9.01573 59.5501 9.30473 59.3051 9.53592C59.0601 9.76712 58.747 9.88272 58.3522 9.88272C57.8758 9.88272 57.5082 9.70932 57.236 9.36253C57.1407 9.23248 57.0862 9.08798 57.059 8.92903C57.0318 8.82788 57.0182 8.66894 57.0182 8.45219V6.54482H57.4538V8.42329C57.4538 8.59669 57.4674 8.72673 57.481 8.81343C57.4946 8.92903 57.5354 9.01573 57.6035 9.10243C57.7805 9.31918 58.0255 9.43477 58.3522 9.43477C58.6109 9.43477 58.8287 9.36253 58.992 9.21803C59.1554 9.07353 59.237 8.87123 59.237 8.64004V6.54482H59.6727V8.65449Z" fill="black"/>
<path d="M64.4507 9.82492H64.0287V7.2673L62.9669 8.58224L61.8915 7.2673V9.82492H61.4695V6.54482H61.8507L62.9669 7.932L64.0696 6.54482H64.4507V9.82492Z" fill="black"/>
<path d="M42.1802 13.9864C42.1802 14.2754 42.0849 14.4922 41.9079 14.6656C41.731 14.8245 41.4723 14.9112 41.1592 14.9112H40.6283V16.3129H40.1927V13.0472H41.1592C41.4723 13.0472 41.731 13.1339 41.9079 13.2929C42.0849 13.4663 42.1802 13.6975 42.1802 13.9864ZM41.7173 13.972C41.7173 13.7986 41.6629 13.6686 41.5676 13.5819C41.4723 13.5096 41.3226 13.4663 41.1048 13.4663H40.6283V14.4922H41.1048C41.3226 14.4922 41.4723 14.4488 41.5676 14.3621C41.6629 14.2899 41.7173 14.1598 41.7173 13.972Z" fill="black"/>
<path d="M46.9038 14.6945C46.9038 15.1713 46.7405 15.5615 46.4274 15.8794C46.1007 16.2117 45.7195 16.3707 45.2567 16.3707C44.8075 16.3707 44.4263 16.2117 44.0996 15.8794C43.7865 15.547 43.6232 15.1424 43.6232 14.6656C43.6232 14.2176 43.7865 13.813 44.0996 13.4807C44.4263 13.1628 44.8075 12.9894 45.2567 12.9894C45.7195 12.9894 46.1143 13.1628 46.4274 13.4952C46.7541 13.8275 46.9038 14.2321 46.9038 14.6945ZM46.441 14.68C46.441 14.3477 46.3185 14.0587 46.1007 13.813C45.8693 13.553 45.5834 13.4374 45.2567 13.4374C44.9436 13.4374 44.6714 13.553 44.4399 13.7986C44.2085 14.0442 44.086 14.3332 44.086 14.68C44.086 15.0268 44.2085 15.3158 44.4263 15.5615C44.6577 15.8071 44.93 15.9227 45.2567 15.9227C45.5834 15.9227 45.8693 15.8071 46.1007 15.5615C46.3185 15.3158 46.441 15.0268 46.441 14.68Z" fill="black"/>
<path d="M51.1783 16.0672C50.8107 16.2695 50.4432 16.3707 50.062 16.3707C49.7081 16.3707 49.395 16.2695 49.1091 16.0817C48.8777 15.9227 48.7007 15.7204 48.5782 15.4748C48.4421 15.2291 48.3876 14.9546 48.3876 14.6656C48.3876 14.2032 48.5374 13.813 48.8641 13.4807C49.1908 13.1628 49.5992 12.9894 50.0892 12.9894C50.4432 12.9894 50.7835 13.0761 51.151 13.264V13.7697C50.7699 13.5385 50.4159 13.4374 50.0892 13.4374C49.7353 13.4374 49.4358 13.553 49.2044 13.7986C48.973 14.0298 48.8505 14.3332 48.8505 14.68C48.8505 15.0413 48.9594 15.3303 49.1908 15.5759C49.4222 15.8071 49.7217 15.9227 50.062 15.9227C50.4296 15.9227 50.7971 15.7927 51.1783 15.547V16.0672Z" fill="black"/>
<path d="M55.3165 16.3129H52.5259L54.5542 13.4518H52.6757V13.0472H55.3165V13.105L53.3291 15.9083H55.3165V16.3129Z" fill="black"/>
<path d="M59.6454 17.1654C59.5093 17.2377 59.3731 17.281 59.237 17.281C59.0873 17.281 58.9784 17.2377 58.8831 17.1654C58.7878 17.0787 58.7333 16.9631 58.7333 16.8186C58.7333 16.6308 58.8422 16.4574 59.0328 16.3129H58.9784L58.5836 15.3592H57.2632L56.8684 16.3129H56.4192L57.7532 13.0472H58.0799L59.4276 16.3129C59.3459 16.3129 59.2778 16.3562 59.2098 16.4429C59.1417 16.5152 59.1009 16.6019 59.1009 16.6886C59.1009 16.862 59.1826 16.9487 59.3595 16.9487C59.4412 16.9487 59.5365 16.9053 59.6454 16.8475V17.1654ZM58.393 14.9401L57.9166 13.7553L57.4401 14.9401H58.393Z" fill="black"/>
<path d="M62.8852 13.4663H61.7418V16.3129H61.3062V13.4663H60.1763V13.0472H62.8852V13.4663Z" fill="black"/>
<path d="M66.9419 16.3129H66.3293L64.8455 14.6945V16.3129H64.4099V13.0472H64.8455V14.5211L66.1251 13.0472H66.6832L65.3356 14.5789L66.9419 16.3129Z" fill="black"/>
<path d="M71.2435 14.6945C71.2435 15.1713 71.0938 15.5615 70.7671 15.8794C70.4404 16.2117 70.0592 16.3707 69.5964 16.3707C69.1471 16.3707 68.766 16.2117 68.4393 15.8794C68.1262 15.547 67.9628 15.1424 67.9628 14.6656C67.9628 14.2176 68.1262 13.813 68.4393 13.4807C68.766 13.1628 69.1471 12.9894 69.5964 12.9894C70.0592 12.9894 70.454 13.1628 70.7671 13.4952C71.0938 13.8275 71.2435 14.2321 71.2435 14.6945ZM70.7807 14.68C70.7807 14.3477 70.6718 14.0587 70.4404 13.813C70.2089 13.553 69.9367 13.4374 69.5964 13.4374C69.2833 13.4374 69.011 13.553 68.7796 13.7986C68.5482 14.0442 68.4257 14.3332 68.4257 14.68C68.4257 15.0268 68.5482 15.3158 68.766 15.5615C68.9974 15.8071 69.2697 15.9227 69.5964 15.9227C69.9367 15.9227 70.2089 15.8071 70.4404 15.5615C70.6718 15.3158 70.7807 15.0268 70.7807 14.68ZM70.0864 12.108L69.6644 12.7293H69.3513L69.6644 12.108H70.0864Z" fill="black"/>
<path d="M76.8384 13.0472L75.6813 16.3418H75.5724L74.6603 13.8275L73.7346 16.3418H73.6257L72.4823 13.0472H72.9451L73.6938 15.2725L74.5242 13.0472H74.7964L75.6268 15.2869L76.3891 13.0472H76.8384Z" fill="black"/>
<path d="M42.1802 20.4744C42.1802 20.7634 42.0849 20.9946 41.9079 21.1536C41.731 21.3269 41.4723 21.3992 41.1592 21.3992H40.6283V22.8153H40.1927V19.5496H41.1592C41.4723 19.5496 41.731 19.6219 41.9079 19.7953C42.0849 19.9542 42.1802 20.1854 42.1802 20.4744ZM41.7173 20.4744C41.7173 20.2866 41.6629 20.1565 41.5676 20.0843C41.4723 19.9976 41.3226 19.9687 41.1048 19.9687H40.6283V20.9802H41.1048C41.3226 20.9802 41.4723 20.9513 41.5676 20.8646C41.6629 20.7923 41.7173 20.6623 41.7173 20.4744Z" fill="black"/>
<path d="M46.1143 22.8153H45.6651L45.2567 21.8471H43.9499L43.5551 22.8153H43.1059L44.4399 19.5496H44.7666L46.1143 22.8153ZM45.0797 21.4281L44.5897 20.2577L44.1268 21.4281H45.0797Z" fill="black"/>
<path d="M50.3479 22.8153H49.9531L47.9248 20.2721V22.8153H47.4892V19.5496H47.8703L49.9122 22.0783V19.5496H50.3479V22.8153ZM49.5719 18.6104L49.1635 19.2317H48.8368L49.1635 18.6104H49.5719Z" fill="black"/>
<path d="M53.7374 22.0061C53.7374 22.2517 53.6558 22.4685 53.4924 22.6274C53.3154 22.7864 53.0976 22.8731 52.8254 22.8731C52.5123 22.8731 52.2264 22.7719 51.995 22.5552V21.9483C52.2536 22.2662 52.5259 22.4251 52.7981 22.4251C52.9479 22.4251 53.0704 22.3818 53.1657 22.3095C53.2474 22.2373 53.2882 22.1361 53.2882 21.9917C53.2882 21.8761 53.2474 21.7605 53.1657 21.6738C53.0976 21.6015 52.9751 21.5004 52.7845 21.3703C52.4714 21.168 52.2809 21.0091 52.1856 20.9079C52.0494 20.749 51.995 20.5756 51.995 20.3588C51.995 20.0987 52.0767 19.8964 52.24 19.723C52.417 19.5641 52.6348 19.4774 52.907 19.4774C53.1385 19.4774 53.3699 19.5496 53.6013 19.7086V20.2432C53.3427 20.012 53.0976 19.8964 52.8798 19.8964C52.7437 19.8964 52.6212 19.9398 52.5395 20.012C52.4578 20.0843 52.417 20.1854 52.417 20.2866C52.417 20.4022 52.4714 20.5178 52.5803 20.6189C52.6348 20.6767 52.7845 20.7779 53.016 20.9368C53.2746 21.1102 53.4516 21.2547 53.5469 21.3848C53.6694 21.5437 53.7374 21.7605 53.7374 22.0061Z" fill="black"/>
<path d="M57.7804 19.9687H56.6506V22.8153H56.215V19.9687H55.0851V19.5496H57.7804V19.9687Z" fill="black"/>
<path d="M63.2392 19.5496L62.0821 22.8297H61.9868L61.0611 20.3155L60.1355 22.8297H60.0266L58.8831 19.5496H59.3459L60.0946 21.7749L60.925 19.5496H61.2109L62.0276 21.7749L62.79 19.5496H63.2392Z" fill="black"/>
<path d="M67.0508 22.8153H66.6016L66.2068 21.8471H64.8864L64.5052 22.8153H64.0424L65.3764 19.5496H65.7031L67.0508 22.8153ZM66.0162 21.4281L65.5398 20.2577L65.0633 21.4281H66.0162Z" fill="black"/>
<path d="M42.1802 26.9768C42.1802 27.2658 42.0849 27.497 41.9079 27.656C41.731 27.8149 41.4723 27.9016 41.1592 27.9016H40.6283V29.3032H40.1927V26.0376H41.1592C41.4723 26.0376 41.731 26.1243 41.9079 26.2832C42.0849 26.4566 42.1802 26.6878 42.1802 26.9768ZM41.7173 26.9768C41.7173 26.789 41.6629 26.6589 41.5676 26.5867C41.4723 26.5 41.3226 26.4566 41.1048 26.4566H40.6283V27.4826H41.1048C41.3226 27.4826 41.4723 27.4392 41.5676 27.367C41.6629 27.2803 41.7173 27.1502 41.7173 26.9768Z" fill="black"/>
<path d="M46.9038 27.6849C46.9038 28.1617 46.7405 28.5518 46.4274 28.8842C46.1007 29.2021 45.7195 29.361 45.2567 29.361C44.8075 29.361 44.4263 29.2021 44.0996 28.8697C43.7865 28.5374 43.6232 28.1328 43.6232 27.656C43.6232 27.208 43.7865 26.8034 44.0996 26.4855C44.4263 26.1532 44.8075 25.9942 45.2567 25.9942C45.7195 25.9942 46.1143 26.1532 46.4274 26.4855C46.7541 26.8179 46.9038 27.2225 46.9038 27.6849ZM46.441 27.6704C46.441 27.3381 46.3185 27.0491 46.1007 26.8034C45.8693 26.5578 45.5834 26.4277 45.2567 26.4277C44.9436 26.4277 44.6714 26.5433 44.4399 26.789C44.2085 27.0346 44.086 27.3236 44.086 27.6704C44.086 28.0172 44.2085 28.3062 44.4263 28.5518C44.6577 28.7975 44.93 28.9275 45.2567 28.9275C45.5834 28.9275 45.8693 28.7975 46.1007 28.5518C46.3185 28.3206 46.441 28.0172 46.441 27.6704Z" fill="black"/>
<path d="M50.4704 29.3032H48.5646V26.0376H49.0002V28.8842H50.4704V29.3032Z" fill="black"/>
<path d="M53.3971 28.5085C53.3971 28.7541 53.3155 28.9564 53.1385 29.1154C52.9751 29.2888 52.7573 29.361 52.4851 29.361C52.172 29.361 51.8861 29.2599 51.6547 29.0576V28.4362C51.9133 28.7541 52.1856 28.9131 52.4579 28.9131C52.6076 28.9131 52.7301 28.8842 52.8254 28.7975C52.9071 28.7252 52.9479 28.6241 52.9479 28.494C52.9479 28.364 52.9071 28.2629 52.8254 28.1617C52.7573 28.1039 52.6348 28.0028 52.4306 27.8727C52.1311 27.6704 51.9406 27.5115 51.8453 27.4103C51.7091 27.2514 51.6411 27.0635 51.6411 26.8468C51.6411 26.6011 51.7364 26.3844 51.8997 26.2254C52.0631 26.052 52.2809 25.9798 52.5531 25.9798C52.7982 25.9798 53.0296 26.052 53.261 26.1965V26.7312C53.0024 26.5144 52.7573 26.3988 52.5395 26.3988C52.4034 26.3988 52.2809 26.4422 52.1992 26.5144C52.1175 26.5867 52.0767 26.6734 52.0767 26.789C52.0767 26.9046 52.1311 27.0057 52.2264 27.1069C52.2945 27.1647 52.4442 27.2803 52.6757 27.4392C52.9343 27.6126 53.1113 27.7571 53.2066 27.8727C53.3291 28.0461 53.3971 28.2484 53.3971 28.5085Z" fill="black"/>
<path d="M57.5898 29.3032H56.9773L55.4935 27.6849V29.3032H55.0579V26.0376H55.4935V27.5115L56.7731 26.0376H57.3312L55.9835 27.5693L57.5898 29.3032Z" fill="black"/>
<path d="M59.4004 29.3032H58.9512V26.0376H59.4004V29.3032Z" fill="black"/>
<path d="M63.1166 29.3032H61.2245V26.0376H63.0758V26.4566H61.6601V27.4537H63.035V27.8727H61.6601V28.8842H63.1166V29.3032Z" fill="black"/>
<path d="M67.4455 29.0865C67.0508 29.2743 66.6832 29.361 66.3565 29.361C65.9753 29.361 65.6623 29.2743 65.3764 29.072C65.145 28.9131 64.968 28.7108 64.8455 28.4651C64.723 28.2195 64.6549 27.9594 64.6549 27.656C64.6549 27.1936 64.8183 26.8034 65.145 26.4711C65.4581 26.1532 65.8801 25.9798 66.3701 25.9798C66.7104 25.9798 67.0644 26.0809 67.4183 26.2543V26.7601C67.0371 26.5433 66.6832 26.4277 66.3701 26.4277C66.0026 26.4277 65.7031 26.5433 65.4717 26.789C65.2403 27.0202 65.1314 27.3236 65.1314 27.6704C65.1314 28.0317 65.2403 28.3206 65.4717 28.5663C65.7031 28.7975 65.989 28.9275 66.3429 28.9275C66.5607 28.9275 66.7649 28.8697 66.9963 28.7686V28.1473H66.411V27.6993H67.4455V29.0865Z" fill="black"/>
<path d="M72.2917 27.6849C72.2917 28.1617 72.1283 28.5518 71.8016 28.8842C71.4885 29.2021 71.0938 29.361 70.6446 29.361C70.1817 29.361 69.8006 29.2021 69.4739 28.8697C69.1608 28.5374 68.9974 28.1328 68.9974 27.656C68.9974 27.208 69.1608 26.8034 69.4875 26.4855C69.8006 26.1532 70.1953 25.9942 70.6446 25.9942C71.0938 25.9942 71.4885 26.1532 71.8016 26.4855C72.1283 26.8179 72.2917 27.2225 72.2917 27.6849ZM71.8153 27.6704C71.8153 27.3381 71.7064 27.0491 71.4749 26.8034C71.2435 26.5578 70.9713 26.4277 70.6446 26.4277C70.3315 26.4277 70.0456 26.5433 69.8142 26.789C69.5828 27.0346 69.4739 27.3236 69.4739 27.6704C69.4739 28.0172 69.5828 28.3062 69.8142 28.5518C70.032 28.7975 70.3179 28.9275 70.6446 28.9275C70.9713 28.9275 71.2435 28.7975 71.4749 28.5518C71.7064 28.3206 71.8153 28.0172 71.8153 27.6704Z" fill="black"/>
<path d="M44.1404 32.54L42.9833 35.8345H42.8744L41.9624 33.3058L41.0367 35.8345H40.9278L39.7843 32.54H40.2472L40.9959 34.7653L41.8263 32.54H42.0985L42.9289 34.7653L43.6912 32.54H44.1404Z" fill="black"/>
<path d="M50.4568 35.5889C50.0484 35.7767 49.6808 35.8634 49.3541 35.8634C48.9866 35.8634 48.6599 35.7623 48.3876 35.5744C48.1562 35.4155 47.9792 35.2132 47.8567 34.9675C47.7206 34.7219 47.6661 34.4473 47.6661 34.1584C47.6661 33.696 47.8159 33.3058 48.1426 32.9735C48.4693 32.6411 48.8777 32.4822 49.3813 32.4822C49.7217 32.4822 50.062 32.5689 50.4295 32.7423V33.248C50.0484 33.0313 49.6944 32.9301 49.3677 32.9301C49.0138 32.9301 48.7143 33.0457 48.4829 33.2769C48.2515 33.5226 48.129 33.826 48.129 34.1728C48.129 34.5196 48.2515 34.823 48.4829 35.0542C48.7143 35.2999 49.0002 35.4155 49.3541 35.4155C49.5583 35.4155 49.7761 35.3721 49.9939 35.271V34.6352H49.4222V34.2017H50.4568V35.5889Z" fill="black"/>
<path d="M55.0171 35.8056H54.6223L52.6076 33.2625V35.8056H52.172V32.54H52.5532L54.5815 35.0687V32.54H55.0171V35.8056Z" fill="black"/>
<path d="M57.2768 35.8056H56.8412V32.54H57.2768V35.8056Z" fill="black"/>
<path d="M61.0067 35.8056H59.1009V32.54H60.9522V32.959H59.5365V33.9416H60.9114V34.3607H59.5365V35.3866H61.0067V35.8056Z" fill="black"/>
<path d="M65.1994 35.8056H62.4088L64.4371 32.9446H62.5585V32.54H65.1994V32.5833L63.2119 35.4011H65.1994V35.8056ZM64.3418 31.6008L63.9198 32.2221H63.6067L63.9198 31.6008H64.3418Z" fill="black"/>
<path d="M69.5827 35.8056H69.188L67.1733 33.2625V35.8056H66.7241V32.54H67.1188L69.1471 35.0687V32.54H69.5827V35.8056Z" fill="black"/>
<path d="M71.8425 35.8056H71.4069V32.54H71.8425V35.8056Z" fill="black"/>
<path d="M75.5587 35.8056H73.6666V32.54H75.5179V32.959H74.1022V33.9416H75.4771V34.3607H74.1022V35.3866H75.5587V35.8056Z" fill="black"/>
<path d="M32.9371 9.05901C30.6365 3.61144 16.5201 5.01307 16.3704 7.22389C16.2206 9.42026 26.9203 5.88006 29.1936 12.2669C30.3371 15.5181 29.9559 29.9823 23.7349 33.1757C21.3935 34.3751 14.7096 34.2306 8.95138 29.6644C3.68323 25.4884 2.92092 15.966 5.41206 10.504C8.13462 4.53622 15.1724 3.97268 19.3516 3.62589C21.6249 3.43804 21.6793 0.996025 18.4395 0.316884C14.1651 -0.564553 1.91357 0.60588 0.783712 9.33356C-0.999563 23.2054 2.24028 36.8171 22.3736 39.0134C35.2513 40.4295 35.0471 14.0875 32.9371 9.05901Z" fill="black"/>
<path d="M16.8059 16.4285C18.0719 17.8012 18.2217 19.8097 17.1326 20.9368C16.0572 22.0494 14.1378 21.8616 12.8582 20.4889C11.5786 19.1306 11.4289 17.1076 12.5179 15.995C13.6069 14.8679 15.5263 15.0702 16.8059 16.4285Z" fill="#AF1F11"/>
<path d="M20.7673 11.7323C15.8122 8.62558 9.83622 9.57926 7.41315 13.842C4.99007 18.1191 7.0456 24.1013 11.987 27.208C16.9557 30.3003 22.9317 29.361 25.3548 25.0839C27.7779 20.8212 25.7223 14.839 20.7673 11.7323ZM21.0395 24.1447C18.8071 26.789 14.6552 26.7456 11.7829 24.058C8.88333 21.3703 8.35243 17.0498 10.5849 14.4055C12.8038 11.7756 16.9557 11.819 19.8416 14.5066C22.7275 17.1943 23.2584 21.5148 21.0395 24.1447Z" fill="black"/>
</g>
<defs>
<clipPath id="clip0_149_3183">
<rect width="76.7" height="39" fill="white" transform="translate(0.250061 0.0712891)"/>
</clipPath>
</defs>
</svg>
