<svg width="177" height="81" viewBox="0 0 177 81" fill="none" xmlns="http://www.w3.org/2000/svg">
<g clip-path="url(#clip0_149_3182)">
<path d="M92.1184 33.0741H91.7938V31.1067L90.977 32.1182L90.1498 31.1067V33.0741H89.8252V30.5509H90.1184L90.977 31.618L91.8252 30.5509H92.1184V33.0741Z" fill="black"/>
<path d="M95.5425 32.1737C95.5425 32.4516 95.4483 32.6739 95.2598 32.8518C95.0713 33.0296 94.82 33.1185 94.5163 33.1185C94.1498 33.1185 93.8671 32.9852 93.6682 32.7184C93.5949 32.6184 93.5425 32.5072 93.5216 32.3849C93.5111 32.3071 93.5006 32.1849 93.5006 32.0181V30.5509H93.8357V31.9959C93.8357 32.1293 93.8357 32.2293 93.8462 32.296C93.8671 32.3849 93.8985 32.4516 93.9404 32.5183C94.087 32.685 94.2755 32.774 94.5163 32.774C94.7258 32.774 94.8933 32.7184 95.019 32.6072C95.1446 32.4961 95.197 32.3405 95.197 32.1626V30.5509H95.5425V32.1737Z" fill="black"/>
<path d="M98.8306 33.0741H96.6944L98.2442 30.8733H96.7991V30.5509H98.8306V30.5954L97.3017 32.7628H98.8306V33.0741Z" fill="black"/>
<path d="M101.469 33.0741H100.014V30.5509H101.438V30.8844H100.349V31.6402H101.406V31.9626H100.349V32.7517H101.469V33.0741Z" fill="black"/>
<path d="M104.81 32.1737C104.81 32.4516 104.715 32.6739 104.527 32.8518C104.338 33.0296 104.098 33.1185 103.794 33.1185C103.427 33.1185 103.145 32.9852 102.935 32.7184C102.862 32.6184 102.82 32.5072 102.799 32.3849C102.778 32.3071 102.768 32.1849 102.768 32.0181V30.5509H103.103V31.9959C103.103 32.1293 103.113 32.2293 103.124 32.296C103.134 32.3849 103.166 32.4516 103.218 32.5183C103.354 32.685 103.543 32.774 103.794 32.774C103.993 32.774 104.16 32.7184 104.286 32.6072C104.412 32.4961 104.475 32.3405 104.475 32.1626V30.5509H104.81V32.1737Z" fill="black"/>
<path d="M108.485 33.0741H108.161V31.1067L107.344 32.1182L106.517 31.1067V33.0741H106.192V30.5509H106.485L107.344 31.618L108.192 30.5509H108.485V33.0741Z" fill="black"/>
<path d="M91.354 36.2753C91.354 36.4976 91.2807 36.6643 91.1446 36.7977C91.0084 36.9199 90.8095 36.9866 90.5686 36.9866H90.1602V38.0648H89.8252V35.5528H90.5686C90.8095 35.5528 91.0084 35.6195 91.1446 35.7417C91.2807 35.8751 91.354 36.053 91.354 36.2753ZM90.998 36.2641C90.998 36.1308 90.9561 36.0307 90.8828 35.964C90.8095 35.9085 90.6943 35.8751 90.5267 35.8751H90.1602V36.6643H90.5267C90.6943 36.6643 90.8095 36.6309 90.8828 36.5643C90.9561 36.5087 90.998 36.4086 90.998 36.2641Z" fill="black"/>
<path d="M94.9876 36.8199C94.9876 37.1867 94.8619 37.4868 94.6211 37.7313C94.3697 37.987 94.0765 38.1093 93.7205 38.1093C93.375 38.1093 93.0818 37.987 92.8305 37.7313C92.5896 37.4757 92.464 37.1645 92.464 36.7977C92.464 36.4531 92.5896 36.1419 92.8305 35.8862C93.0818 35.6417 93.375 35.5083 93.7205 35.5083C94.0765 35.5083 94.3802 35.6417 94.6211 35.8973C94.8724 36.153 94.9876 36.4642 94.9876 36.8199ZM94.6315 36.8088C94.6315 36.5531 94.5373 36.3308 94.3697 36.1419C94.1917 35.9418 93.9718 35.8529 93.7205 35.8529C93.4797 35.8529 93.2703 35.9418 93.0922 36.1308C92.9142 36.3197 92.82 36.542 92.82 36.8088C92.82 37.0755 92.9142 37.2979 93.0818 37.4868C93.2598 37.6758 93.4692 37.7647 93.7205 37.7647C93.9718 37.7647 94.1917 37.6758 94.3697 37.4868C94.5373 37.2979 94.6315 37.0755 94.6315 36.8088Z" fill="black"/>
<path d="M98.2756 37.8758C97.9928 38.0315 97.7101 38.1093 97.4169 38.1093C97.1447 38.1093 96.9038 38.0315 96.6839 37.887C96.5059 37.7647 96.3698 37.6091 96.2755 37.4201C96.1708 37.2312 96.1289 37.02 96.1289 36.7977C96.1289 36.442 96.2441 36.1419 96.4954 35.8862C96.7468 35.6417 97.0609 35.5083 97.4379 35.5083C97.7101 35.5083 97.9719 35.575 98.2546 35.7195V36.1085C97.9614 35.9307 97.6892 35.8529 97.4379 35.8529C97.1656 35.8529 96.9352 35.9418 96.7572 36.1308C96.5792 36.3086 96.485 36.542 96.485 36.8088C96.485 37.0867 96.5687 37.309 96.7467 37.4979C96.9248 37.6758 97.1551 37.7647 97.4169 37.7647C97.6996 37.7647 97.9824 37.6647 98.2756 37.4757V37.8758Z" fill="black"/>
<path d="M101.459 38.0648H99.3122L100.872 35.864H99.4274V35.5528H101.459V35.5972L99.93 37.7536H101.459V38.0648Z" fill="black"/>
<path d="M104.789 38.7206C104.684 38.7762 104.579 38.8095 104.475 38.8095C104.359 38.8095 104.276 38.7762 104.202 38.7206C104.129 38.6539 104.087 38.565 104.087 38.4538C104.087 38.3093 104.171 38.176 104.318 38.0648H104.276L103.972 37.3312H102.956L102.653 38.0648H102.307L103.333 35.5528H103.585L104.621 38.0648C104.558 38.0648 104.506 38.0982 104.454 38.1648C104.401 38.2204 104.37 38.2871 104.37 38.3538C104.37 38.4872 104.433 38.5539 104.569 38.5539C104.632 38.5539 104.705 38.5205 104.789 38.4761V38.7206ZM103.825 37.0089L103.459 36.0974L103.092 37.0089H103.825Z" fill="black"/>
<path d="M107.281 35.8751H106.401V38.0648H106.066V35.8751H105.197V35.5528H107.281V35.8751Z" fill="black"/>
<path d="M110.401 38.0648H109.93L108.789 36.8199V38.0648H108.454V35.5528H108.789V36.6865L109.773 35.5528H110.202L109.166 36.731L110.401 38.0648Z" fill="black"/>
<path d="M113.71 36.8199C113.71 37.1867 113.595 37.4868 113.344 37.7314C113.093 37.987 112.799 38.1093 112.443 38.1093C112.098 38.1093 111.805 37.987 111.553 37.7314C111.312 37.4757 111.187 37.1645 111.187 36.7977C111.187 36.4531 111.312 36.1419 111.553 35.8862C111.805 35.6417 112.098 35.5083 112.443 35.5083C112.799 35.5083 113.103 35.6417 113.344 35.8973C113.595 36.153 113.71 36.4642 113.71 36.8199ZM113.354 36.8088C113.354 36.5531 113.271 36.3308 113.093 36.1419C112.915 35.9418 112.705 35.8529 112.443 35.8529C112.202 35.8529 111.993 35.9418 111.815 36.1308C111.637 36.3197 111.543 36.542 111.543 36.8088C111.543 37.0756 111.637 37.2979 111.805 37.4868C111.983 37.6758 112.192 37.7647 112.443 37.7647C112.705 37.7647 112.915 37.6758 113.093 37.4868C113.271 37.2979 113.354 37.0756 113.354 36.8088ZM112.82 34.8303L112.496 35.3082H112.255L112.496 34.8303H112.82Z" fill="black"/>
<path d="M118.014 35.5528L117.124 38.087H117.04L116.339 36.153L115.627 38.087H115.543L114.663 35.5528H115.019L115.595 37.2645L116.234 35.5528H116.443L117.082 37.2756L117.669 35.5528H118.014Z" fill="black"/>
<path d="M91.354 41.266C91.354 41.4883 91.2807 41.6661 91.1446 41.7884C91.0084 41.9218 90.8095 41.9774 90.5686 41.9774H90.1602V43.0667H89.8252V40.5546H90.5686C90.8095 40.5546 91.0084 40.6102 91.1446 40.7436C91.2807 40.8659 91.354 41.0437 91.354 41.266ZM90.998 41.266C90.998 41.1215 90.9561 41.0215 90.8828 40.9659C90.8095 40.8992 90.6943 40.877 90.5267 40.877H90.1602V41.655H90.5267C90.6943 41.655 90.8095 41.6328 90.8828 41.5661C90.9561 41.5105 90.998 41.4105 90.998 41.266Z" fill="black"/>
<path d="M94.3802 43.0667H94.0347L93.7205 42.3219H92.7153L92.4116 43.0667H92.066L93.0922 40.5546H93.3435L94.3802 43.0667ZM93.5844 41.9996L93.2074 41.0993L92.8514 41.9996H93.5844Z" fill="black"/>
<path d="M97.6368 43.0667H97.3331L95.7729 41.1104V43.0667H95.4378V40.5546H95.731L97.3017 42.4998V40.5546H97.6368V43.0667ZM97.0399 39.8321L96.7258 40.3101H96.4745L96.7258 39.8321H97.0399Z" fill="black"/>
<path d="M100.244 42.4442C100.244 42.6332 100.181 42.7999 100.056 42.9222C99.9196 43.0444 99.752 43.1111 99.5426 43.1111C99.3018 43.1111 99.0819 43.0333 98.9038 42.8666V42.3998C99.1028 42.6443 99.3122 42.7666 99.5217 42.7666C99.6368 42.7666 99.7311 42.7332 99.8044 42.6776C99.8672 42.6221 99.8986 42.5443 99.8986 42.4331C99.8986 42.3442 99.8672 42.2553 99.8044 42.1886C99.752 42.133 99.6578 42.0552 99.5112 41.9551C99.2703 41.7995 99.1237 41.6773 99.0504 41.5995C98.9457 41.4772 98.9038 41.3438 98.9038 41.1771C98.9038 40.977 98.9667 40.8214 99.0923 40.688C99.2285 40.5657 99.396 40.4991 99.6054 40.4991C99.7834 40.4991 99.9614 40.5546 100.139 40.6769V41.0882C99.9405 40.9103 99.752 40.8214 99.5845 40.8214C99.4798 40.8214 99.3855 40.8547 99.3227 40.9103C99.2599 40.9659 99.2285 41.0437 99.2285 41.1215C99.2285 41.2104 99.2703 41.2994 99.3541 41.3772C99.396 41.4216 99.5112 41.4994 99.6892 41.6217C99.8881 41.7551 100.024 41.8662 100.098 41.9663C100.192 42.0885 100.244 42.2553 100.244 42.4442Z" fill="black"/>
<path d="M103.354 40.877H102.485V43.0667H102.15V40.877H101.281V40.5546H103.354V40.877Z" fill="black"/>
<path d="M107.553 40.5546L106.663 43.0778H106.59L105.878 41.1437L105.166 43.0778H105.082L104.202 40.5546H104.558L105.134 42.2664L105.773 40.5546H105.993L106.621 42.2664L107.208 40.5546H107.553Z" fill="black"/>
<path d="M110.485 43.0667H110.14L109.836 42.3219H108.82L108.527 43.0667H108.171L109.197 40.5546H109.449L110.485 43.0667ZM109.689 41.9996L109.323 41.0993L108.956 41.9996H109.689Z" fill="black"/>
<path d="M91.354 46.2679C91.354 46.4902 91.2807 46.668 91.1446 46.7903C91.0084 46.9125 90.8095 46.9792 90.5686 46.9792H90.1602V48.0574H89.8252V45.5454H90.5686C90.8095 45.5454 91.0084 45.6121 91.1446 45.7343C91.2807 45.8677 91.354 46.0456 91.354 46.2679ZM90.998 46.2679C90.998 46.1234 90.9561 46.0233 90.8828 45.9677C90.8095 45.9011 90.6943 45.8677 90.5267 45.8677H90.1602V46.6569H90.5267C90.6943 46.6569 90.8095 46.6235 90.8828 46.568C90.9561 46.5013 90.998 46.4012 90.998 46.2679Z" fill="black"/>
<path d="M94.9876 46.8125C94.9876 47.1793 94.8619 47.4794 94.6211 47.7351C94.3697 47.9796 94.0765 48.1019 93.7205 48.1019C93.375 48.1019 93.0818 47.9796 92.8305 47.7239C92.5896 47.4683 92.464 47.1571 92.464 46.7903C92.464 46.4457 92.5896 46.1345 92.8305 45.8899C93.0818 45.6343 93.375 45.512 93.7205 45.512C94.0765 45.512 94.3802 45.6343 94.6211 45.8899C94.8724 46.1456 94.9876 46.4568 94.9876 46.8125ZM94.6315 46.8014C94.6315 46.5457 94.5373 46.3234 94.3697 46.1345C94.1917 45.9455 93.9718 45.8455 93.7205 45.8455C93.4797 45.8455 93.2703 45.9344 93.0922 46.1233C92.9142 46.3123 92.82 46.5346 92.82 46.8014C92.82 47.0681 92.9142 47.2904 93.0818 47.4794C93.2598 47.6684 93.4692 47.7684 93.7205 47.7684C93.9718 47.7684 94.1917 47.6684 94.3697 47.4794C94.5373 47.3016 94.6315 47.0681 94.6315 46.8014Z" fill="black"/>
<path d="M97.731 48.0574H96.265V45.5454H96.6001V47.7351H97.731V48.0574Z" fill="black"/>
<path d="M99.9824 47.4461C99.9824 47.635 99.9196 47.7906 99.7834 47.9129C99.6578 48.0463 99.4902 48.1019 99.2808 48.1019C99.04 48.1019 98.8201 48.0241 98.6421 47.8684V47.3905C98.841 47.635 99.0504 47.7573 99.2599 47.7573C99.3751 47.7573 99.4693 47.7351 99.5426 47.6684C99.6054 47.6128 99.6368 47.535 99.6368 47.4349C99.6368 47.3349 99.6054 47.2571 99.5426 47.1793C99.4902 47.1348 99.396 47.057 99.2389 46.957C99.0086 46.8014 98.862 46.6791 98.7887 46.6013C98.684 46.479 98.6316 46.3345 98.6316 46.1678C98.6316 45.9789 98.7049 45.8121 98.8306 45.6899C98.9562 45.5565 99.1237 45.5009 99.3332 45.5009C99.5217 45.5009 99.6997 45.5565 99.8777 45.6676V46.0789C99.6787 45.9122 99.4902 45.8232 99.3227 45.8232C99.218 45.8232 99.1238 45.8566 99.0609 45.9122C98.9981 45.9677 98.9667 46.0344 98.9667 46.1234C98.9667 46.2123 99.0086 46.2901 99.0819 46.3679C99.1342 46.4123 99.2494 46.5013 99.4274 46.6235C99.6264 46.7569 99.7625 46.8681 99.8358 46.957C99.93 47.0904 99.9824 47.246 99.9824 47.4461Z" fill="black"/>
<path d="M103.208 48.0574H102.736L101.595 46.8125V48.0574H101.26V45.5454H101.595V46.6791L102.579 45.5454H103.009L101.972 46.7236L103.208 48.0574Z" fill="black"/>
<path d="M104.6 48.0574H104.255V45.5454H104.6V48.0574Z" fill="black"/>
<path d="M107.459 48.0574H106.003V45.5454H107.428V45.8677H106.339V46.6347H107.396V46.957H106.339V47.7351H107.459V48.0574Z" fill="black"/>
<path d="M110.789 47.8907C110.485 48.0352 110.202 48.1019 109.951 48.1019C109.658 48.1019 109.417 48.0352 109.197 47.8796C109.019 47.7573 108.883 47.6017 108.789 47.4127C108.695 47.2238 108.642 47.0237 108.642 46.7903C108.642 46.4346 108.768 46.1345 109.019 45.8788C109.26 45.6343 109.585 45.5009 109.962 45.5009C110.223 45.5009 110.496 45.5787 110.768 45.7121V46.1011C110.475 45.9344 110.202 45.8455 109.962 45.8455C109.679 45.8455 109.449 45.9344 109.27 46.1234C109.092 46.3012 109.009 46.5346 109.009 46.8014C109.009 47.0793 109.092 47.3016 109.27 47.4905C109.449 47.6684 109.668 47.7684 109.941 47.7684C110.108 47.7684 110.265 47.7239 110.443 47.6461V47.1682H109.993V46.8236H110.789V47.8907Z" fill="black"/>
<path d="M114.517 46.8125C114.517 47.1793 114.391 47.4794 114.14 47.7351C113.899 47.9796 113.595 48.1019 113.25 48.1019C112.894 48.1019 112.6 47.9796 112.349 47.7239C112.108 47.4683 111.983 47.1571 111.983 46.7903C111.983 46.4457 112.108 46.1345 112.36 45.8899C112.6 45.6343 112.904 45.512 113.25 45.512C113.595 45.512 113.899 45.6343 114.14 45.8899C114.391 46.1456 114.517 46.4568 114.517 46.8125ZM114.15 46.8014C114.15 46.5457 114.066 46.3234 113.888 46.1345C113.71 45.9455 113.501 45.8455 113.25 45.8455C113.009 45.8455 112.789 45.9344 112.611 46.1233C112.433 46.3123 112.349 46.5346 112.349 46.8014C112.349 47.0681 112.433 47.2904 112.611 47.4794C112.778 47.6684 112.998 47.7684 113.25 47.7684C113.501 47.7684 113.71 47.6684 113.888 47.4794C114.066 47.3016 114.15 47.0681 114.15 46.8014Z" fill="black"/>
<path d="M92.8619 50.5472L91.9718 53.0815H91.888L91.1864 51.1363L90.4744 53.0815H90.3906L89.511 50.5472H89.867L90.443 52.259L91.0817 50.5472H91.2912L91.9299 52.259L92.5163 50.5472H92.8619Z" fill="black"/>
<path d="M97.7206 52.8925C97.4064 53.037 97.1237 53.1037 96.8724 53.1037C96.5897 53.1037 96.3384 53.0259 96.1289 52.8814C95.9509 52.7591 95.8148 52.6035 95.7205 52.4146C95.6158 52.2256 95.5739 52.0144 95.5739 51.7921C95.5739 51.4364 95.6891 51.1363 95.9404 50.8807C96.1918 50.625 96.5059 50.5027 96.8933 50.5027C97.1551 50.5027 97.4169 50.5694 97.6996 50.7028V51.0919C97.4064 50.9251 97.1342 50.8473 96.8829 50.8473C96.6106 50.8473 96.3802 50.9362 96.2022 51.1141C96.0242 51.303 95.93 51.5365 95.93 51.8032C95.93 52.07 96.0242 52.3034 96.2022 52.4813C96.3802 52.6702 96.6001 52.7591 96.8724 52.7591C97.0295 52.7591 97.197 52.7258 97.3645 52.648V52.1589H96.9248V51.8255H97.7206V52.8925Z" fill="black"/>
<path d="M101.228 53.0593H100.925L99.3751 51.103V53.0593H99.04V50.5472H99.3332L100.893 52.4924V50.5472H101.228V53.0593Z" fill="black"/>
<path d="M102.967 53.0593H102.632V50.5472H102.967V53.0593Z" fill="black"/>
<path d="M105.836 53.0593H104.37V50.5472H105.794V50.8696H104.705V51.6254H105.763V51.9477H104.705V52.7369H105.836V53.0593Z" fill="black"/>
<path d="M109.061 53.0593H106.914L108.475 50.8584H107.03V50.5472H109.061V50.5806L107.532 52.748H109.061V53.0593ZM108.401 49.8247L108.077 50.3027H107.836L108.077 49.8247H108.401Z" fill="black"/>
<path d="M112.433 53.0593H112.129L110.579 51.103V53.0593H110.234V50.5472H110.538L112.098 52.4924V50.5472H112.433V53.0593Z" fill="black"/>
<path d="M114.171 53.0593H113.836V50.5472H114.171V53.0593Z" fill="black"/>
<path d="M117.03 53.0593H115.574V50.5472H116.998V50.8696H115.909V51.6254H116.967V51.9477H115.909V52.7369H117.03V53.0593Z" fill="black"/>
<path d="M84.2439 32.4849C82.4743 28.2945 71.6154 29.3727 71.5003 31.0733C71.3851 32.7628 79.6156 30.0396 81.3643 34.9525C82.2439 37.4534 81.9507 48.5798 77.1653 51.0362C75.3642 51.9588 70.2228 51.8476 65.7934 48.3352C61.7409 45.1229 61.1545 37.798 63.0708 33.5964C65.1651 29.0059 70.5788 28.5724 73.7935 28.3056C75.5422 28.1611 75.5841 26.2826 73.0919 25.7602C69.8039 25.0822 60.3797 25.9825 59.5105 32.6961C58.1388 43.3667 60.631 53.8373 76.1181 55.5268C86.0241 56.6161 85.867 36.353 84.2439 32.4849Z" fill="black"/>
<path d="M71.8353 38.1537C72.8092 39.2097 72.9243 40.7547 72.0866 41.6217C71.2594 42.4776 69.7829 42.3331 68.7986 41.2771C67.8143 40.2323 67.6991 38.6761 68.5368 37.8203C69.3745 36.9533 70.851 37.1089 71.8353 38.1537Z" fill="#AF1F11"/>
<path d="M74.8825 34.5413C71.0709 32.1515 66.474 32.8851 64.6101 36.1641C62.7462 39.4542 64.3274 44.0559 68.1285 46.4457C71.9505 48.8243 76.5475 48.1019 78.4114 44.8118C80.2753 41.5328 78.6941 36.9311 74.8825 34.5413ZM75.0919 44.0893C73.3746 46.1233 70.1809 46.09 67.9714 44.0226C65.741 41.9551 65.3326 38.6317 67.0499 36.5976C68.7568 34.5746 71.9505 34.608 74.1705 36.6754C76.3904 38.7428 76.7988 42.0663 75.0919 44.0893Z" fill="black"/>
</g>
<defs>
<clipPath id="clip0_149_3182">
<rect width="59" height="30" fill="white" transform="translate(59.1 25.5713)"/>
</clipPath>
</defs>
</svg>
