<svg width="177" height="81" viewBox="0 0 177 81" fill="none" xmlns="http://www.w3.org/2000/svg">
<g clip-path="url(#clip0_149_3197)">
<g clip-path="url(#clip1_149_3197)">
<mask id="mask0_149_3197" style="mask-type:luminance" maskUnits="userSpaceOnUse" x="45" y="31" width="86" height="19">
<path d="M130.7 31.5029H45.7V49.7197H130.7V31.5029Z" fill="white"/>
</mask>
<g mask="url(#mask0_149_3197)">
<path d="M52.6164 48.9319C52.8265 47.5187 52.8884 46.0873 52.8012 44.6612C52.7359 43.5708 52.5305 42.4933 52.19 41.4553C51.9343 40.6695 51.5558 39.929 51.0685 39.2615C50.7099 38.7639 50.2535 38.3447 49.7273 38.0295C49.3416 37.7915 48.8931 37.6755 48.4404 37.6969C48.1823 37.7322 47.934 37.8192 47.7103 37.9527C47.2762 38.1779 46.833 38.3965 46.4134 38.6481C46.3684 38.6743 46.3248 38.7028 46.2827 38.7334C46.2097 38.7882 46.143 38.851 46.0837 38.9204C45.8102 39.2773 45.674 39.7206 45.6999 40.1695C45.7088 40.6735 45.8166 41.1709 46.0171 41.6333C46.3447 42.3389 46.8239 42.9635 47.4206 43.4627C48.5844 44.4545 49.8618 45.3047 51.226 45.9953C52.5786 46.7276 53.9634 47.4071 55.2605 48.2366C55.5725 48.4361 55.8781 48.6453 56.1774 48.864C56.2532 48.8326 56.3266 48.7958 56.3971 48.7537C56.5726 48.6627 56.7475 48.5706 56.9219 48.4774C57.0964 48.3844 57.271 48.2914 57.4444 48.1968C57.4796 48.1775 57.6511 48.1098 57.6585 48.0762C57.9058 46.9508 58.1153 45.8168 58.2699 44.6748C58.4007 43.7097 58.4931 42.7389 58.5303 41.7658C58.5651 40.9442 58.5525 40.1212 58.4925 39.3011C58.443 38.6192 58.3461 37.9417 58.2026 37.2733C58.0855 36.7249 57.922 36.1875 57.7139 35.6668C57.5432 35.2382 57.3277 34.8287 57.0711 34.4453C56.8613 34.1306 56.6112 33.8448 56.3272 33.595C56.0916 33.3874 55.8246 33.2186 55.536 33.0949C55.2832 32.9878 55.0128 32.9284 54.7383 32.9198C54.4822 32.9135 54.2273 32.9578 53.9884 33.0503C53.9099 33.0807 53.834 33.1165 53.7587 33.1541C53.253 33.4076 52.7455 33.6689 52.2568 33.9546C52.1377 34.0235 52.0252 34.1032 51.9205 34.1925C51.7099 34.3768 51.5327 34.5961 51.3969 34.8407C51.2426 35.1193 51.1307 35.4194 51.0651 35.7311C50.9886 36.0942 50.9583 36.4656 50.975 36.8363C50.9947 37.2782 51.0619 37.7166 51.1754 38.144C51.3099 38.6521 51.4902 39.1469 51.7141 39.6223C51.9819 40.192 52.2932 40.7401 52.6454 41.2617C53.0635 41.882 53.5219 42.4741 54.0177 43.0342C54.6001 43.6937 55.219 44.3201 55.8715 44.9105C56.639 45.6078 57.443 46.2625 58.2731 46.8828C58.7236 47.2196 59.1811 47.5466 59.6456 47.8639C59.7215 47.8328 59.795 47.7959 59.8653 47.7536C60.0408 47.6626 60.2158 47.5705 60.3901 47.4773C60.5647 47.3843 60.7392 47.2913 60.9126 47.1967C60.9663 47.1683 61.094 47.1256 61.127 47.0761C61.7726 46.1013 62.3875 45.1058 62.9572 44.0847C63.4422 43.2153 63.8953 42.3275 64.3001 41.4181C64.6452 40.6501 64.9488 39.8642 65.2098 39.0637C65.4264 38.4014 65.6001 37.7259 65.7298 37.0413C65.8371 36.4786 65.8994 35.9082 65.9162 35.3356C65.9308 34.871 65.8988 34.406 65.8207 33.9478C65.758 33.5751 65.6476 33.212 65.4921 32.8675C65.3655 32.5876 65.1941 32.3303 64.9847 32.1056C64.8047 31.9137 64.5886 31.7592 64.3487 31.6511C64.1243 31.5522 63.8816 31.5017 63.6363 31.503C63.3811 31.5064 63.129 31.5598 62.8943 31.6602C62.7639 31.7147 62.6385 31.7807 62.5134 31.8455C62.0569 32.0817 61.5938 32.3143 61.1514 32.5767C61.0201 32.6544 60.8951 32.7425 60.7776 32.8399C60.5292 33.0502 60.3115 33.2941 60.1306 33.5646C59.9165 33.8836 59.7404 34.2265 59.6058 34.5863C59.4457 35.0126 59.328 35.4536 59.2544 35.9031C59.1665 36.4377 59.1242 36.9788 59.1279 37.5206C59.1318 38.1572 59.1823 38.7927 59.2789 39.4219C59.3919 40.1609 59.5517 40.892 59.7573 41.6108C59.9972 42.4509 60.2833 43.277 60.6144 44.0855C60.9985 45.0305 61.4348 45.9541 61.9087 46.8573C62.1627 47.3415 62.427 47.8199 62.7016 48.2926C62.7178 48.321 64.1799 47.4983 64.183 47.5048C63.2713 45.9557 62.489 44.334 61.8442 42.6561C61.3458 41.3666 60.9837 40.0284 60.7639 38.6634C60.5952 37.6308 60.5652 36.5803 60.675 35.5397C60.7539 34.7611 60.9677 34.0021 61.3069 33.2968C61.5581 32.768 61.9301 32.3058 62.3929 31.9473C62.4429 31.9107 62.4941 31.8758 62.5464 31.8427L62.5208 31.8586C62.5409 31.8459 62.5612 31.8335 62.5816 31.8213C62.5919 31.8154 62.6021 31.8097 62.6121 31.8034C62.653 31.7779 62.5248 31.8526 62.5757 31.8239C62.1777 32.0465 61.7706 32.2608 61.3646 32.4678C61.3985 32.4505 61.3001 32.4994 61.3095 32.4962C61.3189 32.4931 61.3299 32.486 61.3402 32.4812C61.3621 32.4712 61.3837 32.461 61.4056 32.4513L61.3771 32.4635C61.6275 32.3512 61.8987 32.2926 62.1731 32.2915C62.4388 32.2935 62.7005 32.356 62.9384 32.4741C63.1972 32.605 63.4258 32.7886 63.6096 33.0131C63.828 33.2827 63.9997 33.587 64.1176 33.9134C64.2655 34.3207 64.3605 34.7454 64.4002 35.177C64.4515 35.7192 64.4492 36.2651 64.3931 36.8068C64.3246 37.4814 64.2038 38.1497 64.0317 38.8056C63.8215 39.6114 63.5608 40.4033 63.2514 41.1765C62.8782 42.1128 62.4569 43.0292 61.9892 43.9221C61.4334 44.9901 60.8236 46.03 60.1778 47.0457C60.0019 47.3202 59.8247 47.5929 59.6456 47.8639L61.127 47.0761C60.2357 46.4658 59.3664 45.823 58.5306 45.1385C57.812 44.5497 57.118 43.9306 56.4616 43.2733C55.9018 42.7162 55.3744 42.1273 54.8822 41.5096C54.4614 40.9823 54.0768 40.4272 53.7308 39.848C53.4381 39.3587 53.1845 38.847 52.9724 38.3177C52.794 37.8734 52.6571 37.4136 52.5633 36.9441C52.4834 36.546 52.4471 36.1404 52.455 35.7345C52.4615 35.3896 52.512 35.0471 52.6054 34.715C52.6856 34.4298 52.8076 34.158 52.9675 33.9085C53.1108 33.6858 53.2911 33.4892 53.5006 33.3272C53.5493 33.2893 53.5996 33.2543 53.6515 33.2223L53.6259 33.2382L53.6728 33.2098L53.6964 33.1961L53.7084 33.1893C53.4927 33.3212 53.2695 33.4404 53.04 33.5464C51.9981 34.1001 52.2276 33.9728 52.4365 33.8673C52.4649 33.8528 52.3495 33.9091 52.3796 33.8957C52.3879 33.8921 52.3958 33.8878 52.4041 33.8838C52.4217 33.8758 52.4391 33.8676 52.4567 33.8599L52.4283 33.8719C52.6591 33.7707 52.9074 33.7153 53.1594 33.709C53.4268 33.7037 53.6929 33.7482 53.944 33.84C54.2279 33.9454 54.4929 34.0957 54.7289 34.2852C55.0111 34.512 55.2618 34.7753 55.4743 35.0684C55.7327 35.4241 55.9519 35.8067 56.1282 36.2095C56.3436 36.7 56.5157 37.2083 56.6427 37.7287C56.797 38.3569 56.9065 38.9953 56.9702 39.6391C57.0479 40.4161 57.0796 41.1971 57.0652 41.9779C57.0512 42.9072 56.9833 43.8353 56.8773 44.7587C56.7525 45.8466 56.5748 46.9286 56.359 48.0023C56.3021 48.29 56.2417 48.5772 56.1776 48.8637L57.6587 48.0765C56.5356 47.2871 55.356 46.5811 54.1297 45.964C52.9098 45.3179 51.678 44.6848 50.5267 43.9206C49.9649 43.5522 49.4305 43.1437 48.9276 42.6982C48.3951 42.2525 47.9508 41.711 47.6177 41.1017C47.2501 40.4224 47.1124 39.6424 47.2251 38.8783C47.2823 38.5203 47.4667 38.1949 47.7444 37.9618C47.7768 37.9365 47.8104 37.9132 47.8448 37.8913L47.8195 37.9072C47.8286 37.9015 47.838 37.8956 47.8479 37.8902L47.8621 37.8819C47.6393 38.0078 47.4134 38.1285 47.1847 38.2441C46.9611 38.369 46.7348 38.4887 46.5058 38.6032L46.5206 38.596L46.549 38.5824L46.5206 38.5946C46.9236 38.4398 47.37 38.4419 47.7714 38.6006C48.3222 38.8123 48.8139 39.1536 49.2048 39.5956C49.7453 40.1948 50.1756 40.885 50.4755 41.6342C50.8835 42.6402 51.147 43.699 51.2584 44.7789C51.4084 46.2201 51.3932 47.6738 51.213 49.1116C51.1895 49.3142 51.1635 49.5165 51.1351 49.7185C51.1351 49.7097 51.3824 49.5943 51.3548 49.6085C51.5305 49.5176 51.7055 49.4254 51.8799 49.3322C52.0544 49.2392 52.229 49.1463 52.4024 49.0516C52.4348 49.0337 52.6125 48.9609 52.6164 48.9311" fill="#6AC61A"/>
<path d="M71.0683 35.8428H72.0297V40.3856H75.2455V41.2157H71.0683V35.8428Z" fill="#04070C"/>
<path d="M75.9415 39.6067V37.1118H76.8614V39.4739C76.8614 40.1278 77.1514 40.4103 77.7233 40.4103C78.3616 40.4103 78.7013 39.8799 78.7013 39.2914V37.1118H79.6212V41.2143H78.751V40.5846C78.609 40.8046 78.4138 40.9852 78.1835 41.1097C77.9532 41.2343 77.6952 41.2988 77.4334 41.2973C76.3477 41.2973 75.9415 40.6841 75.9415 39.6067Z" fill="#04070C"/>
<path d="M80.4087 39.1672C80.4087 37.982 81.1797 37.0288 82.3068 37.0288C82.5651 37.0235 82.8215 37.0749 83.0577 37.1794C83.294 37.2839 83.5044 37.439 83.6742 37.6338V35.7609H84.5942V41.2143H83.7157V40.7006C83.5376 40.8956 83.3196 41.0498 83.0764 41.1528C82.8333 41.2559 82.5708 41.3052 82.3068 41.2976C81.1797 41.2976 80.4087 40.3444 80.4087 39.1677M83.6742 39.1677C83.6863 39.0101 83.6661 38.8516 83.6148 38.702C83.5635 38.5524 83.4822 38.4149 83.3759 38.2978C83.2696 38.1807 83.1406 38.0865 82.9966 38.021C82.8527 37.9555 82.6969 37.9201 82.5388 37.9169C82.2172 37.9306 81.9133 38.0681 81.6906 38.3005C81.4679 38.5329 81.3435 38.8424 81.3435 39.1643C81.3435 39.4862 81.4679 39.7957 81.6906 40.0281C81.9133 40.2606 82.2172 40.398 82.5388 40.4117C82.6965 40.4095 82.8521 40.375 82.996 40.3103C83.1399 40.2456 83.269 40.1521 83.3753 40.0357C83.4817 39.9192 83.5631 39.7822 83.6145 39.6331C83.6659 39.4839 83.6862 39.3259 83.6742 39.1686" fill="#04070C"/>
<path d="M85.2653 40.5348L86.8485 38.5705C87.0557 38.3217 87.437 37.924 87.437 37.924H85.3483V37.1118H88.5806V37.7912L87.006 39.7059C86.774 39.9958 86.3843 40.4021 86.3843 40.4021H88.6469V41.2143H85.2639L85.2653 40.5348Z" fill="#04070C"/>
<path d="M89.2188 35.9599C89.2185 35.8117 89.2767 35.6694 89.3807 35.5638C89.4847 35.4583 89.6261 35.398 89.7743 35.3962C89.9234 35.3975 90.066 35.4573 90.1713 35.5628C90.2767 35.6682 90.3365 35.8108 90.3377 35.9599C90.3358 36.108 90.2756 36.2493 90.1701 36.3532C90.0646 36.4572 89.9224 36.5153 89.7743 36.5151C89.627 36.5151 89.4858 36.4566 89.3816 36.3525C89.2774 36.2484 89.2189 36.1072 89.2188 35.9599ZM89.3183 37.1118H90.2397V41.2143H89.3197L89.3183 37.1118Z" fill="#04070C"/>
<path d="M91.0254 39.1675C91.0219 38.8878 91.074 38.6102 91.1786 38.3508C91.2832 38.0914 91.4384 37.8553 91.635 37.6564C91.8316 37.4574 92.0658 37.2995 92.3239 37.1919C92.5821 37.0842 92.8591 37.0288 93.1388 37.0291C93.6789 37.0485 94.1895 37.2807 94.559 37.675C94.9286 38.0694 95.1271 38.594 95.1114 39.1342C95.1101 39.2534 95.1017 39.3724 95.0864 39.4907H91.9786C92.0344 39.7832 92.1947 40.0454 92.4295 40.2285C92.6644 40.4115 92.9578 40.5029 93.2551 40.4857C93.6742 40.4873 94.0842 40.3631 94.432 40.1292L94.7953 40.8092C94.3362 41.1237 93.7936 41.294 93.2371 41.2981C92.0685 41.2981 91.0243 40.5192 91.0243 39.1683M94.2151 38.8118C94.179 38.5393 94.0445 38.2893 93.8369 38.1091C93.6292 37.9289 93.3628 37.8309 93.0879 37.8336C92.8169 37.8415 92.557 37.9434 92.3529 38.1219C92.1487 38.3003 92.013 38.5443 91.969 38.8118H94.2151Z" fill="#04070C"/>
<path d="M97.5729 39.1672C97.5729 37.982 98.3439 37.0288 99.4708 37.0288C99.7291 37.0235 99.9854 37.0749 100.222 37.1794C100.458 37.2839 100.668 37.439 100.838 37.6338V35.7609H101.758V41.2143H100.88V40.7006C100.702 40.8955 100.484 41.0498 100.24 41.1528C99.9973 41.2558 99.7348 41.3052 99.4708 41.2976C98.3436 41.2976 97.5729 40.3444 97.5729 39.1677M100.838 39.1677C100.851 39.0101 100.83 38.8516 100.779 38.702C100.728 38.5524 100.646 38.4149 100.54 38.2978C100.434 38.1807 100.305 38.0865 100.161 38.021C100.017 37.9555 99.8612 37.9201 99.7031 37.9169C99.3814 37.9306 99.0775 38.0681 98.8548 38.3005C98.6321 38.5329 98.5078 38.8424 98.5078 39.1643C98.5078 39.4862 98.6321 39.7957 98.8548 40.0281C99.0775 40.2606 99.3814 40.398 99.7031 40.4117C99.8608 40.4095 100.016 40.375 100.16 40.3103C100.304 40.2456 100.433 40.1521 100.54 40.0357C100.646 39.9192 100.727 39.7822 100.779 39.6331C100.83 39.4839 100.85 39.3259 100.838 39.1686" fill="#04070C"/>
<path d="M103.607 35.7609H102.687V41.2143H103.607V35.7609Z" fill="#04070C"/>
<path d="M104.394 39.1672C104.394 37.982 105.165 37.0288 106.292 37.0288C106.55 37.0235 106.806 37.0749 107.043 37.1794C107.279 37.2839 107.489 37.439 107.659 37.6338V37.1118H108.579V41.2143H107.659V40.7003C107.489 40.8939 107.278 41.0478 107.042 41.1509C106.806 41.2541 106.55 41.3041 106.292 41.2973C105.165 41.2973 104.394 40.3438 104.394 39.1672ZM107.66 39.1675C107.672 39.0098 107.651 38.8513 107.6 38.7017C107.549 38.5521 107.467 38.4146 107.361 38.2975C107.255 38.1804 107.126 38.0863 106.982 38.0208C106.838 37.9553 106.682 37.9198 106.524 37.9166C106.202 37.9304 105.899 38.0678 105.676 38.3002C105.453 38.5326 105.329 38.8421 105.329 39.164C105.329 39.486 105.453 39.7954 105.676 40.0279C105.899 40.2603 106.202 40.3977 106.524 40.4115C106.682 40.4092 106.837 40.3747 106.981 40.31C107.125 40.2453 107.254 40.1519 107.361 40.0354C107.467 39.9189 107.548 39.7819 107.6 39.6328C107.651 39.4837 107.672 39.3256 107.66 39.1683" fill="#04070C"/>
<path d="M111.43 35.8428H112.392V40.3856H115.607V41.2157H111.43V35.8428Z" fill="#04070C"/>
<path d="M116.304 39.6067V37.1118H117.223V39.4739C117.223 40.1278 117.513 40.4103 118.085 40.4103C118.723 40.4103 119.063 39.8799 119.063 39.2914V37.1118H119.983V41.2143H119.112V40.5846C118.97 40.8046 118.775 40.9852 118.545 41.1097C118.315 41.2343 118.057 41.2988 117.795 41.2973C116.709 41.2973 116.303 40.6841 116.303 39.6067" fill="#04070C"/>
<path d="M120.771 39.1672C120.771 37.982 121.542 37.0288 122.669 37.0288C122.927 37.0235 123.183 37.0749 123.42 37.1794C123.656 37.2839 123.866 37.439 124.036 37.6338V35.7609H124.956V41.2143H124.078V40.7006C123.9 40.8955 123.681 41.0498 123.438 41.1528C123.195 41.2558 122.933 41.3052 122.669 41.2976C121.542 41.2976 120.771 40.3444 120.771 39.1677M124.036 39.1677C124.048 39.0101 124.028 38.8516 123.977 38.702C123.926 38.5524 123.844 38.4149 123.738 38.2978C123.632 38.1807 123.503 38.0865 123.359 38.021C123.215 37.9555 123.059 37.9201 122.901 37.9169C122.579 37.9306 122.275 38.0681 122.053 38.3005C121.83 38.5329 121.706 38.8424 121.706 39.1643C121.706 39.4862 121.83 39.7957 122.053 40.0281C122.275 40.2606 122.579 40.398 122.901 40.4117C123.059 40.4095 123.214 40.375 123.358 40.3103C123.502 40.2456 123.631 40.1521 123.738 40.0357C123.844 39.9192 123.925 39.7822 123.977 39.6331C124.028 39.4839 124.048 39.3259 124.036 39.1686" fill="#04070C"/>
<path d="M125.628 40.5348L127.211 38.5705C127.418 38.3217 127.799 37.924 127.799 37.924H125.711V37.1118H128.943V37.7912L127.368 39.7059C127.136 39.9958 126.747 40.4021 126.747 40.4021H129.009V41.2143H125.626L125.628 40.5348Z" fill="#04070C"/>
<path d="M129.58 35.9599C129.58 35.8118 129.638 35.6695 129.742 35.5639C129.846 35.4584 129.987 35.3981 130.135 35.3962C130.284 35.3975 130.427 35.4573 130.532 35.5628C130.638 35.6682 130.697 35.8108 130.699 35.9599C130.697 36.108 130.636 36.2493 130.531 36.3532C130.425 36.4572 130.283 36.5153 130.135 36.5151C129.988 36.515 129.847 36.4565 129.743 36.3524C129.638 36.2483 129.58 36.1071 129.58 35.9599ZM129.679 37.1118H130.599V41.2143H129.679V37.1118Z" fill="#04070C"/>
<path d="M71.2557 43.3396H72.6955V43.6415H71.6056V44.1185H72.5264V44.4173H71.6056V45.2957H71.2554L71.2557 43.3396Z" fill="#6AC61A"/>
<path d="M72.8346 44.7095V43.7998H73.1698V44.6603C73.1698 44.8988 73.2755 45.0015 73.4825 45.0015C73.5332 44.9999 73.5832 44.9879 73.6291 44.9662C73.675 44.9445 73.716 44.9135 73.7494 44.8752C73.7828 44.837 73.808 44.7923 73.8234 44.7438C73.8387 44.6954 73.8439 44.6443 73.8387 44.5938V43.8018H74.1738V45.2963H73.8569V45.0669C73.8051 45.1469 73.7339 45.2126 73.6501 45.2579C73.5662 45.3033 73.4723 45.3268 73.377 45.3264C72.9816 45.3264 72.8337 45.103 72.8337 44.7106" fill="#6AC61A"/>
<path d="M74.5129 43.8007H74.8481V44.015C74.9011 43.9364 74.9734 43.8727 75.0579 43.8299C75.1425 43.7871 75.2367 43.7667 75.3314 43.7705C75.7359 43.7705 75.8687 44.0392 75.8687 44.4377V45.2951H75.5335V44.4798C75.5335 44.2353 75.4792 44.0935 75.2285 44.0935C75.1753 44.094 75.1228 44.1055 75.0743 44.1273C75.0258 44.1491 74.9823 44.1807 74.9466 44.2201C74.9109 44.2595 74.8837 44.3059 74.8667 44.3563C74.8498 44.4067 74.8434 44.4601 74.8481 44.5131V45.2951H74.5129V43.8007Z" fill="#6AC61A"/>
<path d="M76.1339 44.5495C76.1259 44.4524 76.1376 44.3548 76.1684 44.2624C76.1991 44.17 76.2483 44.0849 76.3129 44.012C76.3776 43.9392 76.4563 43.8803 76.5444 43.8388C76.6324 43.7972 76.728 43.774 76.8253 43.7705C76.9194 43.7686 77.0127 43.7873 77.0988 43.8254C77.1849 43.8634 77.2615 43.9199 77.3234 43.9908V43.3086H77.6585V45.2951H77.3384V45.1078C77.2736 45.1788 77.1942 45.235 77.1056 45.2725C77.0171 45.3101 76.9215 45.328 76.8253 45.3253C76.7282 45.3219 76.6329 45.2989 76.545 45.2576C76.457 45.2163 76.3784 45.1577 76.3138 45.0852C76.2491 45.0127 76.1999 44.9278 76.169 44.8357C76.1381 44.7436 76.1262 44.6463 76.1339 44.5495ZM77.3234 44.5495C77.3277 44.4921 77.3202 44.4344 77.3015 44.38C77.2828 44.3256 77.2531 44.2756 77.2144 44.233C77.1757 44.1905 77.1287 44.1562 77.0764 44.1324C77.024 44.1086 76.9673 44.0958 76.9097 44.0946C76.7891 44.0946 76.6734 44.1425 76.5881 44.2278C76.5028 44.3131 76.4549 44.4288 76.4549 44.5495C76.4549 44.6701 76.5028 44.7858 76.5881 44.8711C76.6734 44.9564 76.7891 45.0043 76.9097 45.0043C76.9672 45.0035 77.0239 44.9909 77.0763 44.9674C77.1287 44.9438 77.1758 44.9098 77.2145 44.8673C77.2533 44.8249 77.2829 44.775 77.3017 44.7207C77.3204 44.6663 77.3278 44.6087 77.3234 44.5514" fill="#6AC61A"/>
<path d="M77.945 44.5495C77.937 44.4524 77.9487 44.3548 77.9795 44.2624C78.0102 44.17 78.0594 44.0849 78.124 44.012C78.1887 43.9392 78.2674 43.8803 78.3555 43.8388C78.4435 43.7972 78.5391 43.774 78.6364 43.7705C78.7305 43.7686 78.8238 43.7873 78.9099 43.8254C78.996 43.8634 79.0726 43.9199 79.1345 43.9908V43.8007H79.4696V45.2951H79.1345V45.1078C79.0724 45.1783 78.9957 45.2343 78.9096 45.2719C78.8236 45.3095 78.7303 45.3277 78.6364 45.3253C78.5393 45.3219 78.444 45.2989 78.3561 45.2576C78.2681 45.2163 78.1895 45.1577 78.1249 45.0852C78.0602 45.0127 78.011 44.9278 77.9801 44.8357C77.9492 44.7437 77.9373 44.6463 77.945 44.5495ZM79.1345 44.5495C79.1388 44.4921 79.1313 44.4344 79.1126 44.38C79.0939 44.3256 79.0642 44.2756 79.0255 44.233C78.9868 44.1905 78.9398 44.1562 78.8874 44.1324C78.8351 44.1086 78.7784 44.0958 78.7208 44.0946C78.6002 44.0946 78.4845 44.1425 78.3992 44.2278C78.3139 44.3131 78.266 44.4288 78.266 44.5495C78.266 44.6701 78.3139 44.7858 78.3992 44.8711C78.4845 44.9564 78.6002 45.0043 78.7208 45.0043C78.7783 45.0035 78.835 44.9909 78.8874 44.9674C78.9398 44.9438 78.9869 44.9098 79.0256 44.8674C79.0644 44.8249 79.094 44.775 79.1128 44.7207C79.1315 44.6663 79.1389 44.6087 79.1345 44.5514" fill="#6AC61A"/>
<path d="M79.7562 44.5495C79.7566 44.446 79.7775 44.3437 79.8178 44.2484C79.858 44.1531 79.9168 44.0667 79.9906 43.9942C80.0645 43.9218 80.1519 43.8647 80.248 43.8263C80.3441 43.7879 80.4468 43.769 80.5502 43.7705C80.7457 43.7693 80.9352 43.8378 81.0847 43.9638L80.8763 44.2024C80.787 44.1274 80.6729 44.0887 80.5565 44.0938C80.4358 44.095 80.3206 44.144 80.2362 44.2302C80.1517 44.3164 80.105 44.4325 80.1062 44.5532C80.1074 44.6738 80.1565 44.789 80.2426 44.8735C80.3288 44.9579 80.4449 45.0047 80.5656 45.0035C80.6991 45.0059 80.8289 44.9597 80.9309 44.8735L81.1151 45.1271C80.9562 45.2579 80.7563 45.3283 80.5505 45.3261C80.4473 45.328 80.3446 45.3094 80.2487 45.2713C80.1527 45.2332 80.0652 45.1764 79.9913 45.1042C79.9175 45.032 79.8587 44.9459 79.8184 44.8508C79.778 44.7557 79.757 44.6536 79.7565 44.5503" fill="#6AC61A"/>
<path d="M81.0994 45.5788C81.1844 45.5241 81.2526 45.4469 81.2963 45.3558C81.34 45.2646 81.3576 45.1631 81.347 45.0626V43.8007H81.6813V45.0174C81.6979 45.1843 81.6616 45.3521 81.5777 45.4973C81.4937 45.6424 81.3663 45.7576 81.2134 45.8264L81.0994 45.5788ZM81.3106 43.3811C81.3106 43.3271 81.3318 43.2753 81.3697 43.2368C81.4076 43.1984 81.4591 43.1765 81.5131 43.1758C81.5673 43.1763 81.6192 43.1981 81.6576 43.2365C81.696 43.2749 81.7178 43.3268 81.7183 43.3811C81.7175 43.435 81.6956 43.4864 81.6572 43.5243C81.6188 43.5621 81.567 43.5833 81.5131 43.5832C81.4865 43.5832 81.4602 43.578 81.4356 43.5679C81.4111 43.5577 81.3887 43.5429 81.3699 43.5241C81.3511 43.5053 81.3362 43.483 81.3261 43.4585C81.3159 43.4339 81.3106 43.4076 81.3106 43.3811Z" fill="#6AC61A"/>
<path d="M81.9688 44.5495C81.9607 44.4524 81.9724 44.3548 82.0032 44.2624C82.034 44.17 82.0831 44.0849 82.1478 44.012C82.2124 43.9392 82.2911 43.8803 82.3792 43.8388C82.4673 43.7972 82.5628 43.774 82.6601 43.7705C82.7542 43.7686 82.8476 43.7873 82.9336 43.8254C83.0197 43.8634 83.0964 43.9199 83.1582 43.9908V43.8007H83.4934V45.2951H83.1582V45.1078C83.0962 45.1783 83.0194 45.2343 82.9334 45.2719C82.8473 45.3095 82.754 45.3277 82.6601 45.3253C82.5631 45.3219 82.4677 45.2989 82.3798 45.2576C82.2919 45.2163 82.2132 45.1577 82.1486 45.0852C82.084 45.0127 82.0347 44.9278 82.0038 44.8357C81.9729 44.7437 81.961 44.6463 81.9688 44.5495ZM83.1582 44.5495C83.1625 44.4921 83.1551 44.4344 83.1363 44.38C83.1176 44.3256 83.088 44.2756 83.0493 44.233C83.0106 44.1905 82.9636 44.1562 82.9112 44.1324C82.8588 44.1086 82.8021 44.0958 82.7446 44.0946C82.6239 44.0946 82.5083 44.1425 82.423 44.2278C82.3377 44.3131 82.2897 44.4288 82.2897 44.5495C82.2897 44.6701 82.3377 44.7858 82.423 44.8711C82.5083 44.9564 82.6239 45.0043 82.7446 45.0043C82.802 45.0035 82.8587 44.9909 82.9111 44.9674C82.9636 44.9438 83.0106 44.9098 83.0494 44.8674C83.0881 44.8249 83.1178 44.775 83.1365 44.7207C83.1552 44.6663 83.1626 44.6087 83.1582 44.5514" fill="#6AC61A"/>
<path d="M84.4139 45.1078L84.5407 44.8332C84.6725 44.947 84.8405 45.0101 85.0146 45.0114C85.1505 45.0114 85.3105 44.96 85.3105 44.8545C85.3105 44.749 85.1596 44.7186 85.0114 44.6765C84.7272 44.5981 84.4861 44.5134 84.4861 44.2217C84.4861 43.93 84.7849 43.772 85.0475 43.772C85.237 43.7693 85.4229 43.8228 85.582 43.9257L85.4583 44.1975C85.3351 44.1239 85.1942 44.0853 85.0507 44.0858C84.939 44.0858 84.8272 44.1372 84.8272 44.2157C84.8272 44.3183 84.9509 44.3425 85.0831 44.3698C85.3608 44.4301 85.6516 44.5418 85.6516 44.8497C85.6516 45.1999 85.2923 45.3267 85.0146 45.3267C84.7943 45.331 84.5803 45.2535 84.4139 45.1092" fill="#6AC61A"/>
<path d="M85.92 43.8006H86.2401V43.9877C86.305 43.9167 86.3845 43.8606 86.473 43.8231C86.5616 43.7856 86.6572 43.7677 86.7533 43.7705C86.9439 43.7927 87.1197 43.8842 87.2472 44.0275C87.3748 44.1708 87.4453 44.356 87.4453 44.5479C87.4453 44.7398 87.3748 44.925 87.2472 45.0683C87.1197 45.2116 86.9439 45.303 86.7533 45.3252C86.6592 45.3272 86.5658 45.3085 86.4798 45.2704C86.3937 45.2323 86.3171 45.1758 86.2552 45.1049V45.7269H85.92V43.8006ZM87.1035 44.5463C87.1069 44.4875 87.0981 44.4286 87.0777 44.3734C87.0573 44.3181 87.0257 44.2677 86.9849 44.2252C86.9441 44.1827 86.895 44.149 86.8406 44.1264C86.7862 44.1037 86.7277 44.0925 86.6688 44.0935C86.5544 44.1025 86.4476 44.1544 86.3697 44.2387C86.2918 44.323 86.2486 44.4335 86.2486 44.5483C86.2486 44.6631 86.2918 44.7737 86.3697 44.858C86.4476 44.9423 86.5544 44.9941 86.6688 45.0032C86.7278 45.0038 86.7863 44.9922 86.8406 44.9693C86.895 44.9464 86.944 44.9126 86.9848 44.87C87.0255 44.8273 87.0571 44.7768 87.0775 44.7214C87.0979 44.6661 87.1068 44.6072 87.1035 44.5483" fill="#6AC61A"/>
<path d="M87.6797 44.5494C87.676 44.3916 87.7195 44.2362 87.8045 44.1032C87.8895 43.9702 88.0123 43.8655 88.1571 43.8026C88.3019 43.7396 88.4621 43.7212 88.6174 43.7498C88.7727 43.7783 88.9159 43.8525 89.0289 43.9629C89.1418 44.0732 89.2193 44.2147 89.2514 44.3693C89.2836 44.5238 89.2689 44.6845 89.2093 44.8307C89.1498 44.9769 89.048 45.102 88.9169 45.1901C88.7859 45.2782 88.6316 45.3253 88.4737 45.3252C88.3705 45.3268 88.2681 45.3079 88.1722 45.2697C88.0764 45.2315 87.9891 45.1747 87.9153 45.1026C87.8415 45.0305 87.7827 44.9445 87.7422 44.8495C87.7018 44.7546 87.6806 44.6526 87.6797 44.5494ZM88.9266 44.5494C88.9266 44.4599 88.9 44.3723 88.8503 44.2979C88.8005 44.2234 88.7298 44.1653 88.647 44.1311C88.5643 44.0968 88.4732 44.0878 88.3854 44.1053C88.2975 44.1228 88.2168 44.1659 88.1535 44.2292C88.0902 44.2926 88.047 44.3733 88.0296 44.4611C88.0121 44.5489 88.0211 44.64 88.0553 44.7227C88.0896 44.8055 88.1476 44.8762 88.2221 44.926C88.2966 44.9757 88.3841 45.0023 88.4737 45.0023C88.5335 45.0035 88.593 44.9927 88.6485 44.9704C88.704 44.948 88.7544 44.9147 88.7967 44.8724C88.839 44.8301 88.8723 44.7797 88.8946 44.7242C88.9169 44.6687 88.9278 44.6093 88.9266 44.5494Z" fill="#6AC61A"/>
<path d="M89.5546 44.2265L89.3885 44.299V44.0756L89.5546 44.0031V43.3086H89.8897V43.8609L90.0558 43.7853V44.0087L89.8897 44.0812V45.2948H89.5546V44.2265Z" fill="#6AC61A"/>
<path d="M90.1763 44.5495C90.175 44.4476 90.194 44.3466 90.232 44.2522C90.2701 44.1577 90.3265 44.0718 90.3981 43.9993C90.4696 43.9269 90.5548 43.8694 90.6487 43.8301C90.7427 43.7908 90.8435 43.7706 90.9453 43.7705C91.1422 43.7775 91.3283 43.8622 91.4629 44.006C91.5975 44.1499 91.6697 44.3412 91.6636 44.5381C91.6631 44.5815 91.6601 44.6249 91.6546 44.668H90.5223C90.5426 44.7745 90.601 44.87 90.6865 44.9366C90.772 45.0033 90.8788 45.0367 90.9871 45.0305C91.1397 45.0311 91.2891 44.9858 91.4158 44.9005L91.5488 45.1481C91.3813 45.2628 91.1833 45.3248 90.9802 45.3261C90.8754 45.3319 90.7706 45.316 90.6722 45.2795C90.5738 45.243 90.4839 45.1865 90.4083 45.1137C90.3327 45.0409 90.2729 44.9533 90.2326 44.8564C90.1924 44.7595 90.1725 44.6553 90.1743 44.5503M91.3367 44.4204C91.3236 44.3211 91.2746 44.2301 91.199 44.1645C91.1234 44.0989 91.0263 44.0632 90.9262 44.0642C90.8275 44.0672 90.733 44.1043 90.6586 44.1693C90.5843 44.2343 90.5348 44.323 90.5186 44.4204H91.3367Z" fill="#6AC61A"/>
<path d="M91.8998 44.5495C91.9003 44.446 91.9212 44.3437 91.9615 44.2484C92.0017 44.1531 92.0605 44.0667 92.1343 43.9943C92.2081 43.9219 92.2956 43.8648 92.3917 43.8264C92.4877 43.788 92.5904 43.769 92.6938 43.7705C92.8893 43.7693 93.0788 43.8378 93.2283 43.9638L93.0199 44.2023C92.9306 44.1274 92.8165 44.0887 92.7001 44.0938C92.6404 44.0943 92.5813 44.1067 92.5264 44.1301C92.4714 44.1535 92.4216 44.1875 92.3798 44.2302C92.338 44.2729 92.305 44.3233 92.2827 44.3787C92.2604 44.4342 92.2492 44.4934 92.2498 44.5532C92.2504 44.6129 92.2628 44.6719 92.2862 44.7269C92.3096 44.7818 92.3436 44.8316 92.3862 44.8734C92.4289 44.9153 92.4794 44.9483 92.5348 44.9706C92.5902 44.9929 92.6495 45.0041 92.7092 45.0035C92.8427 45.0059 92.9725 44.9597 93.0745 44.8735L93.2587 45.1271C93.0998 45.2578 92.8999 45.3283 92.6941 45.3261C92.5909 45.328 92.4883 45.3094 92.3923 45.2713C92.2963 45.2332 92.2088 45.1764 92.1349 45.1042C92.0611 45.032 92.0023 44.9459 91.962 44.8508C91.9217 44.7557 91.9006 44.6536 91.9001 44.5503" fill="#6AC61A"/>
<path d="M93.3972 45.0475L93.9737 44.332C94.0493 44.2413 94.188 44.0966 94.188 44.0966H93.4273V43.8018H94.6053V44.0494L94.0317 44.7467C93.9464 44.8525 93.8042 45.0003 93.8042 45.0003H94.6287V45.2963H93.3972V45.0475Z" fill="#6AC61A"/>
<path d="M94.8732 43.8007H95.2083V44.015C95.2613 43.9364 95.3336 43.8727 95.4182 43.8299C95.5028 43.7871 95.5969 43.7667 95.6916 43.7705C96.0961 43.7705 96.2289 44.0392 96.2289 44.4377V45.2951H95.8937V44.4798C95.8937 44.2353 95.8394 44.0935 95.5887 44.0935C95.5355 44.094 95.483 44.1055 95.4345 44.1273C95.386 44.1491 95.3425 44.1807 95.3068 44.2201C95.2711 44.2595 95.2439 44.3059 95.2269 44.3563C95.21 44.4067 95.2037 44.4601 95.2083 44.5131V45.2951H94.8732V43.8007Z" fill="#6AC61A"/>
<path d="M96.4942 44.5495C96.4861 44.4524 96.4978 44.3548 96.5286 44.2624C96.5593 44.17 96.6085 44.0849 96.6732 44.012C96.7378 43.9392 96.8165 43.8803 96.9046 43.8388C96.9927 43.7972 97.0882 43.774 97.1855 43.7705C97.2796 43.7686 97.373 43.7873 97.459 43.8254C97.5451 43.8634 97.6217 43.9199 97.6836 43.9908V43.8007H98.0188V45.2951H97.6836V45.1078C97.6216 45.1783 97.5448 45.2343 97.4588 45.2719C97.3727 45.3095 97.2794 45.3277 97.1855 45.3253C97.0885 45.3219 96.9931 45.2989 96.9052 45.2576C96.8172 45.2163 96.7386 45.1577 96.674 45.0852C96.6094 45.0127 96.5601 44.9278 96.5292 44.8357C96.4983 44.7437 96.4864 44.6463 96.4942 44.5495ZM97.6836 44.5495C97.6879 44.4921 97.6805 44.4344 97.6617 44.38C97.643 44.3256 97.6134 44.2756 97.5747 44.233C97.5359 44.1905 97.489 44.1562 97.4366 44.1324C97.3842 44.1086 97.3275 44.0958 97.27 44.0946C97.1493 44.0946 97.0336 44.1425 96.9483 44.2278C96.863 44.3131 96.8151 44.4288 96.8151 44.5495C96.8151 44.6701 96.863 44.7858 96.9483 44.8711C97.0336 44.9564 97.1493 45.0043 97.27 45.0043C97.3274 45.0035 97.3841 44.9909 97.4365 44.9674C97.4889 44.9438 97.536 44.9098 97.5747 44.8674C97.6135 44.8249 97.6432 44.775 97.6619 44.7207C97.6806 44.6663 97.688 44.6087 97.6836 44.5514" fill="#6AC61A"/>
</g>
</g>
</g>
<defs>
<clipPath id="clip0_149_3197">
<rect width="85" height="30" fill="white" transform="translate(45.7 25.5713)"/>
</clipPath>
<clipPath id="clip1_149_3197">
<rect width="85" height="18.2167" fill="white" transform="translate(45.7 31.5029)"/>
</clipPath>
</defs>
</svg>
