<svg width="176" height="81" viewBox="0 0 176 81" fill="none" xmlns="http://www.w3.org/2000/svg">
<g clip-path="url(#clip0_149_3141)">
<path d="M57.4438 48.5613L53.8921 44.924L50.3405 48.5613H57.4438Z" fill="#C6000B"/>
<path d="M53.8921 37.6638L50.3405 34.0265V41.2868L53.8921 37.6638Z" fill="#C6000B"/>
<path d="M50.3404 41.2868H43.2371L50.3404 48.5613V41.2868Z" fill="#C6000B"/>
<path d="M57.4439 41.2868V34.0265L53.8922 37.6638L57.4439 41.2868Z" fill="#009FE8"/>
<path d="M57.4438 34.0265H50.3405L53.8921 37.6638L57.4438 34.0265Z" fill="#231815"/>
<path d="M64.5615 48.5613H71.6649L64.5615 41.2868V48.5613Z" fill="#0071B2"/>
<path d="M57.4438 41.2868L64.5615 48.5613V41.2868H57.4438Z" fill="#009FE8"/>
<path d="M64.5615 34.0265V41.2868L71.6649 34.0265H64.5615Z" fill="#DBDCDC"/>
<path d="M50.3404 34.0265L43.2371 41.2868H50.3404V34.0265Z" fill="#E50012"/>
<path d="M50.3405 41.2868L53.8921 44.924L57.4438 41.2868H50.3405Z" fill="#DBDCDC"/>
<path d="M50.3405 41.2868V48.5613L53.8921 44.924L50.3405 41.2868Z" fill="#A30000"/>
<path d="M78.9394 36.9221L80.4799 34.0265C80.6083 34.0122 80.7082 33.998 80.8223 33.9837C80.9221 33.9837 81.022 33.9695 81.1075 33.9695C81.1931 33.9695 81.293 33.9694 81.4071 33.9837C81.5212 33.998 81.6353 34.0122 81.7494 34.0122L80.1804 36.8222L81.8778 39.8319C81.7494 39.8461 81.6353 39.8461 81.5212 39.8604C81.4071 39.8747 81.3072 39.8747 81.2217 39.8747C81.1361 39.8747 81.0362 39.8747 80.9364 39.8604C80.8365 39.8604 80.7224 39.8461 80.594 39.8176L78.9394 36.9221ZM77.6129 34.0265C77.7128 34.0122 77.8126 33.998 77.9125 33.998C78.0123 33.998 78.1121 33.9837 78.212 33.9837C78.2976 33.9837 78.3974 33.9837 78.483 33.998C78.5829 33.998 78.6827 34.0122 78.7825 34.0265V39.8747C78.6827 39.8889 78.5829 39.9032 78.483 39.9032C78.3832 39.9032 78.2976 39.9175 78.1977 39.9175C78.0979 39.9175 78.0123 39.9175 77.9125 39.9032C77.8126 39.9032 77.7128 39.8889 77.6129 39.8747V34.0265Z" fill="#231815"/>
<path d="M84.1029 39.0759C84.4025 39.0759 84.6164 38.9618 84.7448 38.7336C84.8732 38.5053 84.9445 38.1915 84.9445 37.7636C84.9445 37.3357 84.8732 37.0219 84.7448 36.7937C84.6164 36.5655 84.4025 36.4513 84.1029 36.4513C83.8176 36.4513 83.6037 36.5655 83.4753 36.7937C83.3469 37.0219 83.2756 37.3357 83.2756 37.7636C83.2756 38.1915 83.3469 38.5053 83.4753 38.7336C83.6037 38.976 83.8176 39.0759 84.1029 39.0759ZM84.1029 39.9602C83.7748 39.9602 83.4753 39.9032 83.2328 39.7891C82.9903 39.675 82.7906 39.5181 82.6195 39.3326C82.4626 39.1329 82.3342 38.9047 82.2486 38.6337C82.163 38.3627 82.1202 38.0774 82.1202 37.7779C82.1202 37.4641 82.163 37.1788 82.2486 36.9078C82.3342 36.6368 82.4483 36.4086 82.6195 36.2089C82.7764 36.0092 82.9903 35.8523 83.2328 35.7382C83.4753 35.624 83.7748 35.567 84.1029 35.567C84.431 35.567 84.7305 35.624 84.973 35.7382C85.2155 35.8523 85.4294 36.0092 85.5863 36.2089C85.7575 36.4086 85.8716 36.6368 85.9572 36.9078C86.0285 37.1788 86.0713 37.4641 86.0713 37.7779C86.0713 38.0917 86.0285 38.377 85.9572 38.6337C85.8716 38.9047 85.7575 39.1329 85.5863 39.3326C85.4152 39.5323 85.2155 39.6892 84.973 39.7891C84.7305 39.9032 84.431 39.9602 84.1029 39.9602Z" fill="#231815"/>
<path d="M86.9271 33.9409C87.1126 33.9124 87.3122 33.8981 87.4834 33.8981C87.6688 33.8981 87.8543 33.9124 88.0397 33.9409V38.1915C88.0397 38.3627 88.054 38.4911 88.0682 38.5909C88.0825 38.6908 88.111 38.7764 88.1538 38.8334C88.1966 38.8905 88.2394 38.9333 88.3107 38.9475C88.3678 38.976 88.4534 38.976 88.5532 38.976C88.596 38.976 88.6388 38.976 88.6958 38.9618C88.7529 38.9618 88.7957 38.9475 88.8385 38.9333C88.8955 39.1615 88.9241 39.3754 88.9241 39.5751C88.9241 39.6179 88.9241 39.6607 88.9241 39.6892C88.9241 39.7178 88.9241 39.7606 88.9098 39.8033C88.8242 39.8319 88.7244 39.8461 88.6103 39.8604C88.4961 39.8747 88.382 39.8747 88.2822 39.8747C87.8685 39.8747 87.5547 39.7606 87.298 39.5323C87.0555 39.3041 86.9271 38.9333 86.9271 38.4055V33.9409Z" fill="#231815"/>
<path d="M92.0479 37.3215C92.0336 37.0647 91.9623 36.8507 91.8339 36.6938C91.7055 36.5369 91.5201 36.4514 91.2919 36.4514C91.0351 36.4514 90.8212 36.5227 90.6928 36.6796C90.5502 36.8365 90.4789 37.0504 90.4503 37.3215H92.0479ZM90.4361 38.1202C90.4503 38.4483 90.5644 38.6765 90.7641 38.8192C90.9638 38.9618 91.2348 39.0331 91.5629 39.0331C91.7483 39.0331 91.9195 39.0188 92.1192 38.9761C92.3046 38.9475 92.4901 38.8905 92.6612 38.8334C92.7183 38.9333 92.7753 39.0759 92.8181 39.2185C92.8609 39.3754 92.8894 39.5323 92.8894 39.7035C92.4758 39.8604 92.0051 39.946 91.4916 39.946C91.1065 39.946 90.7784 39.8889 90.5074 39.7891C90.2364 39.675 90.0081 39.5323 89.837 39.3469C89.6658 39.1615 89.5374 38.9333 89.4519 38.6623C89.3663 38.3912 89.3235 38.106 89.3235 37.7922C89.3235 37.4784 89.3663 37.1931 89.4519 36.9221C89.5374 36.6511 89.6658 36.4228 89.8227 36.2231C89.9939 36.0234 90.1936 35.8665 90.4361 35.7524C90.6786 35.6383 90.9638 35.5813 91.2919 35.5813C91.5772 35.5813 91.8339 35.6383 92.0479 35.7382C92.2761 35.838 92.4615 35.9807 92.6184 36.1661C92.7753 36.3373 92.8894 36.5512 92.975 36.808C93.0463 37.0504 93.0891 37.3215 93.0891 37.5925C93.0891 37.6923 93.0891 37.7922 93.0749 37.892C93.0606 37.9919 93.0606 38.0774 93.0463 38.1345H90.4361V38.1202Z" fill="#231815"/>
<path d="M94.0448 34.9394C94.0163 34.8253 94.0163 34.7254 94.002 34.6541C94.002 34.5828 93.9878 34.4972 93.9878 34.4259C93.9878 34.3403 93.9878 34.2547 94.002 34.1834C94.002 34.1121 94.0163 34.0122 94.0448 33.9124C94.1447 33.8839 94.2445 33.8696 94.3444 33.8553C94.4442 33.8411 94.544 33.8411 94.6154 33.8411C94.6867 33.8411 94.7865 33.8411 94.8864 33.8553C94.9862 33.8696 95.0861 33.8839 95.1859 33.9124C95.2002 34.0265 95.2144 34.1121 95.2287 34.1834C95.2287 34.2547 95.243 34.3403 95.243 34.4259C95.243 34.5115 95.243 34.5828 95.2287 34.6541C95.2287 34.7254 95.2144 34.8253 95.1859 34.9394C95.0861 34.9679 94.9862 34.9822 94.8864 34.9964C94.7865 35.0107 94.6867 35.0107 94.6154 35.0107C94.544 35.0107 94.4442 35.0107 94.3444 34.9964C94.2445 34.9822 94.1447 34.9679 94.0448 34.9394ZM94.216 36.5512H93.674C93.6597 36.4799 93.6454 36.4086 93.6312 36.323C93.6169 36.2517 93.6169 36.1661 93.6169 36.0947C93.6169 35.9521 93.6312 35.8095 93.6597 35.6668H95.2858V39.946C95.2858 40.4595 95.1574 40.8446 94.9006 41.0728C94.6439 41.301 94.273 41.4151 93.8023 41.4151C93.674 41.4151 93.5313 41.4009 93.4029 41.3866C93.2603 41.3724 93.1462 41.3438 93.0178 41.3296C93.0178 41.1727 93.0321 41.03 93.0463 40.8874C93.0749 40.7447 93.1034 40.6164 93.1605 40.488C93.2175 40.5023 93.2746 40.5165 93.3459 40.5165C93.4172 40.5308 93.4885 40.5308 93.5741 40.5308C93.6597 40.5308 93.7453 40.5165 93.8166 40.5023C93.8879 40.488 93.9592 40.4452 94.0163 40.3882C94.0733 40.3311 94.1161 40.2455 94.1447 40.1457C94.1732 40.0458 94.1875 39.9032 94.1875 39.7463V36.5512H94.216Z" fill="#231815"/>
<path d="M98.9373 37.3214C98.923 37.0647 98.8517 36.8507 98.7233 36.6938C98.5949 36.5369 98.4095 36.4514 98.1813 36.4514C97.9103 36.4514 97.7106 36.5227 97.5822 36.6796C97.4396 36.8365 97.3682 37.0504 97.3397 37.3214H98.9373ZM97.3254 38.1202C97.3397 38.4483 97.4538 38.6765 97.6535 38.8191C97.8532 38.9618 98.1242 39.0331 98.4523 39.0331C98.6377 39.0331 98.8089 39.0188 99.0086 38.976C99.194 38.9475 99.3794 38.8905 99.5363 38.8191C99.5934 38.9333 99.6504 39.0616 99.6932 39.2043C99.736 39.3612 99.7646 39.5181 99.7646 39.6892C99.3509 39.8461 98.8802 39.9317 98.3667 39.9317C97.9816 39.9317 97.6535 39.8747 97.3825 39.7748C97.1115 39.6607 96.8833 39.5181 96.7121 39.3184C96.5409 39.133 96.4126 38.9047 96.327 38.6337C96.2414 38.3627 96.1986 38.0774 96.1986 37.7636C96.1986 37.4498 96.2414 37.1645 96.327 36.8935C96.4126 36.6225 96.5409 36.3943 96.6978 36.1946C96.869 35.9949 97.0687 35.838 97.3112 35.7239C97.5537 35.6098 97.8389 35.5527 98.167 35.5527C98.4523 35.5527 98.709 35.6098 98.923 35.7096C99.1512 35.8095 99.3366 35.9521 99.4935 36.1376C99.6504 36.3087 99.7646 36.5227 99.8501 36.7794C99.9357 37.0219 99.9643 37.2929 99.9643 37.5639C99.9643 37.6638 99.9643 37.7636 99.95 37.8635C99.9357 37.9633 99.9357 38.0489 99.9215 38.106H97.3254V38.1202Z" fill="#231815"/>
<path d="M77.1849 42.7274C77.3704 42.6989 77.5843 42.6846 77.8411 42.6846C77.9409 42.6846 78.0265 42.6846 78.1263 42.6989C78.2262 42.6989 78.326 42.7132 78.4116 42.7417L79.2247 47.1349L80.2089 42.7417C80.3087 42.7274 80.4086 42.7132 80.5084 42.6989C80.594 42.6846 80.6938 42.6846 80.7794 42.6846C80.9363 42.6846 81.1075 42.6989 81.2929 42.7274L82.3199 47.2348L83.1329 42.7274C83.2898 42.6989 83.461 42.6846 83.6464 42.6846C83.7463 42.6846 83.8604 42.6846 83.9602 42.6989C84.0601 42.7132 84.1599 42.7274 84.2598 42.7274L82.8905 48.5613C82.705 48.5898 82.5053 48.6041 82.2914 48.6041C82.0917 48.6041 81.8777 48.5898 81.6352 48.5613L80.7224 44.6816L79.7382 48.5613C79.5099 48.5898 79.3245 48.6041 79.1391 48.6041C78.9679 48.6041 78.7397 48.5898 78.54 48.5613L77.1849 42.7274Z" fill="#231815"/>
<path d="M84.973 43.6688C84.9444 43.4834 84.9302 43.298 84.9302 43.1268C84.9302 42.9557 84.9444 42.7702 84.973 42.5848C85.0586 42.5705 85.1584 42.5563 85.2583 42.542C85.3581 42.5277 85.4579 42.5277 85.5435 42.5277C85.6291 42.5277 85.729 42.5277 85.8431 42.542C85.9429 42.5563 86.0428 42.5563 86.1426 42.5848C86.1569 42.6704 86.1711 42.7702 86.1711 42.8558C86.1711 42.9414 86.1854 43.0412 86.1854 43.1268C86.1854 43.2124 86.1854 43.298 86.1711 43.3978C86.1711 43.4977 86.1569 43.5833 86.1426 43.6688C86.057 43.6831 85.9572 43.6974 85.8573 43.6974C85.7575 43.6974 85.6576 43.7116 85.5721 43.7116C85.4865 43.7116 85.3866 43.7116 85.2868 43.6974C85.1584 43.6974 85.0586 43.6831 84.973 43.6688ZM85.1441 45.2521H84.6164C84.6021 45.1808 84.5879 45.1095 84.5736 45.0239C84.5593 44.9526 84.5593 44.867 84.5593 44.7957C84.5593 44.653 84.5736 44.5104 84.6021 44.3678H86.2282V48.5613C86.0428 48.5899 85.8573 48.6041 85.6719 48.6041C85.5007 48.6041 85.3153 48.5899 85.1299 48.5613V45.2521H85.1441Z" fill="#231815"/>
<path d="M89.8655 46.0224C89.8512 45.7656 89.7799 45.5517 89.6515 45.3948C89.5232 45.2379 89.3377 45.1523 89.1095 45.1523C88.8528 45.1523 88.6388 45.2236 88.5104 45.3805C88.3678 45.5374 88.2965 45.7514 88.268 46.0224H89.8655ZM88.2537 46.8211C88.2822 47.1492 88.3821 47.3774 88.5818 47.5343C88.7815 47.677 89.0525 47.7483 89.3805 47.7483C89.566 47.7483 89.7514 47.734 89.9368 47.6912C90.1222 47.6627 90.3077 47.6056 90.4788 47.5486C90.5359 47.6627 90.593 47.7911 90.6357 47.9337C90.6785 48.0906 90.7071 48.2475 90.7071 48.4187C90.2934 48.5756 89.8227 48.6612 89.3092 48.6612C88.9241 48.6612 88.596 48.6041 88.325 48.5043C88.054 48.3902 87.8258 48.2475 87.6546 48.0621C87.4834 47.8767 87.3551 47.6342 87.2695 47.3774C87.1839 47.1064 87.1411 46.8211 87.1411 46.5073C87.1411 46.1935 87.1839 45.9083 87.2695 45.6372C87.3551 45.3662 87.4834 45.138 87.6403 44.9383C87.8115 44.7386 88.0112 44.5817 88.2537 44.4676C88.4962 44.3535 88.7814 44.2964 89.1095 44.2964C89.3948 44.2964 89.6515 44.3535 89.8655 44.4534C90.0937 44.5532 90.2792 44.6958 90.4361 44.8813C90.593 45.0667 90.7071 45.2664 90.7926 45.5231C90.8782 45.7656 90.9068 46.0366 90.9068 46.3076C90.9068 46.4075 90.9068 46.5073 90.8925 46.6072C90.8782 46.707 90.8782 46.7926 90.864 46.8497H88.2537V46.8211Z" fill="#231815"/>
<path d="M91.7769 42.6418C91.9623 42.6133 92.162 42.5991 92.3331 42.5991C92.5186 42.5991 92.704 42.6133 92.8894 42.6418V46.8925C92.8894 47.0636 92.9037 47.192 92.918 47.2919C92.9322 47.3917 92.9608 47.4773 93.0035 47.5343C93.0463 47.5914 93.1034 47.6342 93.1604 47.6484C93.2175 47.677 93.3031 47.677 93.4029 47.677C93.4457 47.677 93.4885 47.677 93.5456 47.6627C93.5884 47.6627 93.6454 47.6484 93.6882 47.6342C93.7453 47.8624 93.7738 48.0764 93.7738 48.2903C93.7738 48.3331 93.7738 48.3759 93.7738 48.4044C93.7738 48.433 93.7738 48.4757 93.7595 48.5185C93.6739 48.5471 93.5741 48.5613 93.46 48.5756C93.3459 48.5899 93.2318 48.5899 93.1319 48.5899C92.7183 48.5899 92.4045 48.4757 92.1477 48.2475C91.9052 48.0193 91.7769 47.6484 91.7769 47.1207V42.6418Z" fill="#231815"/>
<path d="M95.5853 46.3647L96.598 44.3678C96.7977 44.3392 97.0117 44.325 97.2256 44.325C97.4253 44.325 97.625 44.3392 97.8104 44.3678L96.7692 46.3076L97.9959 48.5613C97.7819 48.5899 97.5679 48.6041 97.3683 48.6041C97.1828 48.6041 96.9831 48.5899 96.7834 48.5613L95.5853 46.3647ZM94.3158 42.6418C94.5012 42.6133 94.6867 42.5991 94.8721 42.5991C95.0575 42.5991 95.2572 42.6133 95.4426 42.6418V48.5613C95.2572 48.5899 95.0718 48.6041 94.8721 48.6041C94.6867 48.6041 94.5012 48.5899 94.3158 48.5613V42.6418Z" fill="#231815"/>
<path d="M100.207 47.7911C100.506 47.7911 100.72 47.677 100.849 47.4487C100.977 47.2205 101.048 46.9067 101.048 46.4788C101.048 46.0509 100.977 45.7371 100.849 45.5089C100.72 45.2806 100.506 45.1665 100.207 45.1665C99.9215 45.1665 99.7076 45.2806 99.5792 45.5089C99.4508 45.7371 99.3795 46.0509 99.3795 46.4788C99.3795 46.9067 99.4508 47.2205 99.5792 47.4487C99.7076 47.677 99.9072 47.7911 100.207 47.7911ZM100.207 48.6612C99.8787 48.6612 99.5792 48.6041 99.3367 48.49C99.0942 48.3759 98.8803 48.219 98.7234 48.0336C98.5665 47.8339 98.4381 47.6056 98.3525 47.3346C98.2669 47.0636 98.2241 46.7783 98.2241 46.4788C98.2241 46.1793 98.2669 45.8797 98.3525 45.6087C98.4381 45.3377 98.5522 45.1095 98.7234 44.9098C98.8803 44.7101 99.0942 44.5532 99.3367 44.4391C99.5792 44.325 99.8787 44.2679 100.207 44.2679C100.535 44.2679 100.834 44.325 101.077 44.4391C101.319 44.5532 101.533 44.7101 101.69 44.9098C101.847 45.1095 101.976 45.3377 102.061 45.6087C102.147 45.8797 102.175 46.165 102.175 46.4788C102.175 46.7926 102.132 47.0779 102.061 47.3346C101.976 47.6056 101.861 47.8339 101.69 48.0336C101.533 48.2333 101.319 48.3902 101.077 48.49C100.82 48.6041 100.535 48.6612 100.207 48.6612Z" fill="#231815"/>
<path d="M104.172 47.677C104.315 47.7198 104.472 47.7483 104.657 47.7483C104.985 47.7483 105.242 47.6342 105.413 47.4202C105.584 47.2063 105.67 46.8782 105.67 46.436C105.67 46.2648 105.656 46.1079 105.627 45.9653C105.598 45.8227 105.556 45.6943 105.499 45.5945C105.442 45.4946 105.356 45.409 105.256 45.352C105.156 45.2949 105.042 45.2664 104.9 45.2664C104.771 45.2664 104.657 45.2949 104.557 45.3377C104.457 45.3948 104.386 45.4661 104.329 45.5517C104.272 45.6372 104.229 45.7514 104.201 45.8655C104.172 45.9796 104.158 46.1079 104.158 46.2506V47.677H104.172ZM103.045 44.3678C103.117 44.3535 103.188 44.3392 103.259 44.3392C103.331 44.3392 103.416 44.325 103.502 44.325C103.644 44.325 103.801 44.3392 103.958 44.3678C103.972 44.3963 103.987 44.4391 104.001 44.4819C104.015 44.5389 104.029 44.5817 104.044 44.653C104.058 44.7101 104.072 44.7671 104.072 44.8242C104.087 44.8813 104.087 44.924 104.087 44.9668C104.129 44.8813 104.186 44.7957 104.258 44.7101C104.329 44.6245 104.415 44.5532 104.514 44.4819C104.614 44.4106 104.714 44.3678 104.843 44.325C104.971 44.2822 105.099 44.2679 105.242 44.2679C105.47 44.2679 105.684 44.3107 105.884 44.3963C106.083 44.4819 106.255 44.6102 106.397 44.7957C106.54 44.9668 106.654 45.1951 106.74 45.4518C106.825 45.7228 106.868 46.0366 106.868 46.3932C106.868 46.7498 106.811 47.0636 106.711 47.3346C106.611 47.6199 106.469 47.8481 106.269 48.0478C106.083 48.2475 105.841 48.3902 105.57 48.49C105.299 48.5898 104.985 48.6469 104.629 48.6469C104.543 48.6469 104.457 48.6469 104.358 48.6326C104.272 48.6184 104.201 48.6184 104.144 48.6041V50.4869C104.044 50.5012 103.944 50.5155 103.858 50.5155C103.758 50.5155 103.673 50.5297 103.587 50.5297C103.502 50.5297 103.402 50.5297 103.316 50.5155C103.216 50.5155 103.131 50.5012 103.031 50.4869V44.3678H103.045Z" fill="#231815"/>
<path d="M109.492 47.7911C109.792 47.7911 110.006 47.677 110.134 47.4487C110.263 47.2205 110.334 46.9067 110.334 46.4788C110.334 46.0509 110.277 45.7371 110.134 45.5089C110.006 45.2806 109.792 45.1665 109.492 45.1665C109.207 45.1665 108.993 45.2806 108.865 45.5089C108.736 45.7371 108.665 46.0509 108.665 46.4788C108.665 46.9067 108.736 47.2205 108.865 47.4487C108.993 47.677 109.193 47.7911 109.492 47.7911ZM109.492 48.6612C109.164 48.6612 108.865 48.6041 108.622 48.49C108.38 48.3759 108.18 48.219 108.009 48.0336C107.852 47.8339 107.724 47.6056 107.638 47.3346C107.553 47.0636 107.51 46.7783 107.51 46.4788C107.51 46.1793 107.553 45.8797 107.638 45.6087C107.724 45.3377 107.838 45.1095 108.009 44.9098C108.166 44.7101 108.38 44.5532 108.622 44.4391C108.865 44.325 109.164 44.2679 109.492 44.2679C109.821 44.2679 110.12 44.325 110.363 44.4391C110.605 44.5532 110.819 44.7101 110.976 44.9098C111.133 45.1095 111.261 45.3377 111.347 45.6087C111.432 45.8797 111.461 46.165 111.461 46.4788C111.461 46.7926 111.418 47.0779 111.347 47.3346C111.261 47.6056 111.147 47.8339 110.976 48.0336C110.805 48.2333 110.605 48.3902 110.363 48.49C110.106 48.6041 109.821 48.6612 109.492 48.6612Z" fill="#231815"/>
<path d="M112.317 42.6418C112.502 42.6133 112.702 42.5991 112.873 42.5991C113.058 42.5991 113.244 42.6133 113.429 42.6418V46.8925C113.429 47.0636 113.444 47.192 113.458 47.2919C113.472 47.3917 113.501 47.4773 113.543 47.5343C113.586 47.5914 113.629 47.6342 113.7 47.6484C113.757 47.6627 113.843 47.677 113.943 47.677C113.986 47.677 114.028 47.677 114.085 47.6627C114.143 47.6627 114.185 47.6484 114.228 47.6342C114.285 47.8624 114.314 48.0764 114.314 48.2903C114.314 48.3331 114.314 48.3759 114.314 48.4044C114.314 48.433 114.314 48.4757 114.299 48.5185C114.214 48.5471 114.114 48.5613 114 48.5756C113.886 48.5899 113.772 48.5899 113.672 48.5899C113.258 48.5899 112.944 48.4757 112.688 48.2475C112.445 48.0193 112.317 47.6484 112.317 47.1207V42.6418Z" fill="#231815"/>
<path d="M115.712 46.7356C115.412 46.65 115.184 46.5216 115.013 46.3504C114.841 46.1793 114.77 45.9225 114.77 45.5802C114.77 45.1665 114.913 44.8527 115.198 44.6102C115.483 44.382 115.883 44.2679 116.382 44.2679C116.582 44.2679 116.796 44.2822 116.995 44.325C117.195 44.3678 117.395 44.4248 117.609 44.4961C117.594 44.6388 117.566 44.7814 117.523 44.9383C117.48 45.0952 117.437 45.2236 117.366 45.3377C117.238 45.2806 117.095 45.2379 116.953 45.1951C116.796 45.1523 116.639 45.138 116.468 45.138C116.282 45.138 116.139 45.1665 116.054 45.2236C115.954 45.2806 115.897 45.3662 115.897 45.4946C115.897 45.6087 115.94 45.6943 116.011 45.7513C116.082 45.7941 116.182 45.8512 116.311 45.894L116.767 46.0366C116.91 46.0794 117.052 46.1365 117.166 46.1935C117.281 46.2506 117.38 46.3362 117.466 46.4217C117.552 46.5073 117.623 46.6214 117.666 46.7641C117.709 46.8925 117.737 47.0636 117.737 47.2633C117.737 47.463 117.694 47.6484 117.609 47.8196C117.523 47.9908 117.409 48.1477 117.252 48.276C117.095 48.4044 116.91 48.5043 116.682 48.5756C116.453 48.6469 116.211 48.6897 115.926 48.6897C115.797 48.6897 115.683 48.6897 115.583 48.6754C115.483 48.6612 115.369 48.6469 115.284 48.6326C115.184 48.6184 115.084 48.5898 114.998 48.5613C114.899 48.5328 114.799 48.5043 114.685 48.4615C114.699 48.3188 114.713 48.1619 114.756 48.0193C114.799 47.8767 114.841 47.7198 114.913 47.5914C115.084 47.6627 115.255 47.7198 115.412 47.7483C115.569 47.7911 115.726 47.8053 115.897 47.8053C115.968 47.8053 116.054 47.7911 116.139 47.7911C116.225 47.7768 116.311 47.7483 116.382 47.7198C116.453 47.6912 116.51 47.6342 116.567 47.5771C116.624 47.5201 116.639 47.4487 116.639 47.3489C116.639 47.2205 116.596 47.1207 116.525 47.0636C116.453 47.0066 116.339 46.9495 116.197 46.921L115.712 46.7356Z" fill="#231815"/>
<path d="M119.777 46.3647L120.789 44.3678C120.989 44.3392 121.203 44.325 121.417 44.325C121.617 44.325 121.816 44.3392 122.002 44.3678L120.961 46.3076L122.187 48.5613C121.973 48.5899 121.759 48.6041 121.56 48.6041C121.374 48.6041 121.175 48.5899 120.975 48.5613L119.777 46.3647ZM118.493 42.6418C118.678 42.6133 118.864 42.5991 119.049 42.5991C119.235 42.5991 119.42 42.6133 119.62 42.6418V48.5613C119.434 48.5899 119.249 48.6041 119.049 48.6041C118.864 48.6041 118.678 48.5899 118.493 48.5613V42.6418Z" fill="#231815"/>
<path d="M122.872 43.6688C122.843 43.4834 122.829 43.298 122.829 43.1268C122.829 42.9557 122.843 42.7702 122.872 42.5848C122.957 42.5705 123.057 42.5563 123.157 42.542C123.257 42.5277 123.357 42.5277 123.442 42.5277C123.528 42.5277 123.628 42.5277 123.742 42.542C123.842 42.5563 123.942 42.5563 124.042 42.5848C124.056 42.6704 124.07 42.7702 124.07 42.8558C124.07 42.9414 124.084 43.0412 124.084 43.1268C124.084 43.2124 124.084 43.298 124.07 43.3978C124.07 43.4977 124.056 43.5833 124.042 43.6688C123.956 43.6831 123.856 43.6974 123.756 43.6974C123.656 43.6974 123.557 43.7116 123.471 43.7116C123.385 43.7116 123.286 43.7116 123.186 43.6974C123.057 43.6974 122.957 43.6831 122.872 43.6688ZM123.029 45.2521H122.501C122.487 45.1808 122.472 45.1095 122.458 45.0239C122.444 44.9526 122.444 44.867 122.444 44.7957C122.444 44.653 122.458 44.5104 122.487 44.3678H124.113V48.5613C123.927 48.5899 123.742 48.6041 123.557 48.6041C123.385 48.6041 123.2 48.5899 123.015 48.5613V45.2521H123.029Z" fill="#231815"/>
<path d="M127.75 46.0224C127.736 45.7656 127.665 45.5516 127.536 45.3947C127.408 45.2378 127.222 45.1523 126.994 45.1523C126.723 45.1523 126.523 45.2236 126.395 45.3805C126.252 45.5374 126.181 45.7513 126.153 46.0224H127.75ZM126.138 46.8211C126.153 47.1492 126.267 47.3774 126.466 47.5343C126.666 47.6769 126.937 47.7483 127.265 47.7483C127.451 47.7483 127.622 47.734 127.821 47.6912C128.007 47.6484 128.192 47.6056 128.363 47.5486C128.421 47.6627 128.478 47.7911 128.52 47.9337C128.563 48.0906 128.592 48.2475 128.592 48.4187C128.178 48.5756 127.722 48.6612 127.194 48.6612C126.809 48.6612 126.481 48.6041 126.21 48.5043C125.939 48.3901 125.71 48.2475 125.539 48.0478C125.368 47.8624 125.24 47.6342 125.154 47.3631C125.069 47.0921 125.026 46.8069 125.026 46.4931C125.026 46.1793 125.069 45.894 125.154 45.623C125.24 45.3519 125.368 45.1237 125.525 44.924C125.696 44.7243 125.896 44.5674 126.138 44.4533C126.381 44.3392 126.666 44.2822 126.994 44.2822C127.279 44.2822 127.536 44.3392 127.75 44.4391C127.978 44.5389 128.164 44.6816 128.321 44.867C128.478 45.0381 128.592 45.2521 128.677 45.5089C128.763 45.7513 128.791 46.0224 128.791 46.2934C128.791 46.3932 128.791 46.4931 128.777 46.5929C128.763 46.6928 128.763 46.7783 128.749 46.8354H126.138V46.8211Z" fill="#231815"/>
</g>
<defs>
<clipPath id="clip0_149_3141">
<rect width="151" height="30" fill="white" transform="translate(12.5 25.5713)"/>
</clipPath>
</defs>
</svg>
