<svg width="177" height="81" viewBox="0 0 177 81" fill="none" xmlns="http://www.w3.org/2000/svg">
<g clip-path="url(#clip0_149_3201)">
<path d="M65.1877 45.9496V44.7278H69.5261C71.0616 44.7278 71.8281 45.4794 71.8281 47.0292V50.4275C71.8281 51.9792 71.0617 52.7448 69.5261 52.7448H66.8017C65.2666 52.7448 64.4999 52.01 64.4999 50.569V50.2708C64.4999 48.8304 65.2666 48.1253 66.8017 48.1253H71.13V49.3476H66.8017C66.065 49.3476 65.7212 49.6449 65.7212 50.2708V50.569C65.7212 51.195 66.065 51.5242 66.8017 51.5242H70.6105L70.6074 50.4275V47.0292C70.6074 46.294 70.2468 45.9496 69.5261 45.9496L65.1877 45.9496Z" fill="#898989"/>
<path d="M78.7812 45.9496H73.1909V44.7277H80.5354V45.7926L74.9302 51.5242H80.5354V52.7448H73.1909V51.6974L78.7812 45.9496Z" fill="#898989"/>
<path d="M81.7872 44.7278H83.0097V50.4275C83.0097 51.1479 83.3539 51.5242 84.0898 51.5242H87.9106V44.7278H89.1322V53.1541C89.1322 54.6879 88.3654 55.4553 86.8144 55.4553H81.7872V54.2495H86.8144C87.5346 54.2495 87.9106 53.8885 87.9106 53.154V52.7447H84.0898C82.5553 52.7447 81.7872 51.9792 81.7872 50.4275V44.7278Z" fill="#898989"/>
<path d="M99.8578 52.7448H101.095V44.7277H99.8578V52.7448Z" fill="#898989"/>
<path d="M117.1 51.5241V52.7447H113.858C112.322 52.7447 111.555 51.9792 111.555 50.4275V47.0292C111.555 45.4793 112.322 44.7277 113.858 44.7277H117.1V45.9495H113.858C113.122 45.9495 112.777 46.294 112.777 47.0292V50.4275C112.777 51.1479 113.122 51.5241 113.858 51.5241L117.1 51.5241Z" fill="#898989"/>
<path d="M101.135 42.7064C101.135 43.0706 100.84 43.3646 100.477 43.3646C100.113 43.3646 99.8192 43.0706 99.8192 42.7064C99.8192 42.3434 100.113 42.0489 100.477 42.0489C100.84 42.0489 101.135 42.3434 101.135 42.7064Z" fill="#898989"/>
<path d="M94.4955 44.7277H90.8231V52.7447H92.0447V45.9495H94.4955L94.4963 45.9497C94.5005 45.9497 94.5044 45.9495 94.5074 45.9495C95.8969 45.9495 96.9398 47.036 96.9436 48.3794C96.9448 48.38 96.9456 48.3816 96.9456 48.382V52.7447H98.1681V48.7362C98.1681 45.4687 95.8952 44.7277 94.4955 44.7277Z" fill="#898989"/>
<path d="M60.1 54.2496C60.9931 54.2496 61.4632 53.8886 61.4632 53.1541V44.7278H62.6841V53.1541C62.6841 54.6879 61.8232 55.4554 60.1 55.4554L60.1 54.2496Z" fill="#898989"/>
<path d="M62.7674 42.7064C62.7674 43.0706 62.4737 43.3646 62.1095 43.3646C61.7455 43.3646 61.451 43.0706 61.451 42.7064C61.451 42.3434 61.7455 42.0489 62.1095 42.0489C62.4737 42.0489 62.7674 42.3434 62.7674 42.7064Z" fill="#898989"/>
<path d="M81.1182 33.0133C81.1371 33.1896 81.1489 33.3682 81.1489 33.5492C81.1489 36.2616 78.9507 38.4602 76.2385 38.4602C73.5264 38.4602 71.3266 36.2616 71.3266 33.5492C71.3266 30.8372 73.5263 28.6389 76.2385 28.6389C77.9357 28.6389 79.4328 29.5009 80.3143 30.8114H83.8443C82.7312 27.7216 79.7913 25.5052 76.3286 25.4673H76.169C71.7366 25.5047 68.1553 29.1084 68.1553 33.5492C68.1553 38.0137 71.7741 41.6317 76.2385 41.6317C80.7019 41.6317 84.3205 38.0137 84.3205 33.5492C84.3205 32.687 84.1839 31.8568 83.9338 31.0775L81.1182 33.0133Z" fill="#898989"/>
<path d="M109.429 51.5233V52.7447H105.09C103.555 52.7447 102.788 51.9934 102.788 50.4436V47.0453C102.788 45.4935 103.555 44.7277 105.09 44.7277H107.815C109.35 44.7277 110.116 45.4625 110.116 46.9038V47.2021C110.116 48.6421 109.35 49.3475 107.815 49.3475H103.487V48.1253H107.815C108.551 48.1253 108.895 47.8278 108.895 47.2021V46.9037C108.895 46.2777 108.551 45.9486 107.815 45.9486H104.006L104.009 47.0453V50.4436C104.009 51.1787 104.37 51.5233 105.09 51.5233L109.429 51.5233Z" fill="#898989"/>
</g>
<defs>
<clipPath id="clip0_149_3201">
<rect width="93" height="30" fill="white" transform="translate(42.1 25.5713)"/>
</clipPath>
</defs>
</svg>
