<svg width="112" height="25" viewBox="0 0 112 25" fill="none" xmlns="http://www.w3.org/2000/svg">
<g clip-path="url(#clip0_346_86)">
<mask id="mask0_346_86" style="mask-type:luminance" maskUnits="userSpaceOnUse" x="0" y="0" width="112" height="25">
<path d="M111.45 0.782425H0.949951V24.4642H111.45V0.782425Z" fill="white"/>
</mask>
<g mask="url(#mask0_346_86)">
<path d="M9.94137 23.4401C10.2144 21.6029 10.2949 19.7421 10.1816 17.8882C10.0967 16.4706 9.82964 15.0699 9.38702 13.7206C9.05461 12.6989 8.56254 11.7364 7.92909 10.8686C7.46289 10.2217 6.86959 9.67667 6.18548 9.26693C5.68411 8.95753 5.10096 8.80681 4.51246 8.83454C4.17696 8.88045 3.85417 8.99357 3.56341 9.16715C2.99909 9.45985 2.42294 9.74404 1.87746 10.0711C1.81897 10.1052 1.76223 10.1422 1.70746 10.182C1.61259 10.2533 1.52584 10.3349 1.44876 10.4252C1.09324 10.8892 0.916194 11.4654 0.949849 12.049C0.961443 12.7042 1.10157 13.3507 1.36228 13.9519C1.78812 14.8692 2.41111 15.6812 3.18683 16.3301C4.69972 17.6195 6.36034 18.7247 8.13383 19.6225C9.89222 20.5745 11.6924 21.4578 13.3787 22.5362C13.7842 22.7956 14.1815 23.0675 14.5705 23.3518C14.6692 23.3111 14.7646 23.2631 14.8562 23.2084C15.0844 23.0902 15.3118 22.9704 15.5384 22.8492C15.7654 22.7283 15.9923 22.6075 16.2177 22.4844C16.2635 22.4593 16.4864 22.3713 16.496 22.3277C16.8175 20.8646 17.0899 19.3904 17.2909 17.9059C17.4609 16.6512 17.581 15.3892 17.6294 14.1241C17.6746 13.056 17.6582 11.9862 17.5803 10.92C17.5159 10.0336 17.39 9.15279 17.2033 8.28389C17.0511 7.57102 16.8386 6.87237 16.568 6.19548C16.3461 5.63822 16.0661 5.10594 15.7325 4.60746C15.4596 4.19842 15.1345 3.82681 14.7653 3.50209C14.4591 3.23228 14.1119 3.01286 13.7368 2.85202C13.4082 2.71269 13.0566 2.6355 12.6998 2.62437C12.3668 2.61612 12.0355 2.67377 11.7249 2.794C11.6229 2.83354 11.5242 2.88011 11.4263 2.92889C10.7688 3.25854 10.1092 3.59817 9.47387 3.96959C9.31905 4.05921 9.17271 4.16274 9.03668 4.27891C8.76286 4.51842 8.53255 4.80349 8.35594 5.12152C8.15532 5.48371 8.00996 5.87384 7.92465 6.279C7.82513 6.75109 7.78576 7.23389 7.8075 7.71587C7.83316 8.29024 7.92051 8.86018 8.06805 9.41587C8.24286 10.0763 8.47726 10.7195 8.76837 11.3376C9.1164 12.0782 9.52117 12.7907 9.97907 13.4689C10.5226 14.2752 11.1185 15.045 11.763 15.7731C12.5202 16.6305 13.3248 17.4448 14.1729 18.2123C15.1707 19.1188 16.2159 19.9699 17.295 20.7763C17.8806 21.2141 18.4754 21.6392 19.0792 22.0517C19.178 22.0113 19.2735 21.9633 19.3649 21.9083C19.5931 21.79 19.8205 21.6703 20.0471 21.5491C20.274 21.4282 20.501 21.3074 20.7264 21.1843C20.7962 21.1473 20.9622 21.0919 21.005 21.0276C21.8443 19.7604 22.6437 18.4662 23.3843 17.1387C24.0148 16.0085 24.6039 14.8544 25.1301 13.6722C25.5787 12.6738 25.9735 11.652 26.3127 10.6114C26.5943 9.75048 26.8201 8.8723 26.9887 7.98233C27.1282 7.2508 27.2093 6.50933 27.2311 5.76493C27.25 5.16089 27.2084 4.55647 27.1069 3.96072C27.0254 3.4762 26.8818 3.00419 26.6797 2.55637C26.5152 2.19252 26.2924 1.85798 26.02 1.56593C25.7861 1.31645 25.5051 1.11563 25.1933 0.974999C24.9016 0.846417 24.586 0.780808 24.2672 0.782455C23.9354 0.786903 23.6077 0.856334 23.3026 0.986825C23.133 1.05778 22.97 1.14352 22.8074 1.22778C22.2139 1.53489 21.6119 1.83719 21.0368 2.1783C20.8661 2.27939 20.7036 2.39382 20.5508 2.52052C20.228 2.79386 19.9449 3.11093 19.7097 3.46254C19.4315 3.87728 19.2025 4.32302 19.0275 4.79076C18.8193 5.34497 18.6663 5.91835 18.5707 6.50259C18.4565 7.19761 18.4014 7.90108 18.4063 8.60541C18.4114 9.43298 18.477 10.2591 18.6025 11.0771C18.7494 12.0378 18.9572 12.9883 19.2245 13.9227C19.5363 15.0148 19.9083 16.0888 20.3387 17.1398C20.838 18.3682 21.4053 19.5689 22.0214 20.743C22.3515 21.3725 22.6951 21.9945 23.0521 22.609C23.0731 22.6459 24.9738 21.5764 24.9779 21.5849C23.7927 19.5711 22.7757 17.4628 21.9375 15.2816C21.2895 13.6052 20.8188 11.8655 20.5331 10.0911C20.3137 8.74868 20.2748 7.38298 20.4174 6.03028C20.52 5.01802 20.798 4.03134 21.239 3.11441C21.5655 2.42705 22.0491 1.8261 22.6507 1.36009C22.7158 1.31253 22.7823 1.2672 22.8503 1.22409L22.817 1.24478C22.8431 1.22827 22.8695 1.21214 22.8961 1.19637C22.9094 1.18861 22.9227 1.18122 22.9357 1.17309C22.9889 1.13982 22.8222 1.23702 22.8884 1.19969C22.371 1.48906 21.8417 1.76772 21.314 2.03676C21.358 2.01422 21.2301 2.07778 21.2423 2.07372C21.2545 2.06965 21.2689 2.06041 21.2822 2.05413C21.3107 2.04119 21.3388 2.02789 21.3672 2.01532L21.3303 2.03122C21.6558 1.88512 22.0083 1.80895 22.365 1.80763C22.7104 1.81022 23.0506 1.89136 23.3599 2.04489C23.6964 2.21518 23.9936 2.45384 24.2325 2.74559C24.5164 3.09611 24.7396 3.49172 24.8929 3.916C25.0851 4.44559 25.2086 4.99768 25.2602 5.55872C25.327 6.26353 25.3239 6.97323 25.251 7.67743C25.162 8.55443 25.0049 9.42319 24.7813 10.2758C24.5079 11.3234 24.1691 12.3528 23.7668 13.358C23.2817 14.5752 22.734 15.7666 22.1259 16.9273C21.4034 18.3157 20.6107 19.6676 19.7711 20.9881C19.5424 21.3448 19.3121 21.6994 19.0792 22.0517L21.005 21.0276C19.8465 20.2342 18.7163 19.3986 17.6298 18.5087C16.6955 17.7433 15.7934 16.9384 14.9401 16.0839C14.2123 15.3596 13.5267 14.5941 12.8868 13.7912C12.3399 13.1056 11.8398 12.3839 11.3901 11.631C11.0095 10.9949 10.6798 10.3297 10.4041 9.64167C10.1722 9.06407 9.99417 8.46628 9.87226 7.85593C9.76837 7.33843 9.72116 6.81116 9.73146 6.28343C9.73992 5.83516 9.80562 5.3898 9.92696 4.95817C10.0312 4.58735 10.1899 4.23402 10.3978 3.90972C10.584 3.62017 10.8184 3.36458 11.0907 3.15396C11.154 3.10468 11.2195 3.05922 11.287 3.01759L11.2537 3.03828L11.3147 3.00133L11.3453 2.98359L11.3609 2.97472C11.0805 3.14611 10.7904 3.3011 10.492 3.43889C9.13757 4.1588 9.43581 3.99324 9.70744 3.85613C9.74439 3.83728 9.59435 3.91046 9.63352 3.89309C9.64424 3.88828 9.65459 3.88274 9.66531 3.87756C9.68822 3.86722 9.71076 3.8565 9.73368 3.84652L9.69672 3.86204C9.99683 3.73049 10.3197 3.65857 10.6472 3.65028C10.9949 3.64345 11.3407 3.70122 11.6672 3.82065C12.0362 3.95759 12.3807 4.153 12.6876 4.39939C13.0545 4.69416 13.3803 5.03657 13.6566 5.41754C13.9925 5.88001 14.2775 6.37737 14.5066 6.90098C14.7866 7.53857 15.0105 8.1994 15.1755 8.87593C15.3761 9.69262 15.5184 10.5225 15.6013 11.3594C15.7023 12.3696 15.7435 13.3848 15.7247 14.3998C15.7066 15.6079 15.6183 16.8146 15.4804 18.0149C15.3182 19.4292 15.0872 20.8358 14.8067 22.2317C14.7328 22.6057 14.6542 22.9789 14.5709 23.3514L16.4964 22.3281C15.0362 21.3019 13.5028 20.384 11.9086 19.5819C10.3228 18.7418 8.72144 17.9188 7.2247 16.9254C6.49441 16.4465 5.79967 15.9154 5.14589 15.3363C4.45365 14.7569 3.87605 14.0529 3.44294 13.2608C2.96512 12.3778 2.78607 11.3637 2.93257 10.3705C3.00693 9.90499 3.24666 9.48195 3.60776 9.17898C3.64989 9.14609 3.6935 9.11578 3.73822 9.08733L3.70533 9.10802C3.71715 9.10063 3.72935 9.09287 3.74228 9.08585L3.76076 9.07513C3.47102 9.23872 3.17747 9.39567 2.88009 9.54596C2.58936 9.70832 2.29519 9.8639 1.99757 10.0127L2.01678 10.0035L2.05374 9.98574L2.01678 10.0016C2.54063 9.80032 3.12097 9.80309 3.64287 10.0094C4.3589 10.2846 4.99807 10.7282 5.50622 11.3029C6.20893 12.0819 6.76821 12.9791 7.15818 13.953C7.68848 15.2609 8.03114 16.6373 8.17596 18.0412C8.37096 19.9148 8.35112 21.8046 8.11683 23.6737C8.08628 23.9371 8.05252 24.2001 8.01557 24.4627C8.01557 24.4513 8.33709 24.3012 8.30124 24.3197C8.52963 24.2014 8.75716 24.0817 8.98383 23.9605C9.21074 23.8396 9.43765 23.7188 9.66309 23.5957C9.70522 23.5724 9.9362 23.4778 9.94137 23.439" fill="#6AC61A"/>
<path d="M33.9288 6.42422H35.1787V12.3299H39.3592V13.409H33.9288V6.42422Z" fill="#04070C"/>
<path d="M40.2639 11.3173V8.07397H41.4598V11.1447C41.4598 11.9947 41.8368 12.362 42.5804 12.362C43.41 12.362 43.8517 11.6724 43.8517 10.9074V8.07397H45.0476V13.4072H43.9163V12.5886C43.7317 12.8745 43.478 13.1093 43.1786 13.2713C42.8792 13.4332 42.5438 13.5171 42.2034 13.5151C40.792 13.5151 40.2639 12.7179 40.2639 11.3173Z" fill="#04070C"/>
<path d="M46.0713 10.7459C46.0713 9.20521 47.0736 7.96606 48.5389 7.96606C48.8747 7.95913 49.2079 8.02597 49.515 8.16185C49.8222 8.29774 50.0958 8.49936 50.3165 8.75249V6.31779H51.5124V13.4072H50.3704V12.7394C50.1389 12.9928 49.8555 13.1934 49.5394 13.3273C49.2233 13.4613 48.882 13.5254 48.5389 13.5154C47.0736 13.5154 46.0713 12.2763 46.0713 10.7467M50.3165 10.7467C50.3322 10.5417 50.3059 10.3357 50.2392 10.1412C50.1725 9.94676 50.0668 9.76796 49.9287 9.61574C49.7905 9.46353 49.6227 9.3411 49.4356 9.25596C49.2485 9.17082 49.046 9.12475 48.8404 9.12058C48.4223 9.13843 48.0273 9.31709 47.7377 9.61926C47.4482 9.92142 47.2866 10.3237 47.2866 10.7422C47.2866 11.1607 47.4482 11.563 47.7377 11.8652C48.0273 12.1674 48.4223 12.346 48.8404 12.3639C49.0455 12.3609 49.2477 12.3161 49.4348 12.232C49.6218 12.1479 49.7896 12.0264 49.9279 11.875C50.0662 11.7236 50.172 11.5455 50.2389 11.3516C50.3057 11.1577 50.3321 10.9522 50.3165 10.7478" fill="#04070C"/>
<path d="M52.385 12.5239L54.4431 9.97022C54.7125 9.64685 55.2081 9.12982 55.2081 9.12982H52.4929V8.07397H56.6948V8.95724L54.6478 11.4463C54.3462 11.8232 53.8396 12.3513 53.8396 12.3513H56.7809V13.4072H52.3831L52.385 12.5239Z" fill="#04070C"/>
<path d="M57.5245 6.57648C57.5241 6.38385 57.5997 6.19883 57.7349 6.06161C57.8701 5.9244 58.054 5.84607 58.2466 5.84364C58.4404 5.84537 58.6258 5.92315 58.7628 6.06022C58.8998 6.1973 58.9774 6.38269 58.9791 6.57648C58.9766 6.76898 58.8982 6.95271 58.7611 7.08783C58.624 7.22295 58.4391 7.29855 58.2466 7.29824C58.0552 7.29824 57.8715 7.22221 57.7361 7.08687C57.6007 6.95152 57.5246 6.76794 57.5245 6.57648ZM57.6538 8.07396H58.8516V13.4072H57.6557L57.6538 8.07396Z" fill="#04070C"/>
<path d="M59.8731 10.7463C59.8685 10.3827 59.9361 10.0218 60.0722 9.6846C60.2082 9.34738 60.4099 9.04055 60.6655 8.78192C60.9211 8.52329 61.2255 8.31802 61.5611 8.17802C61.8967 8.03803 62.2568 7.96611 62.6204 7.96643C63.3226 7.9916 63.9863 8.29347 64.4667 8.80616C64.9471 9.31885 65.2053 10.0007 65.1848 10.7031C65.1831 10.858 65.1722 11.0128 65.1523 11.1665H61.1122C61.1848 11.5467 61.3931 11.8876 61.6984 12.1256C62.0037 12.3636 62.3851 12.4824 62.7716 12.46C63.3165 12.4621 63.8494 12.3007 64.3016 11.9965L64.7739 12.8805C64.1771 13.2894 63.4717 13.5108 62.7483 13.5162C61.229 13.5162 59.8716 12.5036 59.8716 10.7474M64.0196 10.284C63.9728 9.92964 63.7979 9.60468 63.5279 9.37042C63.258 9.13615 62.9117 9.00877 62.5543 9.0123C62.2019 9.02255 61.8641 9.15503 61.5987 9.38704C61.3333 9.61905 61.1569 9.93615 61.0996 10.284H64.0196Z" fill="#04070C"/>
<path d="M68.3848 10.7459C68.3848 9.20521 69.3871 7.96606 70.8521 7.96606C71.1878 7.95911 71.5211 8.02593 71.8282 8.16182C72.1354 8.2977 72.4089 8.49934 72.6297 8.75249V6.31779H73.8256V13.4072H72.6836V12.7394C72.4521 12.9928 72.1686 13.1933 71.8525 13.3273C71.5364 13.4612 71.1952 13.5254 70.8521 13.5154C69.3867 13.5154 68.3848 12.2763 68.3848 10.7467M72.63 10.7467C72.6457 10.5417 72.6194 10.3357 72.5527 10.1412C72.486 9.94676 72.3804 9.76796 72.2422 9.61574C72.104 9.46353 71.9363 9.3411 71.7491 9.25596C71.562 9.17082 71.3595 9.12475 71.154 9.12058C70.7359 9.13843 70.3408 9.31709 70.0513 9.61926C69.7617 9.92142 69.6001 10.3237 69.6001 10.7422C69.6001 11.1607 69.7617 11.563 70.0513 11.8652C70.3408 12.1674 70.7359 12.346 71.154 12.3639C71.359 12.3609 71.5613 12.3161 71.7483 12.232C71.9353 12.1479 72.1032 12.0264 72.2415 11.875C72.3798 11.7236 72.4856 11.5455 72.5524 11.3516C72.6192 11.1577 72.6456 10.9522 72.63 10.7478" fill="#04070C"/>
<path d="M76.2286 6.31779H75.0327V13.4072H76.2286V6.31779Z" fill="#04070C"/>
<path d="M77.2522 10.7459C77.2522 9.20521 78.2545 7.96606 79.7194 7.96606C80.0552 7.95911 80.3884 8.02594 80.6956 8.16182C81.0027 8.29771 81.2763 8.49934 81.497 8.75249V8.07397H82.6929V13.4072H81.497V12.739C81.2757 12.9907 81.0018 13.1907 80.6946 13.3248C80.3874 13.4589 80.0545 13.5239 79.7194 13.5151C78.2541 13.5151 77.2522 12.2756 77.2522 10.7459ZM81.4974 10.7463C81.5131 10.5413 81.4868 10.3353 81.4201 10.1409C81.3534 9.9464 81.2477 9.76759 81.1096 9.61538C80.9714 9.46316 80.8036 9.34074 80.6165 9.2556C80.4294 9.17046 80.2269 9.12439 80.0213 9.12021C79.6032 9.13807 79.2082 9.31673 78.9186 9.61889C78.6291 9.92106 78.4675 10.3234 78.4675 10.7419C78.4675 11.1604 78.6291 11.5627 78.9186 11.8648C79.2082 12.167 79.6032 12.3457 80.0213 12.3635C80.2264 12.3606 80.4287 12.3157 80.6157 12.2316C80.8027 12.1475 80.9705 12.026 81.1088 11.8746C81.2471 11.7232 81.3529 11.5451 81.4198 11.3512C81.4866 11.1574 81.513 10.9519 81.4974 10.7474" fill="#04070C"/>
<path d="M86.3994 6.42422H87.6492V12.3299H91.8297V13.409H86.3994V6.42422Z" fill="#04070C"/>
<path d="M92.7347 11.3173V8.07397H93.9299V11.1447C93.9299 11.9947 94.3069 12.362 95.0504 12.362C95.8801 12.362 96.3217 11.6724 96.3217 10.9074V8.07397H97.5177V13.4072H96.3861V12.5886C96.2014 12.8745 95.9477 13.1093 95.6483 13.2713C95.3489 13.4332 95.0135 13.5171 94.6731 13.5151C93.2617 13.5151 92.7336 12.7179 92.7336 11.3173" fill="#04070C"/>
<path d="M98.5422 10.7459C98.5422 9.20521 99.5444 7.96606 101.009 7.96606C101.345 7.95913 101.678 8.02597 101.986 8.16185C102.293 8.29774 102.566 8.49936 102.787 8.75249V6.31779H103.983V13.4072H102.841V12.7394C102.609 12.9928 102.326 13.1933 102.01 13.3273C101.694 13.4612 101.353 13.5254 101.009 13.5154C99.5441 13.5154 98.5422 12.2763 98.5422 10.7467M102.787 10.7467C102.803 10.5417 102.777 10.3357 102.71 10.1412C102.643 9.94676 102.538 9.76796 102.4 9.61574C102.261 9.46353 102.094 9.3411 101.906 9.25596C101.719 9.17082 101.517 9.12475 101.311 9.12058C100.893 9.13843 100.498 9.31709 100.209 9.61926C99.9191 9.92142 99.7575 10.3237 99.7575 10.7422C99.7575 11.1607 99.9191 11.563 100.209 11.8652C100.498 12.1674 100.893 12.346 101.311 12.3639C101.516 12.3609 101.719 12.3161 101.906 12.232C102.093 12.1479 102.261 12.0264 102.399 11.875C102.537 11.7236 102.643 11.5455 102.71 11.3516C102.777 11.1577 102.803 10.9522 102.787 10.7478" fill="#04070C"/>
<path d="M104.856 12.5239L106.914 9.97022C107.184 9.64685 107.679 9.12982 107.679 9.12982H104.964V8.07397H109.166V8.95724L107.119 11.4463C106.817 11.8232 106.311 12.3513 106.311 12.3513H109.252V13.4072H104.854L104.856 12.5239Z" fill="#04070C"/>
<path d="M109.994 6.57648C109.993 6.38391 110.069 6.19895 110.204 6.06174C110.339 5.92454 110.523 5.84617 110.716 5.84364C110.909 5.84537 111.095 5.92315 111.232 6.06022C111.369 6.1973 111.446 6.38269 111.448 6.57648C111.446 6.76898 111.367 6.95271 111.23 7.08783C111.093 7.22295 110.908 7.29855 110.716 7.29824C110.524 7.29815 110.341 7.22207 110.205 7.08674C110.07 6.9514 109.994 6.76788 109.994 6.57648ZM110.123 8.07396H111.319V13.4072H110.123V8.07396Z" fill="#04070C"/>
<path d="M34.1724 16.17H36.0442V16.5625H34.6273V17.1826H35.8243V17.5711H34.6273V18.713H34.172L34.1724 16.17Z" fill="#6AC61A"/>
<path d="M36.225 17.951V16.7684H36.6607V17.887C36.6607 18.1971 36.7982 18.3305 37.0672 18.3305C37.1332 18.3285 37.1981 18.3129 37.2578 18.2846C37.3175 18.2564 37.3708 18.2162 37.4142 18.1664C37.4577 18.1167 37.4904 18.0585 37.5104 17.9956C37.5303 17.9326 37.5371 17.8663 37.5303 17.8006V16.771H37.966V18.7138H37.5539V18.4155C37.4866 18.5196 37.3941 18.605 37.2851 18.6639C37.1761 18.7229 37.054 18.7535 36.9301 18.7529C36.416 18.7529 36.2239 18.4625 36.2239 17.9525" fill="#6AC61A"/>
<path d="M38.4069 16.7695H38.8426V17.0481C38.9115 16.946 39.0054 16.8631 39.1154 16.8075C39.2253 16.7519 39.3477 16.7253 39.4708 16.7303C39.9967 16.7303 40.1693 17.0795 40.1693 17.5977V18.7123H39.7336V17.6524C39.7336 17.3345 39.663 17.1501 39.3371 17.1501C39.2679 17.1508 39.1997 17.1658 39.1366 17.1942C39.0735 17.2225 39.017 17.2636 38.9706 17.3148C38.9241 17.366 38.8888 17.4263 38.8668 17.4918C38.8447 17.5573 38.8365 17.6267 38.8426 17.6956V18.7123H38.4069V16.7695Z" fill="#6AC61A"/>
<path d="M40.5141 17.7429C40.5037 17.6168 40.5189 17.4898 40.5589 17.3697C40.5989 17.2496 40.6628 17.1389 40.7468 17.0443C40.8309 16.9496 40.9332 16.873 41.0477 16.819C41.1622 16.765 41.2864 16.7349 41.4129 16.7303C41.5352 16.7278 41.6566 16.7521 41.7685 16.8016C41.8803 16.8511 41.98 16.9245 42.0604 17.0167V16.1297H42.4961V18.7123H42.08V18.4687C41.9957 18.5611 41.8924 18.6341 41.7773 18.6829C41.6622 18.7317 41.5379 18.7551 41.4129 18.7514C41.2867 18.7471 41.1628 18.7171 41.0485 18.6635C40.9342 18.6098 40.8319 18.5336 40.7479 18.4393C40.6639 18.3451 40.5999 18.2348 40.5597 18.1151C40.5195 17.9954 40.504 17.8688 40.5141 17.7429ZM42.0604 17.7429C42.066 17.6683 42.0563 17.5934 42.032 17.5226C42.0076 17.4519 41.9691 17.3869 41.9188 17.3315C41.8684 17.2762 41.8074 17.2317 41.7393 17.2008C41.6712 17.1698 41.5975 17.1531 41.5227 17.1516C41.3659 17.1516 41.2155 17.2139 41.1046 17.3248C40.9937 17.4357 40.9314 17.5861 40.9314 17.7429C40.9314 17.8997 40.9937 18.0501 41.1046 18.161C41.2155 18.2719 41.3659 18.3342 41.5227 18.3342C41.5974 18.3332 41.6711 18.3168 41.7392 18.2862C41.8074 18.2556 41.8685 18.2113 41.9189 18.1562C41.9693 18.101 42.0078 18.0361 42.0322 17.9655C42.0565 17.8948 42.0661 17.82 42.0604 17.7455" fill="#6AC61A"/>
<path d="M42.8686 17.7429C42.8581 17.6168 42.8733 17.4898 42.9133 17.3697C42.9533 17.2496 43.0172 17.1389 43.1013 17.0443C43.1853 16.9496 43.2876 16.873 43.4021 16.819C43.5166 16.765 43.6409 16.7349 43.7674 16.7303C43.8897 16.7278 44.011 16.7521 44.1229 16.8016C44.2348 16.8511 44.3344 16.9245 44.4148 17.0167V16.7695H44.8505V18.7123H44.4148V18.4687C44.3342 18.5604 44.2344 18.6332 44.1225 18.6821C44.0106 18.7309 43.8894 18.7546 43.7674 18.7514C43.6412 18.7471 43.5172 18.7171 43.4029 18.6635C43.2886 18.6098 43.1863 18.5336 43.1023 18.4393C43.0183 18.3451 42.9543 18.2348 42.9141 18.1151C42.874 17.9954 42.8585 17.8688 42.8686 17.7429ZM44.4148 17.7429C44.4204 17.6683 44.4107 17.5934 44.3864 17.5226C44.362 17.4519 44.3235 17.3869 44.2732 17.3315C44.2229 17.2762 44.1618 17.2317 44.0937 17.2008C44.0256 17.1698 43.9519 17.1531 43.8771 17.1516C43.7203 17.1516 43.5699 17.2139 43.459 17.3248C43.3481 17.4357 43.2858 17.5861 43.2858 17.7429C43.2858 17.8997 43.3481 18.0501 43.459 18.161C43.5699 18.2719 43.7203 18.3342 43.8771 18.3342C43.9518 18.3332 44.0255 18.3168 44.0937 18.2862C44.1618 18.2556 44.2229 18.2113 44.2733 18.1562C44.3237 18.101 44.3623 18.0361 44.3866 17.9655C44.4109 17.8948 44.4205 17.82 44.4148 17.7455" fill="#6AC61A"/>
<path d="M45.2231 17.7429C45.2236 17.6084 45.2508 17.4754 45.3031 17.3515C45.3554 17.2276 45.4318 17.1153 45.5278 17.0211C45.6238 16.9269 45.7375 16.8527 45.8624 16.8028C45.9873 16.7529 46.1208 16.7283 46.2553 16.7303C46.5094 16.7287 46.7558 16.8178 46.9501 16.9816L46.6792 17.2917C46.5631 17.1942 46.4148 17.1439 46.2634 17.1505C46.1066 17.1521 45.9568 17.2159 45.847 17.3279C45.7372 17.4399 45.6764 17.5909 45.678 17.7477C45.6796 17.9045 45.7434 18.0543 45.8554 18.1641C45.9674 18.2739 46.1184 18.3347 46.2752 18.3331C46.4488 18.3363 46.6176 18.2763 46.7501 18.1642L46.9896 18.4939C46.7831 18.6639 46.5231 18.7555 46.2557 18.7526C46.1214 18.755 45.988 18.7308 45.8632 18.6813C45.7384 18.6317 45.6247 18.5579 45.5287 18.4641C45.4327 18.3703 45.3562 18.2583 45.3038 18.1347C45.2514 18.0111 45.2241 17.8783 45.2235 17.744" fill="#6AC61A"/>
<path d="M46.9693 19.0811C47.0798 19.01 47.1684 18.9096 47.2252 18.7911C47.2821 18.6726 47.3049 18.5407 47.2912 18.41V16.7695H47.7258V18.3512C47.7473 18.5681 47.7001 18.7863 47.591 18.975C47.4819 19.1638 47.3162 19.3134 47.1175 19.403L46.9693 19.0811ZM47.2439 16.224C47.2438 16.1538 47.2714 16.0865 47.3206 16.0365C47.3699 15.9866 47.4369 15.958 47.507 15.9572C47.5776 15.9578 47.645 15.9862 47.6949 16.0361C47.7448 16.086 47.7732 16.1534 47.7738 16.224C47.7729 16.2941 47.7443 16.361 47.6944 16.4102C47.6444 16.4593 47.5771 16.4869 47.507 16.4868C47.4725 16.4868 47.4383 16.48 47.4063 16.4669C47.3744 16.4537 47.3454 16.4343 47.321 16.4099C47.2965 16.3855 47.2771 16.3565 47.2639 16.3246C47.2507 16.2927 47.2439 16.2585 47.2439 16.224Z" fill="#6AC61A"/>
<path d="M48.0994 17.7429C48.0889 17.6168 48.1041 17.4898 48.1441 17.3697C48.1841 17.2496 48.2481 17.1389 48.3321 17.0443C48.4161 16.9496 48.5185 16.873 48.633 16.819C48.7474 16.765 48.8717 16.7349 48.9982 16.7303C49.1205 16.7278 49.2419 16.7521 49.3537 16.8016C49.4656 16.8511 49.5653 16.9245 49.6457 17.0167V16.7695H50.0814V18.7123H49.6457V18.4687C49.565 18.5604 49.4652 18.6332 49.3534 18.6821C49.2415 18.7309 49.1202 18.7546 48.9982 18.7514C48.872 18.7471 48.748 18.7171 48.6337 18.6635C48.5194 18.6098 48.4172 18.5336 48.3332 18.4393C48.2492 18.3451 48.1851 18.2348 48.145 18.1151C48.1048 17.9954 48.0893 17.8688 48.0994 17.7429ZM49.6457 17.7429C49.6513 17.6683 49.6416 17.5934 49.6172 17.5226C49.5929 17.4519 49.5544 17.3869 49.504 17.3315C49.4537 17.2762 49.3926 17.2317 49.3245 17.2008C49.2564 17.1698 49.1827 17.1531 49.1079 17.1516C48.9511 17.1516 48.8007 17.2139 48.6898 17.3248C48.5789 17.4357 48.5166 17.5861 48.5166 17.7429C48.5166 17.8997 48.5789 18.0501 48.6898 18.161C48.8007 18.2719 48.9511 18.3342 49.1079 18.3342C49.1826 18.3332 49.2563 18.3168 49.3245 18.2862C49.3926 18.2556 49.4538 18.2113 49.5042 18.1562C49.5545 18.101 49.5931 18.0361 49.6174 17.9655C49.6418 17.8948 49.6514 17.82 49.6457 17.7455" fill="#6AC61A"/>
<path d="M51.2781 18.4687L51.4429 18.1117C51.6142 18.2597 51.8326 18.3418 52.059 18.3435C52.2356 18.3435 52.4437 18.2766 52.4437 18.1395C52.4437 18.0023 52.2475 17.9628 52.0549 17.9081C51.6853 17.8061 51.3719 17.696 51.3719 17.3168C51.3719 16.9376 51.7604 16.7322 52.1018 16.7322C52.3481 16.7287 52.5898 16.7983 52.7966 16.9321L52.6359 17.2854C52.4757 17.1897 52.2925 17.1395 52.1059 17.1401C51.9607 17.1401 51.8154 17.207 51.8154 17.309C51.8154 17.4425 51.9762 17.4739 52.148 17.5093C52.5091 17.5877 52.8872 17.7329 52.8872 18.1332C52.8872 18.5885 52.42 18.7533 52.059 18.7533C51.7727 18.7589 51.4944 18.6582 51.2781 18.4706" fill="#6AC61A"/>
<path d="M53.2361 16.7695H53.6522V17.0126C53.7366 16.9204 53.8398 16.8474 53.9549 16.7987C54.0701 16.7499 54.1943 16.7266 54.3193 16.7303C54.567 16.7591 54.7956 16.878 54.9614 17.0643C55.1273 17.2507 55.2189 17.4914 55.2189 17.7409C55.2189 17.9903 55.1273 18.2311 54.9614 18.4174C54.7956 18.6037 54.567 18.7226 54.3193 18.7514C54.197 18.7539 54.0756 18.7296 53.9637 18.6801C53.8519 18.6306 53.7522 18.5572 53.6718 18.465V19.2736H53.2361V16.7695ZM54.7746 17.7388C54.779 17.6624 54.7675 17.5858 54.741 17.514C54.7145 17.4421 54.6734 17.3766 54.6204 17.3213C54.5673 17.2661 54.5035 17.2223 54.4328 17.1929C54.3621 17.1634 54.2861 17.1489 54.2095 17.1501C54.0608 17.1619 53.9219 17.2293 53.8206 17.3389C53.7194 17.4485 53.6631 17.5922 53.6631 17.7414C53.6631 17.8906 53.7194 18.0344 53.8206 18.1439C53.9219 18.2535 54.0608 18.3209 54.2095 18.3327C54.2862 18.3335 54.3622 18.3185 54.4328 18.2887C54.5035 18.259 54.5673 18.215 54.6202 18.1596C54.6732 18.1041 54.7142 18.0384 54.7408 17.9665C54.7673 17.8946 54.7788 17.818 54.7746 17.7414" fill="#6AC61A"/>
<path d="M55.5237 17.7429C55.5189 17.5377 55.5754 17.3357 55.6859 17.1628C55.7964 16.9899 55.956 16.8538 56.1442 16.7719C56.3325 16.6901 56.5408 16.6662 56.7427 16.7033C56.9445 16.7405 57.1308 16.8369 57.2776 16.9803C57.4244 17.1238 57.5251 17.3077 57.5669 17.5087C57.6087 17.7096 57.5896 17.9185 57.5122 18.1085C57.4347 18.2986 57.3024 18.4613 57.132 18.5758C56.9617 18.6903 56.7611 18.7515 56.5559 18.7514C56.4217 18.7534 56.2885 18.7289 56.1639 18.6792C56.0394 18.6295 55.9258 18.5557 55.8299 18.462C55.7339 18.3682 55.6575 18.2564 55.6049 18.133C55.5524 18.0096 55.5248 17.877 55.5237 17.7429ZM57.1446 17.7429C57.1446 17.6265 57.11 17.5126 57.0453 17.4158C56.9807 17.319 56.8887 17.2436 56.7811 17.199C56.6736 17.1544 56.5552 17.1428 56.441 17.1655C56.3268 17.1882 56.2219 17.2443 56.1396 17.3266C56.0572 17.4089 56.0012 17.5138 55.9784 17.628C55.9557 17.7422 55.9674 17.8606 56.0119 17.9682C56.0565 18.0758 56.132 18.1677 56.2288 18.2324C56.3256 18.2971 56.4394 18.3316 56.5559 18.3316C56.6336 18.3332 56.7109 18.3191 56.783 18.2901C56.8552 18.2611 56.9207 18.2178 56.9757 18.1628C57.0307 18.1078 57.074 18.0422 57.103 17.9701C57.1321 17.8979 57.1462 17.8207 57.1446 17.7429Z" fill="#6AC61A"/>
<path d="M57.9609 17.3231L57.7451 17.4173V17.1268L57.9609 17.0326V16.1297H58.3967V16.8478L58.6125 16.7495V17.04L58.3967 17.1342V18.7119H57.9609V17.3231Z" fill="#6AC61A"/>
<path d="M58.7692 17.7429C58.7676 17.6106 58.7922 17.4792 58.8417 17.3564C58.8912 17.2337 58.9645 17.1219 59.0575 17.0278C59.1505 16.9336 59.2613 16.8588 59.3834 16.8077C59.5055 16.7566 59.6365 16.7303 59.7689 16.7303C60.0248 16.7394 60.2668 16.8494 60.4418 17.0364C60.6168 17.2234 60.7107 17.4721 60.7028 17.7281C60.7021 17.7846 60.6982 17.841 60.691 17.897H59.219C59.2454 18.0355 59.3213 18.1596 59.4325 18.2463C59.5436 18.3329 59.6825 18.3763 59.8232 18.3682C60.0217 18.369 60.2159 18.3101 60.3805 18.1993L60.5535 18.5212C60.3357 18.6703 60.0783 18.7508 59.8143 18.7526C59.6781 18.7601 59.5418 18.7395 59.4138 18.692C59.2859 18.6445 59.1691 18.5711 59.0708 18.4765C58.9725 18.3818 58.8948 18.268 58.8424 18.1419C58.7901 18.0159 58.7643 17.8804 58.7666 17.744M60.2778 17.5751C60.2607 17.4461 60.197 17.3277 60.0987 17.2424C60.0004 17.1571 59.8743 17.1108 59.7441 17.1121C59.6158 17.116 59.4929 17.1643 59.3962 17.2487C59.2996 17.3332 59.2352 17.4485 59.2142 17.5751H60.2778Z" fill="#6AC61A"/>
<path d="M61.0098 17.7429C61.0104 17.6084 61.0376 17.4754 61.0899 17.3515C61.1423 17.2277 61.2186 17.1154 61.3146 17.0212C61.4106 16.927 61.5243 16.8528 61.6492 16.8029C61.774 16.753 61.9076 16.7283 62.042 16.7303C62.2962 16.7287 62.5425 16.8178 62.7368 16.9816L62.4659 17.2917C62.3499 17.1943 62.2015 17.1439 62.0502 17.1505C61.9725 17.1513 61.8958 17.1673 61.8243 17.1978C61.7529 17.2282 61.6881 17.2724 61.6338 17.3279C61.5794 17.3833 61.5365 17.4489 61.5075 17.521C61.4785 17.593 61.464 17.6701 61.4648 17.7477C61.4655 17.8254 61.4816 17.9021 61.512 17.9735C61.5425 18.045 61.5867 18.1097 61.6421 18.1641C61.6976 18.2185 61.7632 18.2614 61.8353 18.2904C61.9073 18.3194 61.9843 18.3339 62.062 18.3331C62.2355 18.3363 62.4043 18.2763 62.5369 18.1642L62.7764 18.4939C62.5698 18.6638 62.3099 18.7554 62.0424 18.7526C61.9082 18.755 61.7748 18.7308 61.65 18.6812C61.5252 18.6317 61.4115 18.5579 61.3155 18.4641C61.2194 18.3702 61.143 18.2583 61.0906 18.1347C61.0382 18.0111 61.0109 17.8783 61.0102 17.744" fill="#6AC61A"/>
<path d="M62.9563 18.3904L63.7058 17.4602C63.8041 17.3423 63.9844 17.1542 63.9844 17.1542H62.9955V16.7709H64.527V17.0928L63.7812 17.9994C63.6703 18.1369 63.4855 18.329 63.4855 18.329H64.5572V18.7137H62.9563V18.3904Z" fill="#6AC61A"/>
<path d="M64.8751 16.7695H65.3108V17.0481C65.3797 16.946 65.4737 16.8631 65.5836 16.8075C65.6936 16.7519 65.816 16.7253 65.9391 16.7303C66.465 16.7303 66.6376 17.0795 66.6376 17.5977V18.7123H66.2018V17.6524C66.2018 17.3345 66.1313 17.1501 65.8053 17.1501C65.7362 17.1508 65.6679 17.1658 65.6049 17.1942C65.5418 17.2225 65.4853 17.2636 65.4388 17.3148C65.3924 17.366 65.3571 17.4263 65.335 17.4918C65.313 17.5573 65.3048 17.6267 65.3108 17.6956V18.7123H64.8751V16.7695Z" fill="#6AC61A"/>
<path d="M66.9825 17.7429C66.972 17.6168 66.9872 17.4898 67.0272 17.3697C67.0672 17.2496 67.1311 17.1389 67.2152 17.0443C67.2992 16.9496 67.4015 16.873 67.516 16.819C67.6305 16.765 67.7548 16.7349 67.8812 16.7303C68.0036 16.7278 68.1249 16.7521 68.2368 16.8016C68.3487 16.8511 68.4483 16.9245 68.5287 17.0167V16.7695H68.9644V18.7123H68.5287V18.4687C68.4481 18.5604 68.3483 18.6332 68.2364 18.6821C68.1245 18.7309 68.0033 18.7546 67.8812 18.7514C67.7551 18.7471 67.6311 18.7171 67.5168 18.6635C67.4025 18.6098 67.3002 18.5336 67.2162 18.4393C67.1322 18.3451 67.0682 18.2348 67.028 18.1151C66.9878 17.9954 66.9723 17.8688 66.9825 17.7429ZM68.5287 17.7429C68.5343 17.6683 68.5246 17.5934 68.5003 17.5226C68.4759 17.4519 68.4374 17.3869 68.3871 17.3315C68.3368 17.2762 68.2757 17.2317 68.2076 17.2008C68.1395 17.1698 68.0658 17.1531 67.991 17.1516C67.8342 17.1516 67.6838 17.2139 67.5729 17.3248C67.462 17.4357 67.3997 17.5861 67.3997 17.7429C67.3997 17.8997 67.462 18.0501 67.5729 18.161C67.6838 18.2719 67.8342 18.3342 67.991 18.3342C68.0657 18.3332 68.1394 18.3168 68.2075 18.2862C68.2757 18.2556 68.3368 18.2113 68.3872 18.1562C68.4376 18.101 68.4762 18.0361 68.5005 17.9655C68.5248 17.8948 68.5344 17.82 68.5287 17.7455" fill="#6AC61A"/>
</g>
</g>
<defs>
<clipPath id="clip0_346_86">
<rect width="110.5" height="23.6817" fill="white" transform="translate(0.949951 0.782425)"/>
</clipPath>
</defs>
</svg>
