<svg width="198" height="81" viewBox="0 0 198 81" fill="none" xmlns="http://www.w3.org/2000/svg">
<g clip-path="url(#clip0_149_3141)">
<path d="M59.277 50.9583L54.6598 46.2299L50.0426 50.9583H59.277Z" fill="#C6000B"/>
<path d="M54.6598 36.7915L50.0426 32.063V41.5014L54.6598 36.7915Z" fill="#C6000B"/>
<path d="M50.0425 41.5014H40.8081L50.0425 50.9583V41.5014Z" fill="#C6000B"/>
<path d="M59.2771 41.5014V32.063L54.6599 36.7915L59.2771 41.5014Z" fill="#009FE8"/>
<path d="M59.277 32.063H50.0426L54.6598 36.7915L59.277 32.063Z" fill="#231815"/>
<path d="M68.5299 50.9583H77.7643L68.5299 41.5014V50.9583Z" fill="#0071B2"/>
<path d="M59.277 41.5014L68.5299 50.9583V41.5014H59.277Z" fill="#009FE8"/>
<path d="M68.5299 32.063V41.5014L77.7643 32.063H68.5299Z" fill="#DBDCDC"/>
<path d="M50.0425 32.063L40.8081 41.5014H50.0425V32.063Z" fill="#E50012"/>
<path d="M50.0426 41.5014L54.6598 46.2299L59.277 41.5014H50.0426Z" fill="#DBDCDC"/>
<path d="M50.0426 41.5014V50.9583L54.6598 46.2299L50.0426 41.5014Z" fill="#A30000"/>
<path d="M87.2213 35.8273L89.224 32.0631C89.3908 32.0445 89.5206 32.026 89.669 32.0074C89.7988 32.0074 89.9286 31.9889 90.0398 31.9889C90.1511 31.9889 90.2809 31.9889 90.4292 32.0074C90.5776 32.026 90.7259 32.0445 90.8743 32.0445L88.8346 35.6975L91.0412 39.61C90.8743 39.6286 90.7259 39.6286 90.5776 39.6471C90.4292 39.6657 90.2994 39.6657 90.1882 39.6657C90.0769 39.6657 89.9471 39.6657 89.8173 39.6471C89.6875 39.6471 89.5392 39.6286 89.3723 39.5915L87.2213 35.8273ZM85.4968 32.0631C85.6266 32.0445 85.7564 32.026 85.8862 32.026C86.016 32.026 86.1458 32.0074 86.2756 32.0074C86.3869 32.0074 86.5167 32.0074 86.6279 32.026C86.7577 32.026 86.8875 32.0445 87.0173 32.0631V39.6657C86.8875 39.6842 86.7577 39.7028 86.6279 39.7028C86.4981 39.7028 86.3869 39.7213 86.2571 39.7213C86.1273 39.7213 86.016 39.7213 85.8862 39.7028C85.7564 39.7028 85.6266 39.6842 85.4968 39.6657V32.0631Z" fill="#231815"/>
<path d="M93.9338 38.6273C94.3232 38.6273 94.6013 38.4789 94.7682 38.1822C94.9351 37.8856 95.0278 37.4776 95.0278 36.9213C95.0278 36.365 94.9351 35.9571 94.7682 35.6604C94.6013 35.3637 94.3232 35.2154 93.9338 35.2154C93.5629 35.2154 93.2848 35.3637 93.1179 35.6604C92.951 35.9571 92.8583 36.365 92.8583 36.9213C92.8583 37.4776 92.951 37.8856 93.1179 38.1822C93.2848 38.4975 93.5629 38.6273 93.9338 38.6273ZM93.9338 39.7769C93.5073 39.7769 93.1179 39.7028 92.8027 39.5544C92.4874 39.4061 92.2278 39.2021 92.0053 38.961C91.8014 38.7014 91.6345 38.4048 91.5232 38.0524C91.412 37.7001 91.3563 37.3293 91.3563 36.9399C91.3563 36.5319 91.412 36.1611 91.5232 35.8087C91.6345 35.4564 91.7828 35.1597 92.0053 34.9001C92.2093 34.6405 92.4874 34.4366 92.8027 34.2882C93.1179 34.1399 93.5073 34.0657 93.9338 34.0657C94.3603 34.0657 94.7497 34.1399 95.0649 34.2882C95.3801 34.4366 95.6583 34.6405 95.8623 34.9001C96.0848 35.1597 96.2331 35.4564 96.3444 35.8087C96.4371 36.1611 96.4927 36.5319 96.4927 36.9399C96.4927 37.3478 96.4371 37.7187 96.3444 38.0524C96.2331 38.4048 96.0848 38.7014 95.8623 38.961C95.6397 39.2206 95.3801 39.4246 95.0649 39.5544C94.7497 39.7028 94.3603 39.7769 93.9338 39.7769Z" fill="#231815"/>
<path d="M97.6052 31.9518C97.8463 31.9147 98.1059 31.8962 98.3284 31.8962C98.5695 31.8962 98.8105 31.9147 99.0516 31.9518V37.4776C99.0516 37.7001 99.0701 37.867 99.0887 37.9968C99.1072 38.1266 99.1443 38.2379 99.1999 38.312C99.2555 38.3862 99.3112 38.4418 99.4039 38.4604C99.4781 38.4975 99.5893 38.4975 99.7191 38.4975C99.7747 38.4975 99.8304 38.4975 99.9045 38.4789C99.9787 38.4789 100.034 38.4604 100.09 38.4418C100.164 38.7385 100.201 39.0167 100.201 39.2763C100.201 39.3319 100.201 39.3875 100.201 39.4246C100.201 39.4617 100.201 39.5173 100.183 39.573C100.071 39.61 99.9416 39.6286 99.7933 39.6471C99.6449 39.6657 99.4966 39.6657 99.3668 39.6657C98.8291 39.6657 98.4211 39.5173 98.0873 39.2206C97.7721 38.924 97.6052 38.4418 97.6052 37.7557V31.9518Z" fill="#231815"/>
<path d="M104.262 36.3465C104.244 36.0127 104.151 35.7346 103.984 35.5306C103.817 35.3266 103.576 35.2154 103.279 35.2154C102.946 35.2154 102.667 35.3081 102.501 35.5121C102.315 35.716 102.222 35.9942 102.185 36.3465H104.262ZM102.167 37.3849C102.185 37.8114 102.334 38.1081 102.593 38.2935C102.853 38.4789 103.205 38.5717 103.632 38.5717C103.873 38.5717 104.095 38.5531 104.355 38.4975C104.596 38.4604 104.837 38.3862 105.06 38.312C105.134 38.4418 105.208 38.6273 105.263 38.8127C105.319 39.0167 105.356 39.2207 105.356 39.4432C104.818 39.6471 104.207 39.7584 103.539 39.7584C103.038 39.7584 102.612 39.6842 102.26 39.5544C101.907 39.4061 101.611 39.2207 101.388 38.9796C101.165 38.7385 100.999 38.4419 100.887 38.0895C100.776 37.7372 100.72 37.3664 100.72 36.9584C100.72 36.5505 100.776 36.1796 100.887 35.8273C100.999 35.475 101.165 35.1783 101.369 34.9187C101.592 34.6591 101.852 34.4551 102.167 34.3068C102.482 34.1584 102.853 34.0843 103.279 34.0843C103.65 34.0843 103.984 34.1584 104.262 34.2882C104.559 34.418 104.8 34.6035 105.004 34.8445C105.208 35.067 105.356 35.3452 105.467 35.679C105.56 35.9942 105.616 36.3465 105.616 36.6988C105.616 36.8286 105.616 36.9584 105.597 37.0882C105.579 37.218 105.579 37.3293 105.56 37.4034H102.167V37.3849Z" fill="#231815"/>
<path d="M106.858 33.2498C106.821 33.1015 106.821 32.9717 106.803 32.8789C106.803 32.7862 106.784 32.675 106.784 32.5823C106.784 32.471 106.784 32.3597 106.803 32.267C106.803 32.1743 106.821 32.0445 106.858 31.9147C106.988 31.8776 107.118 31.8591 107.248 31.8405C107.377 31.822 107.507 31.822 107.6 31.822C107.693 31.822 107.823 31.822 107.952 31.8405C108.082 31.8591 108.212 31.8776 108.342 31.9147C108.36 32.063 108.379 32.1743 108.397 32.267C108.397 32.3597 108.416 32.471 108.416 32.5823C108.416 32.6935 108.416 32.7862 108.397 32.8789C108.397 32.9717 108.379 33.1015 108.342 33.2498C108.212 33.2869 108.082 33.3054 107.952 33.324C107.823 33.3425 107.693 33.3425 107.6 33.3425C107.507 33.3425 107.377 33.3425 107.248 33.324C107.118 33.3054 106.988 33.2869 106.858 33.2498ZM107.081 35.3452H106.376C106.358 35.2524 106.339 35.1597 106.321 35.0485C106.302 34.9558 106.302 34.8445 106.302 34.7518C106.302 34.5664 106.321 34.3809 106.358 34.1955H108.472V39.7584C108.472 40.4259 108.305 40.9266 107.971 41.2233C107.637 41.52 107.155 41.6683 106.543 41.6683C106.376 41.6683 106.191 41.6498 106.024 41.6312C105.838 41.6127 105.69 41.5756 105.523 41.557C105.523 41.3531 105.542 41.1676 105.56 40.9822C105.597 40.7968 105.634 40.6299 105.709 40.463C105.783 40.4815 105.857 40.5001 105.95 40.5001C106.042 40.5186 106.135 40.5186 106.246 40.5186C106.358 40.5186 106.469 40.5001 106.562 40.4815C106.654 40.463 106.747 40.4074 106.821 40.3332C106.895 40.259 106.951 40.1478 106.988 40.018C107.025 39.8882 107.044 39.7027 107.044 39.4988V35.3452H107.081Z" fill="#231815"/>
<path d="M113.218 36.3465C113.2 36.0127 113.107 35.7346 112.94 35.5306C112.773 35.3266 112.532 35.2154 112.236 35.2154C111.883 35.2154 111.624 35.3081 111.457 35.5121C111.271 35.716 111.179 35.9942 111.142 36.3465H113.218ZM111.123 37.3849C111.142 37.8114 111.29 38.1081 111.55 38.2935C111.809 38.4789 112.161 38.5717 112.588 38.5717C112.829 38.5717 113.052 38.5531 113.311 38.4975C113.552 38.4604 113.793 38.3862 113.997 38.2935C114.071 38.4419 114.146 38.6087 114.201 38.7942C114.257 38.9981 114.294 39.2021 114.294 39.4246C113.756 39.6286 113.144 39.7399 112.477 39.7399C111.976 39.7399 111.55 39.6657 111.197 39.5359C110.845 39.3875 110.548 39.2021 110.326 38.9425C110.103 38.7015 109.936 38.4048 109.825 38.0525C109.714 37.7001 109.658 37.3293 109.658 36.9213C109.658 36.5134 109.714 36.1425 109.825 35.7902C109.936 35.4379 110.103 35.1412 110.307 34.8816C110.53 34.622 110.789 34.418 111.105 34.2697C111.42 34.1214 111.791 34.0472 112.217 34.0472C112.588 34.0472 112.922 34.1214 113.2 34.2512C113.497 34.381 113.738 34.5664 113.942 34.8074C114.146 35.03 114.294 35.3081 114.405 35.6419C114.516 35.9571 114.554 36.3094 114.554 36.6617C114.554 36.7915 114.554 36.9213 114.535 37.0511C114.516 37.1809 114.516 37.2922 114.498 37.3664H111.123V37.3849Z" fill="#231815"/>
<path d="M84.9404 43.3743C85.1815 43.3372 85.4596 43.3186 85.7934 43.3186C85.9232 43.3186 86.0345 43.3186 86.1643 43.3372C86.2941 43.3372 86.4239 43.3557 86.5351 43.3928L87.5921 49.104L88.8715 43.3928C89.0013 43.3743 89.1311 43.3557 89.2609 43.3372C89.3722 43.3186 89.502 43.3186 89.6132 43.3186C89.8172 43.3186 90.0397 43.3372 90.2808 43.3743L91.6159 49.2338L92.6728 43.3743C92.8768 43.3372 93.0993 43.3186 93.3404 43.3186C93.4702 43.3186 93.6185 43.3186 93.7483 43.3372C93.8781 43.3557 94.0079 43.3743 94.1377 43.3743L92.3576 50.9583C92.1165 50.9954 91.8569 51.014 91.5788 51.014C91.3192 51.014 91.0411 50.9954 90.7258 50.9583L89.5391 45.9146L88.2596 50.9583C87.9629 50.9954 87.7219 51.014 87.4808 51.014C87.2583 51.014 86.9616 50.9954 86.702 50.9583L84.9404 43.3743Z" fill="#231815"/>
<path d="M95.0648 44.5981C95.0278 44.3571 95.0092 44.116 95.0092 43.8935C95.0092 43.671 95.0278 43.4299 95.0648 43.1889C95.1761 43.1703 95.3059 43.1518 95.4357 43.1332C95.5655 43.1147 95.6953 43.1147 95.8066 43.1147C95.9178 43.1147 96.0476 43.1147 96.196 43.1332C96.3258 43.1518 96.4556 43.1518 96.5854 43.1889C96.6039 43.3001 96.6225 43.4299 96.6225 43.5412C96.6225 43.6524 96.641 43.7822 96.641 43.8935C96.641 44.0047 96.641 44.116 96.6225 44.2458C96.6225 44.3756 96.6039 44.4869 96.5854 44.5981C96.4741 44.6167 96.3443 44.6352 96.2145 44.6352C96.0847 44.6352 95.9549 44.6537 95.8436 44.6537C95.7324 44.6537 95.6026 44.6537 95.4728 44.6352C95.3059 44.6352 95.1761 44.6167 95.0648 44.5981ZM95.2874 46.6564H94.6013C94.5827 46.5637 94.5642 46.471 94.5456 46.3597C94.5271 46.267 94.5271 46.1557 94.5271 46.063C94.5271 45.8776 94.5456 45.6922 94.5827 45.5067H96.6966V50.9583C96.4556 50.9954 96.2145 51.014 95.9735 51.014C95.7509 51.014 95.5099 50.9954 95.2688 50.9583V46.6564H95.2874Z" fill="#231815"/>
<path d="M101.425 47.6577C101.407 47.3239 101.314 47.0458 101.147 46.8418C100.98 46.6378 100.739 46.5266 100.442 46.5266C100.109 46.5266 99.8304 46.6193 99.6635 46.8233C99.4781 47.0272 99.3854 47.3054 99.3483 47.6577H101.425ZM99.3298 48.6961C99.3669 49.1226 99.4967 49.4193 99.7563 49.6232C100.016 49.8087 100.368 49.9014 100.795 49.9014C101.036 49.9014 101.277 49.8828 101.518 49.8272C101.759 49.7901 102 49.716 102.222 49.6418C102.297 49.7901 102.371 49.957 102.426 50.1425C102.482 50.3464 102.519 50.5504 102.519 50.7729C101.981 50.9769 101.369 51.0881 100.702 51.0881C100.201 51.0881 99.7748 51.014 99.4225 50.8842C99.0702 50.7358 98.7735 50.5504 98.551 50.3093C98.3285 50.0683 98.1616 49.7531 98.0503 49.4193C97.9391 49.067 97.8834 48.6961 97.8834 48.2882C97.8834 47.8802 97.9391 47.5094 98.0503 47.157C98.1616 46.8047 98.3285 46.508 98.5324 46.2484C98.7549 45.9888 99.0145 45.7849 99.3298 45.6365C99.645 45.4882 100.016 45.414 100.442 45.414C100.813 45.414 101.147 45.4882 101.425 45.618C101.722 45.7478 101.963 45.9332 102.167 46.1743C102.371 46.4153 102.519 46.6749 102.63 47.0087C102.742 47.3239 102.779 47.6762 102.779 48.0286C102.779 48.1584 102.779 48.2882 102.76 48.418C102.742 48.5478 102.742 48.659 102.723 48.7332H99.3298V48.6961Z" fill="#231815"/>
<path d="M103.91 43.263C104.151 43.2259 104.411 43.2074 104.633 43.2074C104.874 43.2074 105.115 43.2259 105.356 43.263V48.7888C105.356 49.0113 105.375 49.1782 105.393 49.308C105.412 49.4378 105.449 49.5491 105.505 49.6233C105.56 49.6974 105.634 49.7531 105.709 49.7716C105.783 49.8087 105.894 49.8087 106.024 49.8087C106.079 49.8087 106.135 49.8087 106.209 49.7901C106.265 49.7901 106.339 49.7716 106.395 49.7531C106.469 50.0497 106.506 50.3279 106.506 50.606C106.506 50.6617 106.506 50.7173 106.506 50.7544C106.506 50.7915 106.506 50.8471 106.487 50.9027C106.376 50.9398 106.246 50.9583 106.098 50.9769C105.95 50.9954 105.801 50.9954 105.671 50.9954C105.134 50.9954 104.726 50.8471 104.392 50.5504C104.077 50.2537 103.91 49.7716 103.91 49.0855V43.263Z" fill="#231815"/>
<path d="M108.861 48.1027L110.177 45.5067C110.437 45.4696 110.715 45.4511 110.993 45.4511C111.253 45.4511 111.513 45.4696 111.754 45.5067L110.4 48.0286L111.995 50.9583C111.717 50.9954 111.438 51.014 111.179 51.014C110.938 51.014 110.678 50.9954 110.419 50.9583L108.861 48.1027ZM107.211 43.263C107.452 43.2259 107.693 43.2074 107.934 43.2074C108.175 43.2074 108.434 43.2259 108.675 43.263V50.9583C108.434 50.9954 108.193 51.014 107.934 51.014C107.693 51.014 107.452 50.9954 107.211 50.9583V43.263Z" fill="#231815"/>
<path d="M114.869 49.957C115.258 49.957 115.536 49.8087 115.703 49.512C115.87 49.2153 115.963 48.8073 115.963 48.251C115.963 47.6948 115.87 47.2868 115.703 46.9901C115.536 46.6934 115.258 46.5451 114.869 46.5451C114.498 46.5451 114.22 46.6934 114.053 46.9901C113.886 47.2868 113.793 47.6948 113.793 48.251C113.793 48.8073 113.886 49.2153 114.053 49.512C114.22 49.8087 114.479 49.957 114.869 49.957ZM114.869 51.0881C114.442 51.0881 114.053 51.0139 113.738 50.8656C113.422 50.7173 113.144 50.5133 112.94 50.2722C112.736 50.0126 112.57 49.7159 112.458 49.3636C112.347 49.0113 112.291 48.6405 112.291 48.251C112.291 47.8616 112.347 47.4722 112.458 47.1199C112.57 46.7676 112.718 46.4709 112.94 46.2113C113.144 45.9517 113.422 45.7478 113.738 45.5994C114.053 45.4511 114.442 45.3769 114.869 45.3769C115.295 45.3769 115.685 45.4511 116 45.5994C116.315 45.7478 116.593 45.9517 116.797 46.2113C117.001 46.4709 117.168 46.7676 117.279 47.1199C117.391 47.4722 117.428 47.8431 117.428 48.251C117.428 48.659 117.372 49.0299 117.279 49.3636C117.168 49.7159 117.02 50.0126 116.797 50.2722C116.593 50.5318 116.315 50.7358 116 50.8656C115.666 51.0139 115.295 51.0881 114.869 51.0881Z" fill="#231815"/>
<path d="M120.024 49.8087C120.209 49.8643 120.413 49.9014 120.654 49.9014C121.081 49.9014 121.414 49.753 121.637 49.4749C121.859 49.1967 121.971 48.7703 121.971 48.1954C121.971 47.9729 121.952 47.7689 121.915 47.5835C121.878 47.3981 121.822 47.2312 121.748 47.1014C121.674 46.9716 121.563 46.8603 121.433 46.7862C121.303 46.712 121.155 46.6749 120.969 46.6749C120.803 46.6749 120.654 46.712 120.524 46.7676C120.395 46.8418 120.302 46.9345 120.228 47.0458C120.154 47.157 120.098 47.3054 120.061 47.4537C120.024 47.602 120.005 47.7689 120.005 47.9544V49.8087H120.024ZM118.559 45.5067C118.652 45.4882 118.744 45.4696 118.837 45.4696C118.93 45.4696 119.041 45.4511 119.152 45.4511C119.338 45.4511 119.542 45.4696 119.746 45.5067C119.764 45.5438 119.783 45.5994 119.801 45.655C119.82 45.7292 119.838 45.7848 119.857 45.8776C119.875 45.9517 119.894 46.0259 119.894 46.1001C119.912 46.1742 119.912 46.2299 119.912 46.2855C119.968 46.1742 120.042 46.063 120.135 45.9517C120.228 45.8405 120.339 45.7478 120.469 45.655C120.599 45.5623 120.728 45.5067 120.895 45.4511C121.062 45.3954 121.229 45.3769 121.414 45.3769C121.711 45.3769 121.989 45.4325 122.249 45.5438C122.508 45.655 122.731 45.8219 122.916 46.063C123.102 46.2855 123.25 46.5822 123.361 46.916C123.473 47.2683 123.528 47.6762 123.528 48.1398C123.528 48.6034 123.454 49.0113 123.324 49.3636C123.195 49.7345 123.009 50.0312 122.75 50.2908C122.508 50.5504 122.193 50.7358 121.841 50.8656C121.489 50.9954 121.081 51.0696 120.617 51.0696C120.506 51.0696 120.395 51.0696 120.265 51.051C120.154 51.0325 120.061 51.0325 119.987 51.0139V53.4616C119.857 53.4802 119.727 53.4987 119.616 53.4987C119.486 53.4987 119.375 53.5172 119.263 53.5172C119.152 53.5172 119.022 53.5172 118.911 53.4987C118.781 53.4987 118.67 53.4802 118.54 53.4616V45.5067H118.559Z" fill="#231815"/>
<path d="M126.94 49.957C127.33 49.957 127.608 49.8087 127.775 49.512C127.941 49.2153 128.034 48.8073 128.034 48.251C128.034 47.6948 127.96 47.2868 127.775 46.9901C127.608 46.6934 127.33 46.5451 126.94 46.5451C126.569 46.5451 126.291 46.6934 126.124 46.9901C125.957 47.2868 125.865 47.6948 125.865 48.251C125.865 48.8073 125.957 49.2153 126.124 49.512C126.291 49.8087 126.551 49.957 126.94 49.957ZM126.94 51.0881C126.514 51.0881 126.124 51.0139 125.809 50.8656C125.494 50.7173 125.234 50.5133 125.012 50.2722C124.808 50.0126 124.641 49.7159 124.53 49.3636C124.418 49.0113 124.363 48.6405 124.363 48.251C124.363 47.8616 124.418 47.4722 124.53 47.1199C124.641 46.7676 124.789 46.4709 125.012 46.2113C125.216 45.9517 125.494 45.7478 125.809 45.5994C126.124 45.4511 126.514 45.3769 126.94 45.3769C127.367 45.3769 127.756 45.4511 128.071 45.5994C128.386 45.7478 128.665 45.9517 128.869 46.2113C129.073 46.4709 129.239 46.7676 129.351 47.1199C129.462 47.4722 129.499 47.8431 129.499 48.251C129.499 48.659 129.443 49.0299 129.351 49.3636C129.239 49.7159 129.091 50.0126 128.869 50.2722C128.646 50.5318 128.386 50.7358 128.071 50.8656C127.737 51.0139 127.367 51.0881 126.94 51.0881Z" fill="#231815"/>
<path d="M130.612 43.263C130.853 43.2259 131.112 43.2074 131.335 43.2074C131.576 43.2074 131.817 43.2259 132.058 43.263V48.7888C132.058 49.0113 132.077 49.1782 132.095 49.308C132.114 49.4378 132.151 49.5491 132.207 49.6233C132.262 49.6974 132.318 49.7531 132.41 49.7716C132.485 49.7901 132.596 49.8087 132.726 49.8087C132.781 49.8087 132.837 49.8087 132.911 49.7901C132.985 49.7901 133.041 49.7716 133.097 49.7531C133.171 50.0497 133.208 50.3279 133.208 50.606C133.208 50.6617 133.208 50.7173 133.208 50.7544C133.208 50.7915 133.208 50.8471 133.189 50.9027C133.078 50.9398 132.948 50.9583 132.8 50.9769C132.652 50.9954 132.503 50.9954 132.373 50.9954C131.836 50.9954 131.428 50.8471 131.094 50.5504C130.779 50.2537 130.612 49.7716 130.612 49.0855V43.263Z" fill="#231815"/>
<path d="M135.025 48.5848C134.636 48.4736 134.339 48.3067 134.116 48.0842C133.894 47.8616 133.801 47.5279 133.801 47.0828C133.801 46.5451 133.987 46.1372 134.357 45.8219C134.728 45.5252 135.248 45.3769 135.897 45.3769C136.156 45.3769 136.434 45.3954 136.694 45.4511C136.954 45.5067 137.213 45.5809 137.491 45.6736C137.473 45.859 137.436 46.0444 137.38 46.2484C137.324 46.4524 137.269 46.6193 137.176 46.7676C137.009 46.6934 136.824 46.6378 136.638 46.5822C136.434 46.5266 136.23 46.508 136.008 46.508C135.767 46.508 135.581 46.5451 135.47 46.6193C135.34 46.6934 135.266 46.8047 135.266 46.9716C135.266 47.1199 135.322 47.2312 135.414 47.3054C135.507 47.361 135.637 47.4352 135.804 47.4908L136.397 47.6762C136.583 47.7318 136.768 47.806 136.916 47.8802C137.065 47.9544 137.195 48.0656 137.306 48.1769C137.417 48.2881 137.51 48.4365 137.565 48.6219C137.621 48.7888 137.658 49.0113 137.658 49.2709C137.658 49.5305 137.603 49.7716 137.491 49.9941C137.38 50.2166 137.232 50.4206 137.028 50.5875C136.824 50.7543 136.583 50.8841 136.286 50.9769C135.989 51.0696 135.674 51.1252 135.303 51.1252C135.136 51.1252 134.988 51.1252 134.858 51.1067C134.728 51.0881 134.58 51.0696 134.469 51.051C134.339 51.0325 134.209 50.9954 134.098 50.9583C133.968 50.9212 133.838 50.8841 133.69 50.8285C133.708 50.6431 133.727 50.4391 133.783 50.2537C133.838 50.0683 133.894 49.8643 133.987 49.6974C134.209 49.7901 134.432 49.8643 134.636 49.9014C134.84 49.957 135.044 49.9755 135.266 49.9755C135.359 49.9755 135.47 49.957 135.581 49.957C135.693 49.9385 135.804 49.9014 135.897 49.8643C135.989 49.8272 136.063 49.753 136.138 49.6789C136.212 49.6047 136.23 49.512 136.23 49.3822C136.23 49.2153 136.175 49.0855 136.082 49.0113C135.989 48.9371 135.841 48.863 135.656 48.8259L135.025 48.5848Z" fill="#231815"/>
<path d="M140.31 48.1027L141.626 45.5067C141.886 45.4696 142.164 45.4511 142.442 45.4511C142.702 45.4511 142.961 45.4696 143.202 45.5067L141.849 48.0286L143.443 50.9583C143.165 50.9954 142.887 51.014 142.627 51.014C142.386 51.014 142.127 50.9954 141.867 50.9583L140.31 48.1027ZM138.641 43.263C138.882 43.2259 139.123 43.2074 139.364 43.2074C139.605 43.2074 139.846 43.2259 140.106 43.263V50.9583C139.865 50.9954 139.624 51.014 139.364 51.014C139.123 51.014 138.882 50.9954 138.641 50.9583V43.263Z" fill="#231815"/>
<path d="M144.333 44.5981C144.296 44.3571 144.278 44.116 144.278 43.8935C144.278 43.671 144.296 43.4299 144.333 43.1889C144.445 43.1703 144.574 43.1518 144.704 43.1332C144.834 43.1147 144.964 43.1147 145.075 43.1147C145.186 43.1147 145.316 43.1147 145.465 43.1332C145.594 43.1518 145.724 43.1518 145.854 43.1889C145.872 43.3001 145.891 43.4299 145.891 43.5412C145.891 43.6524 145.91 43.7822 145.91 43.8935C145.91 44.0047 145.91 44.116 145.891 44.2458C145.891 44.3756 145.872 44.4869 145.854 44.5981C145.743 44.6167 145.613 44.6352 145.483 44.6352C145.353 44.6352 145.223 44.6537 145.112 44.6537C145.001 44.6537 144.871 44.6537 144.741 44.6352C144.574 44.6352 144.445 44.6167 144.333 44.5981ZM144.537 46.6564H143.851C143.833 46.5637 143.814 46.471 143.796 46.3597C143.777 46.267 143.777 46.1557 143.777 46.063C143.777 45.8776 143.796 45.6922 143.833 45.5067H145.947V50.9583C145.706 50.9954 145.465 51.014 145.223 51.014C145.001 51.014 144.76 50.9954 144.519 50.9583V46.6564H144.537Z" fill="#231815"/>
<path d="M150.675 47.6577C150.657 47.3239 150.564 47.0457 150.397 46.8418C150.23 46.6378 149.989 46.5265 149.692 46.5265C149.34 46.5265 149.08 46.6193 148.914 46.8232C148.728 47.0272 148.635 47.3053 148.598 47.6577H150.675ZM148.58 48.6961C148.598 49.1225 148.747 49.4192 149.006 49.6232C149.266 49.8086 149.618 49.9014 150.045 49.9014C150.286 49.9014 150.508 49.8828 150.768 49.8272C151.009 49.7716 151.25 49.7159 151.472 49.6417C151.547 49.7901 151.621 49.957 151.676 50.1424C151.732 50.3464 151.769 50.5504 151.769 50.7729C151.231 50.9768 150.638 51.0881 149.952 51.0881C149.451 51.0881 149.025 51.0139 148.672 50.8841C148.32 50.7358 148.023 50.5504 147.801 50.2908C147.578 50.0497 147.412 49.753 147.3 49.4007C147.189 49.0484 147.133 48.6775 147.133 48.2696C147.133 47.8616 147.189 47.4908 147.3 47.1385C147.412 46.7861 147.578 46.4895 147.782 46.2298C148.005 45.9702 148.265 45.7663 148.58 45.6179C148.895 45.4696 149.266 45.3954 149.692 45.3954C150.063 45.3954 150.397 45.4696 150.675 45.5994C150.972 45.7292 151.213 45.9146 151.417 46.1557C151.621 46.3782 151.769 46.6563 151.88 46.9901C151.992 47.3053 152.029 47.6577 152.029 48.01C152.029 48.1398 152.029 48.2696 152.01 48.3994C151.992 48.5292 151.992 48.6404 151.973 48.7146H148.58V48.6961Z" fill="#231815"/>
</g>
<defs>
<clipPath id="clip0_149_3141">
<rect width="196.3" height="39" fill="white" transform="translate(0.849976 21.0713)"/>
</clipPath>
</defs>
</svg>
