<svg width="177" height="81" viewBox="0 0 177 81" fill="none" xmlns="http://www.w3.org/2000/svg">
<g clip-path="url(#clip0_149_3145)">
<path d="M75.1401 47.6994H74.4312C74.3338 47.8086 74.2361 47.9177 74.0888 48.0424C73.9433 48.1668 73.7721 48.2914 73.5767 48.4158C73.4055 48.5411 73.1851 48.6342 72.9415 48.7433C72.7208 48.8364 72.4762 48.9148 72.2076 48.9769V49.5228C72.5015 49.4759 72.769 49.4136 73.014 49.3199C73.2825 49.2107 73.5032 49.1016 73.7226 48.9931C73.9433 48.8686 74.1141 48.7433 74.2843 48.6342V55.3964H75.1401V47.6994ZM84.157 48.8994C84.157 48.6342 84.0845 48.4004 83.9134 48.2136C83.7169 48.0114 83.4736 47.8554 83.1795 47.7462C82.8624 47.6371 82.4948 47.5911 82.0561 47.5911C81.6403 47.5911 81.2737 47.6371 80.9556 47.7462C80.6628 47.8554 80.4181 48.0114 80.2227 48.2136C80.0515 48.4004 79.9542 48.6342 79.9542 48.8994V50.8781C79.9542 51.1585 80.0515 51.4076 80.2227 51.6104C80.4181 51.7974 80.6628 51.9525 80.9809 52.0617C81.2979 52.1709 81.6642 52.2177 82.0561 52.2177C82.325 52.2177 82.5696 52.187 82.7647 52.1249C82.984 52.0617 83.1552 51.9841 83.3025 51.8904V54.1649C83.3025 54.4148 83.2048 54.6322 82.984 54.773C82.7647 54.9136 82.4709 54.9913 82.0561 54.9913C81.8114 54.9913 81.616 54.9598 81.4209 54.8974C81.2245 54.8199 81.1028 54.7262 80.9809 54.6015C80.8821 54.4771 80.8339 54.3372 80.8339 54.1649V53.4955H79.9542V54.1649C79.9542 54.43 80.0515 54.6791 80.2227 54.8822C80.4181 55.0689 80.6628 55.2249 80.9809 55.3341C81.2979 55.4433 81.6642 55.5047 82.0561 55.5047C82.4709 55.5047 82.8371 55.4433 83.1552 55.3341C83.4736 55.2249 83.7169 55.0689 83.8881 54.8822C84.0845 54.6791 84.157 54.43 84.157 54.1649V48.8994ZM80.834 48.8994C80.834 48.7433 80.8821 48.6035 80.9809 48.4788C81.0786 48.3535 81.2245 48.2605 81.4209 48.1984C81.5921 48.1206 81.8115 48.0892 82.0561 48.0892C82.4466 48.0892 82.7394 48.1668 82.9601 48.3067C83.1795 48.4636 83.3025 48.6503 83.3025 48.8994V50.8781C83.3025 51.1424 83.2048 51.3607 82.984 51.5006C82.7647 51.6575 82.4709 51.7351 82.0561 51.7351C81.8115 51.7351 81.616 51.7035 81.4209 51.6259C81.2245 51.5629 81.1028 51.4699 80.9809 51.3453C80.8821 51.2054 80.834 51.0648 80.834 50.8781V48.8994ZM91.5861 49.4604C91.5861 49.725 91.5126 49.9902 91.3896 50.2392C91.268 50.5035 91.1208 50.7689 90.9257 51.018C90.7302 51.2677 90.5099 51.5322 90.2663 51.7819C90.0216 52.0465 89.777 52.3116 89.5576 52.5607C89.313 52.825 89.0937 53.1057 88.8972 53.3702C88.7018 53.6515 88.5306 53.9158 88.409 54.2117C88.286 54.4924 88.2378 54.7883 88.2135 55.0996V55.3964H92.4406V54.8822H89.0937C89.0937 54.617 89.191 54.3679 89.313 54.1028C89.436 53.8537 89.6058 53.5892 89.8009 53.3392C89.9977 53.0902 90.2171 52.825 90.4617 52.5759C90.6821 52.3269 90.9257 52.0778 91.1703 51.8281C91.3897 51.5629 91.6104 51.3145 91.8055 51.0648C92.0009 50.8003 92.1478 50.5506 92.2694 50.2861C92.3924 50.0209 92.4406 49.7718 92.4406 49.5066V48.9148C92.4406 48.6342 92.3432 48.4004 92.1721 48.1984C92.0009 48.0114 91.7573 47.8554 91.4392 47.7462C91.1208 47.6371 90.7555 47.5911 90.3397 47.5911C89.9239 47.5911 89.5577 47.6371 89.2406 47.7462C88.9225 47.8554 88.6779 48.0114 88.5067 48.1984C88.3113 48.4004 88.2378 48.6342 88.2135 48.9148V49.569H89.0937V48.9148C89.0937 48.7433 89.1418 48.6035 89.2406 48.4788C89.3622 48.3535 89.5081 48.2605 89.6793 48.1984C89.8747 48.1206 90.0951 48.0892 90.3397 48.0892C90.7302 48.0892 91.0487 48.1668 91.268 48.3067C91.4631 48.4636 91.5861 48.6658 91.5861 48.9148V49.4604ZM96.7172 54.181C96.7172 54.4462 96.8149 54.6791 96.9871 54.8822C97.1573 55.0844 97.4019 55.2249 97.72 55.3341C98.0371 55.4433 98.4033 55.5047 98.8191 55.5047C99.2339 55.5047 99.6015 55.4433 99.9186 55.3341C100.237 55.2249 100.48 55.0844 100.651 54.8822C100.824 54.6791 100.921 54.4462 100.921 54.181V52.1709C100.921 51.8904 100.824 51.6575 100.675 51.4544C100.506 51.2524 100.261 51.0955 99.9425 50.987C99.6254 50.8933 99.2592 50.831 98.8191 50.831C98.5506 50.831 98.3056 50.8626 98.0862 50.9402C97.8659 51.018 97.6947 51.1117 97.5731 51.2208V48.9309C97.5731 48.6658 97.6947 48.4636 97.9151 48.3228C98.1105 48.1668 98.4276 48.0892 98.8191 48.0892C99.0627 48.0892 99.2834 48.1206 99.4785 48.1984C99.6497 48.2605 99.7966 48.3535 99.8943 48.4788C99.992 48.6034 100.066 48.7586 100.066 48.9309V49.569H100.921V48.9309C100.921 48.6503 100.824 48.4158 100.651 48.2136C100.48 48.0114 100.237 47.8554 99.9186 47.7462C99.6015 47.6371 99.2339 47.5911 98.8191 47.5911C98.4033 47.5911 98.037 47.6371 97.72 47.7462C97.4019 47.8554 97.1573 48.0114 96.9871 48.2136C96.8149 48.4158 96.7172 48.6503 96.7172 48.9309L96.7172 54.181ZM100.066 54.181C100.066 54.43 99.9425 54.6322 99.7232 54.773C99.5038 54.9135 99.2096 54.9913 98.8191 54.9913C98.5745 54.9913 98.3541 54.9597 98.1587 54.8974C97.9889 54.8353 97.8416 54.7262 97.7443 54.617C97.6213 54.4924 97.5731 54.3525 97.5731 54.181V52.1709C97.5731 51.9057 97.6947 51.7035 97.9151 51.5629C98.1105 51.4076 98.4276 51.33 98.8191 51.33C99.0627 51.33 99.2834 51.3762 99.4785 51.4383C99.6497 51.5006 99.7966 51.5943 99.8943 51.7196C99.9921 51.8434 100.066 51.9996 100.066 52.1709V54.181Z" fill="#A50F20"/>
<path d="M110.206 52.2336H129.046V51.7662H110.206V52.2336Z" fill="#A50F20"/>
<path d="M46.5974 52.2336H65.4389V51.7662H46.5974V52.2336Z" fill="#A50F20"/>
<path d="M26.5596 25.8562H24.8V41.4677H26.5596V35.2665L28.6858 33.9583C29.297 34.3633 29.8345 34.7523 30.2745 35.1573C30.7142 35.5624 31.0566 35.983 31.3002 36.4665C31.5448 36.9339 31.6678 37.4636 31.6678 38.0708V41.4677H33.4021V38.0708C33.4021 37.5104 33.3287 36.9962 33.1575 36.544C32.9863 36.0769 32.767 35.6563 32.4489 35.282C32.1318 34.9083 31.7655 34.5501 31.3255 34.2228C30.8854 33.8798 30.3962 33.5684 29.8345 33.2411C30.5431 32.8206 31.1533 32.3687 31.6917 31.9013C32.2295 31.4492 32.644 30.9197 32.9381 30.3584C33.2552 29.7827 33.4021 29.1277 33.4021 28.3805V25.8561H31.6678V28.3805C31.6678 28.7849 31.6183 29.1593 31.5206 29.4868C31.4232 29.8289 31.252 30.1564 31.0074 30.4684C30.7867 30.7798 30.4696 31.0909 30.0781 31.4184C29.6875 31.7614 29.1993 32.1196 28.6366 32.5092C28.0506 32.8982 27.3659 33.3501 26.5596 33.8491L26.5596 25.8562ZM49.31 41.4677V28.3176C49.31 27.7726 49.1402 27.2897 48.7726 26.9001C48.406 26.4951 47.9177 26.1837 47.2826 25.9654C46.6464 25.747 45.8893 25.6379 45.0587 25.6379C44.2271 25.6379 43.4703 25.747 42.8351 25.9654C42.2 26.1837 41.7104 26.4951 41.3441 26.9001C40.9775 27.2897 40.8064 27.7726 40.7824 28.3176V41.4677H42.542V35.2513H47.5754V41.4677H49.31ZM42.542 28.3176C42.542 27.9755 42.6397 27.695 42.8591 27.446C43.0784 27.196 43.3487 27.0093 43.7392 26.8685C44.1054 26.7287 44.5455 26.6663 45.0587 26.6663C45.8397 26.6663 46.451 26.8226 46.891 27.1185C47.3307 27.3983 47.5754 27.8033 47.5754 28.3176V34.2228H42.542V28.3176ZM71.0346 41.4677V28.1153C71.0346 27.6011 70.8391 27.1492 70.4968 26.791C70.1305 26.4173 69.6666 26.1368 69.0553 25.9338C68.4683 25.747 67.8089 25.6378 67.1003 25.6378C66.6845 25.6378 66.294 25.6847 65.8782 25.7625C65.4634 25.8562 65.0972 25.9808 64.7548 26.1368C64.4125 26.2928 64.1436 26.4635 63.9485 26.6663C63.752 26.4482 63.4831 26.246 63.1661 26.1052C62.8237 25.9501 62.4575 25.8409 62.0669 25.7625C61.6511 25.6847 61.2353 25.6378 60.8206 25.6378C60.0867 25.6378 59.4273 25.747 58.8416 25.9338C58.2294 26.1368 57.7651 26.4173 57.3988 26.791C57.0322 27.1492 56.861 27.6011 56.8371 28.1153V41.4677H58.5967V28.1153C58.5967 27.8194 58.6944 27.5543 58.9137 27.3359C59.1092 27.1185 59.3777 26.9625 59.6961 26.8378C60.0385 26.7286 60.429 26.6663 60.8206 26.6663C61.2353 26.6663 61.6269 26.7286 61.9439 26.8378C62.2863 26.9625 62.5552 27.1185 62.7503 27.3359C62.971 27.5543 63.0687 27.8194 63.0687 28.1153V41.4677H64.8272V28.1153C64.8272 27.8194 64.9246 27.5543 65.1211 27.3359C65.3404 27.1185 65.6093 26.9625 65.9516 26.8378C66.294 26.7286 66.6845 26.6663 67.1003 26.6663C67.4908 26.6663 67.8824 26.7286 68.1995 26.8378C68.5418 26.9625 68.7864 27.1185 69.0058 27.3359C69.177 27.5543 69.2747 27.8194 69.2999 28.1153V41.4677H71.0346ZM80.443 25.8562H78.7073V41.4677H80.443V25.8562ZM96.6433 41.4677V28.3176C96.6433 27.7726 96.4735 27.2897 96.1069 26.9001C95.7392 26.4951 95.2513 26.1837 94.6162 25.9654C93.9807 25.747 93.2225 25.6379 92.3923 25.6379C91.5378 25.6379 90.8036 25.747 90.1684 25.9654C89.5333 26.1837 89.0197 26.4951 88.6774 26.9001C88.3111 27.2897 88.1157 27.7726 88.1157 28.3176V41.4677H89.8756V28.3176C89.8756 27.8033 90.095 27.3983 90.5589 27.1185C90.999 26.8226 91.6099 26.6663 92.3923 26.6663C93.1744 26.6663 93.7856 26.8226 94.2243 27.1185C94.6654 27.3983 94.8847 27.8033 94.909 28.3176V41.4677H96.6433ZM106.052 25.8562H104.316V41.4677H106.052V25.8562ZM122.254 41.4677V28.3176C122.254 27.7726 122.083 27.2897 121.716 26.9001C121.35 26.4951 120.86 26.1837 120.227 25.9654C119.59 25.747 118.833 25.6379 118.002 25.6379C117.171 25.6379 116.414 25.747 115.778 25.9654C115.143 26.1837 114.654 26.4951 114.288 26.9001C113.92 27.2897 113.725 27.7726 113.725 28.3176V41.4677H115.485V35.2513H120.518V41.4677H122.254ZM115.485 28.3176C115.485 27.9755 115.582 27.695 115.803 27.446C115.998 27.196 116.291 27.0093 116.682 26.8685C117.049 26.7287 117.488 26.6663 118.002 26.6663C118.784 26.6663 119.395 26.8226 119.835 27.1185C120.275 27.3983 120.494 27.8033 120.518 28.3176V34.2228H115.485V28.3176ZM138.309 41.4677V35.8278C138.309 35.5003 138.235 35.1889 138.089 34.9083C137.942 34.6124 137.747 34.3633 137.478 34.1605C137.209 33.9421 136.891 33.7868 136.525 33.6624C136.891 33.5523 137.209 33.3972 137.478 33.1788C137.747 32.9612 137.942 32.696 138.089 32.4001C138.235 32.1196 138.309 31.7921 138.309 31.4653V28.5359C138.309 27.9909 138.138 27.5235 137.795 27.1184C137.429 26.7286 136.941 26.4172 136.304 26.1991C135.67 25.9808 134.912 25.8716 134.056 25.8562H129.78V41.4676H131.54V34.1757H134.056C134.838 34.1911 135.45 34.3317 135.889 34.6278C136.329 34.9237 136.55 35.3133 136.574 35.8278V41.4676L138.309 41.4677ZM131.54 33.1472V26.8846H134.056C134.838 26.8846 135.45 27.0407 135.889 27.3359C136.329 27.6318 136.55 28.0216 136.574 28.5359V31.4653C136.574 31.7921 136.451 32.088 136.256 32.3378C136.061 32.6023 135.768 32.789 135.4 32.9298C135.035 33.0849 134.57 33.1472 134.056 33.1472L131.54 33.1472ZM145.151 26.9154H151.04C150.991 27.695 150.869 28.4115 150.626 29.0656C150.405 29.7042 150.111 30.3124 149.746 30.8726C149.402 31.4339 149.012 31.9789 148.596 32.5247C148.205 33.0542 147.79 33.5992 147.375 34.1605C146.959 34.737 146.593 35.3443 146.275 35.9829C145.933 36.6379 145.663 37.3696 145.444 38.1484C145.249 38.9594 145.151 39.8471 145.151 40.8442C145.151 41.0155 145.175 41.1556 145.2 41.2809C145.225 41.4053 145.249 41.4677 145.249 41.4677H152.8V40.4237H146.862C146.911 39.4889 147.033 38.6472 147.277 37.8994C147.497 37.1513 147.79 36.4665 148.157 35.8431C148.498 35.2042 148.89 34.6124 149.304 34.0513C149.721 33.5063 150.136 32.945 150.552 32.4001C150.967 31.8542 151.334 31.2931 151.676 30.702C151.994 30.1093 152.286 29.4707 152.482 28.7849C152.677 28.0992 152.8 27.3359 152.8 26.4796C152.8 26.3083 152.776 26.1521 152.75 26.0429C152.727 25.9185 152.702 25.8716 152.702 25.8562H145.151L145.151 26.9154Z" fill="#A50F20"/>
</g>
<defs>
<clipPath id="clip0_149_3145">
<rect width="128" height="30" fill="white" transform="translate(24.8 25.5713)"/>
</clipPath>
</defs>
</svg>
