<svg width="176" height="81" viewBox="0 0 176 81" fill="none" xmlns="http://www.w3.org/2000/svg">
<g clip-path="url(#clip0_149_3205)">
<path fill-rule="evenodd" clip-rule="evenodd" d="M53.3443 26.5712C61.2448 26.5712 67.6885 33.015 67.6885 40.9155C67.6885 48.8161 61.2448 55.2598 53.3443 55.2598C45.4437 55.2598 39 48.8161 39 40.9155C39 33.015 45.4437 26.5712 53.3443 26.5712Z" fill="#283F62"/>
<path fill-rule="evenodd" clip-rule="evenodd" d="M64.8553 44.2551C63.3909 49.2169 58.8058 52.8544 53.401 52.8544C46.8225 52.8544 41.457 47.4659 41.457 40.8591C41.457 36.1432 44.1911 32.0487 48.1483 30.0908C46.9896 32.8342 51.2235 36.1086 56.8374 36.299C62.1895 36.4806 65.238 39.7452 64.8553 44.2551ZM62.3288 50.6759C59.9707 52.8411 56.835 54.1651 53.401 54.1651C46.1037 54.1651 40.152 48.1878 40.152 40.8591C40.152 34.3747 44.8116 28.9492 50.9398 27.7849C51.6153 27.5024 52.4161 27.2514 53.3523 27.0408C45.7948 27.0673 39.6391 33.2386 39.6391 40.8021C39.6391 48.3819 45.8212 54.564 53.401 54.564C56.3376 54.564 59.0641 53.6355 61.3029 52.0579C61.6749 51.5946 62.0171 51.1335 62.3288 50.6759Z" fill="#0994DC"/>
<path fill-rule="evenodd" clip-rule="evenodd" d="M62.3288 50.6759C59.9708 52.8412 56.835 54.1652 53.401 54.1652C46.1037 54.1652 40.152 48.1878 40.152 40.8591C40.152 34.3748 44.8116 28.9492 50.9398 27.7849C49.4013 28.4283 48.5106 29.2334 48.1483 30.0909C44.1911 32.0488 41.457 36.1433 41.457 40.8591C41.457 47.4659 46.8225 52.8545 53.401 52.8545C58.8058 52.8545 63.3909 49.2169 64.8554 44.2551C64.6893 46.2111 63.8778 48.4013 62.3288 50.6759ZM44.6789 39.8225H46.0887V46.5972H44.6789V39.8225ZM60.7182 39.8225H62.128V46.5972H60.7182V39.8225ZM46.233 41.2886H60.5642V45.3144H46.233V41.2886ZM51.0521 40.8591C51.0521 39.5597 52.1072 38.5001 53.401 38.5001C54.6948 38.5001 55.75 39.5597 55.75 40.8591L57.6208 40.8591C57.6208 38.7654 56.0956 37.0184 54.1041 36.6806V35.95C53.6131 35.8389 53.142 35.7041 52.6942 35.5493V36.6812C50.7045 37.0205 49.1812 38.7667 49.1812 40.8591" fill="#E9E9E9"/>
<path fill-rule="evenodd" clip-rule="evenodd" d="M53.401 27.5531C60.6983 27.5531 66.65 33.5304 66.65 40.8591C66.65 44.7391 64.9816 48.24 62.3287 50.6759C62.0171 51.1336 61.6749 51.5947 61.3028 52.0579C64.8427 49.5635 67.1629 45.4453 67.1629 40.8021C67.1629 33.2223 60.9808 27.0402 53.401 27.0402C53.3847 27.0402 53.3685 27.0408 53.3523 27.0408C52.4161 27.2514 51.6153 27.5025 50.9398 27.7849C51.7377 27.6333 52.5603 27.5531 53.401 27.5531ZM53.401 28.8637C59.9795 28.8637 65.345 34.2523 65.345 40.8591C65.345 42.0379 65.1733 43.1776 64.8553 44.2551C65.238 39.7452 62.1895 36.4806 56.8374 36.2991C51.2235 36.1086 46.9896 32.8342 48.1482 30.0909C49.735 29.3058 51.5181 28.8637 53.401 28.8637Z" fill="#4FC6F0"/>
<path fill-rule="evenodd" clip-rule="evenodd" d="M54.104 35.95V32.7035L55.0947 33.1358L53.3985 30.376L51.7247 33.1358L52.6942 32.7106V35.5493C53.142 35.7041 53.6131 35.8389 54.104 35.95ZM53.401 27.5531C60.6983 27.5531 66.65 33.5304 66.65 40.8591C66.65 44.7391 64.9816 48.2399 62.3287 50.6759C63.8777 48.4013 64.6892 46.2111 64.8553 44.2551C65.1733 43.1776 65.345 42.0379 65.345 40.8591C65.345 34.2523 59.9795 28.8637 53.401 28.8637C51.5181 28.8637 49.735 29.3058 48.1482 30.0909C48.5106 29.2334 49.4013 28.4283 50.9398 27.7849C51.7377 27.6333 52.5602 27.5531 53.401 27.5531Z" fill="white"/>
<path fill-rule="evenodd" clip-rule="evenodd" d="M53.3514 26.808C45.6393 26.8349 39.3577 33.1106 39.3577 40.8021H39.6392C39.6392 33.2386 45.7948 27.0673 53.3523 27.0408C53.3686 27.0408 53.3848 27.0402 53.4011 27.0402C60.9809 27.0402 67.163 33.2223 67.163 40.8021H67.4445C67.4445 33.0941 61.1359 26.8074 53.4011 26.8074C53.3844 26.8074 53.368 26.8079 53.3514 26.808Z" fill="#E6F7FD"/>
<path fill-rule="evenodd" clip-rule="evenodd" d="M39.3577 40.8021C39.3577 48.5101 45.6662 54.7969 53.4011 54.7969C56.3977 54.7969 59.1799 53.8527 61.4645 52.2483C65.0768 49.7117 67.4445 45.5238 67.4445 40.8021C67.2507 38.2826 67.418 40.8976 67.163 40.8021C67.163 45.4453 64.8428 49.5634 61.3029 52.0579C59.0641 53.6355 56.3377 54.564 53.4011 54.564C45.8213 54.564 39.6392 48.3819 39.6392 40.8021C39.3796 41.3209 39.5017 38.7291 39.3577 40.8021Z" fill="#295588"/>
<path fill-rule="evenodd" clip-rule="evenodd" d="M53.3518 54.672C45.7047 54.6453 39.4761 48.4253 39.4761 40.8021H39.6392C39.6392 48.3819 45.8213 54.564 53.4011 54.564C56.3377 54.564 59.0641 53.6356 61.3029 52.0579C64.8428 49.5635 67.163 45.4453 67.163 40.8021H67.3261C67.3261 48.4417 61.0707 54.6726 53.4011 54.6726C53.3846 54.6726 53.3683 54.672 53.3518 54.672Z" fill="#BFEAFB"/>
<path fill-rule="evenodd" clip-rule="evenodd" d="M39.4761 40.8021C39.4761 33.1625 45.7314 26.9316 53.4011 26.9316C56.3725 26.9316 59.1312 27.8674 61.3966 29.4575C64.9784 31.9716 67.3261 36.1223 67.3261 40.8021C67.251 41.7885 67.1985 41.9734 67.163 40.8021C67.163 33.2223 60.9809 27.0402 53.4011 27.0402C53.3848 27.0402 53.3686 27.0407 53.3523 27.0408C45.7948 27.0673 39.6392 33.2386 39.6392 40.8021C39.5985 42.038 39.5442 41.7267 39.4761 40.8021Z" fill="#295588"/>
<path d="M95.446 51.3439C95.446 51.6786 95.4163 51.9836 95.3569 52.259C95.2975 52.5289 95.2057 52.761 95.0816 52.9554C94.9628 53.1497 94.8089 53.3009 94.62 53.4088C94.4365 53.5168 94.2178 53.5708 93.9641 53.5708C93.7104 53.5708 93.489 53.5168 93.3001 53.4088C93.1111 53.3009 92.9546 53.1497 92.8304 52.9554C92.7116 52.761 92.6226 52.5289 92.5632 52.259C92.5038 51.9836 92.4741 51.6786 92.4741 51.3439C92.4741 51.0146 92.5038 50.7123 92.5632 50.437C92.6226 50.1617 92.7116 49.9268 92.8304 49.7325C92.9546 49.5327 93.1111 49.3789 93.3001 49.2709C93.489 49.163 93.7104 49.109 93.9641 49.109C94.2178 49.109 94.4365 49.163 94.62 49.2709C94.8089 49.3789 94.9628 49.5327 95.0816 49.7325C95.2057 49.9268 95.2975 50.1617 95.3569 50.437C95.4163 50.7123 95.446 51.0146 95.446 51.3439ZM94.7172 51.3439C94.7172 51.1064 94.7037 50.8905 94.6767 50.6961C94.6497 50.4964 94.6065 50.3263 94.5471 50.186C94.4877 50.0402 94.4095 49.9295 94.3123 49.854C94.2151 49.773 94.0991 49.7325 93.9641 49.7325C93.8237 49.7325 93.705 49.773 93.6078 49.854C93.516 49.9295 93.4377 50.0402 93.373 50.186C93.3136 50.3263 93.2704 50.4964 93.2434 50.6961C93.2164 50.8905 93.2029 51.1064 93.2029 51.3439C93.2029 51.5815 93.2164 51.8001 93.2434 51.9998C93.2704 52.1942 93.3136 52.3615 93.373 52.5019C93.4377 52.6423 93.516 52.7529 93.6078 52.8339C93.705 52.9095 93.8237 52.9473 93.9641 52.9473C94.0991 52.9473 94.2151 52.9095 94.3123 52.8339C94.4095 52.7529 94.4877 52.6423 94.5471 52.5019C94.6065 52.3615 94.6497 52.1942 94.6767 51.9998C94.7037 51.8001 94.7172 51.5815 94.7172 51.3439ZM89.2005 53.4655H88.496C88.3286 52.9095 88.1694 52.2698 88.0182 51.5464C87.8725 50.823 87.7375 50.0456 87.6134 49.2142H88.3017C88.3232 49.4464 88.3556 49.719 88.3988 50.0321C88.442 50.3398 88.4879 50.6583 88.5365 50.9876C88.5905 51.3115 88.6445 51.6273 88.6984 51.9351C88.7524 52.2374 88.8037 52.4965 88.8523 52.7124C88.9009 52.4965 88.9549 52.232 89.0142 51.9189C89.079 51.6058 89.1411 51.2845 89.2005 50.9552C89.2653 50.6259 89.3247 50.3074 89.3786 49.9997C89.4326 49.6866 89.4758 49.4248 89.5082 49.2142H90.1641C90.1857 49.4248 90.2181 49.6839 90.2613 49.9916C90.3099 50.2993 90.3585 50.6205 90.4071 50.9552C90.461 51.2845 90.515 51.6058 90.569 51.9189C90.623 52.232 90.6716 52.4965 90.7148 52.7124C90.7634 52.4965 90.8146 52.2347 90.8686 51.927C90.9226 51.6193 90.9739 51.3034 91.0225 50.9795C91.0765 50.6556 91.125 50.3398 91.1682 50.0321C91.2114 49.719 91.2438 49.4464 91.2654 49.2142H91.9294C91.8053 50.0456 91.6676 50.823 91.5164 51.5464C91.3707 52.2698 91.2141 52.9095 91.0468 53.4655H90.3666C90.3234 53.2982 90.2748 53.0849 90.2208 52.8258C90.1722 52.5613 90.1209 52.2806 90.067 51.9837C90.0184 51.6867 89.9725 51.3898 89.9293 51.0929C89.8861 50.7906 89.8483 50.5153 89.8159 50.2669C89.7835 50.5153 89.7403 50.7906 89.6864 51.0929C89.6324 51.3898 89.5757 51.6867 89.5163 51.9837C89.4569 52.2806 89.3975 52.5613 89.3382 52.8258C89.2842 53.0849 89.2383 53.2982 89.2005 53.4655ZM85.0339 51.5464C85.0393 51.7515 85.0582 51.9405 85.0905 52.1132C85.1229 52.2806 85.1742 52.429 85.2444 52.5586C85.32 52.6827 85.4172 52.7799 85.5359 52.8501C85.6601 52.9203 85.8166 52.9554 86.0056 52.9554C86.1621 52.9554 86.3052 52.9338 86.4348 52.8906C86.5697 52.842 86.6669 52.8015 86.7263 52.7691L86.8558 53.3279C86.7857 53.3765 86.6669 53.4277 86.4995 53.4817C86.3376 53.5411 86.1432 53.5708 85.9165 53.5708C85.6196 53.5708 85.3686 53.5168 85.1634 53.4088C84.9637 53.3009 84.799 53.1497 84.6695 52.9554C84.5453 52.761 84.4562 52.5289 84.4022 52.259C84.3483 51.989 84.3213 51.6921 84.3213 51.3682C84.3213 50.5855 84.4508 50.0132 84.71 49.6515C84.9691 49.2898 85.3119 49.109 85.7384 49.109C86.2188 49.109 86.5589 49.2898 86.7587 49.6515C86.9584 50.0132 87.0583 50.5207 87.0583 51.1739C87.0583 51.2333 87.0583 51.2953 87.0583 51.3601C87.0583 51.4195 87.0556 51.4816 87.0502 51.5464H85.0339ZM85.7384 49.7001C85.5062 49.7001 85.3362 49.8162 85.2282 50.0483C85.1256 50.2804 85.0636 50.5908 85.042 50.9795H86.3295C86.3295 50.5854 86.289 50.275 86.208 50.0483C86.1271 49.8162 85.9705 49.7001 85.7384 49.7001ZM83.2913 53.4655H82.5949V49.2142H83.2913V53.4655ZM82.9431 48.4612C82.819 48.4612 82.711 48.4207 82.6192 48.3397C82.5329 48.2533 82.4897 48.1399 82.4897 47.9996C82.4897 47.8592 82.5329 47.7486 82.6192 47.6676C82.711 47.5812 82.819 47.538 82.9431 47.538C83.0673 47.538 83.1726 47.5812 83.259 47.6676C83.3507 47.7486 83.3966 47.8592 83.3966 47.9996C83.3966 48.1399 83.3507 48.2533 83.259 48.3397C83.1726 48.4207 83.0673 48.4612 82.9431 48.4612ZM79.5033 52.8258C79.6598 52.9122 79.8272 52.9554 80.0053 52.9554C80.1403 52.9554 80.259 52.9284 80.3616 52.8744C80.4642 52.8204 80.5506 52.7313 80.6207 52.6072C80.6963 52.483 80.753 52.3184 80.7908 52.1132C80.8286 51.9081 80.8475 51.6543 80.8475 51.352C80.8475 50.769 80.7719 50.3533 80.6207 50.105C80.475 49.8513 80.2402 49.7244 79.9162 49.7244C79.8569 49.7244 79.7921 49.7298 79.7219 49.7406C79.6517 49.746 79.5788 49.7595 79.5033 49.7811V52.8258ZM79.5033 54.9636H78.8069V49.3276C78.958 49.2628 79.1281 49.2115 79.317 49.1738C79.5114 49.1306 79.7084 49.109 79.9082 49.109C80.2051 49.109 80.4588 49.1602 80.6693 49.2628C80.8853 49.3654 81.058 49.5139 81.1876 49.7082C81.3225 49.8971 81.4197 50.132 81.4791 50.4127C81.5439 50.688 81.5763 51.0038 81.5763 51.3601C81.5763 52.0781 81.4602 52.6261 81.2281 53.004C81.0013 53.3818 80.6288 53.5708 80.1106 53.5708C79.9864 53.5708 79.8758 53.5573 79.7786 53.5303C79.6814 53.5087 79.5896 53.4763 79.5033 53.4331V54.9636ZM77.7955 51.3439C77.7955 51.6786 77.7659 51.9836 77.7065 52.259C77.6471 52.5289 77.5553 52.761 77.4311 52.9554C77.3124 53.1497 77.1585 53.3009 76.9696 53.4088C76.786 53.5168 76.5674 53.5708 76.3137 53.5708C76.0599 53.5708 75.8386 53.5168 75.6497 53.4088C75.4607 53.3009 75.3042 53.1497 75.18 52.9554C75.0612 52.761 74.9721 52.5289 74.9128 52.259C74.8534 51.9836 74.8237 51.6786 74.8237 51.3439C74.8237 51.0146 74.8534 50.7123 74.9128 50.437C74.9721 50.1617 75.0612 49.9268 75.18 49.7325C75.3042 49.5327 75.4607 49.3789 75.6497 49.2709C75.8386 49.163 76.0599 49.109 76.3137 49.109C76.5674 49.109 76.786 49.163 76.9696 49.2709C77.1585 49.3789 77.3124 49.5327 77.4311 49.7325C77.5553 49.9268 77.6471 50.1617 77.7065 50.437C77.7659 50.7123 77.7955 51.0146 77.7955 51.3439ZM77.0668 51.3439C77.0668 51.1064 77.0533 50.8905 77.0263 50.6961C76.9993 50.4964 76.9561 50.3263 76.8967 50.186C76.8373 50.0402 76.759 49.9295 76.6619 49.854C76.5647 49.773 76.4486 49.7325 76.3137 49.7325C76.1733 49.7325 76.0545 49.773 75.9574 49.854C75.8656 49.9295 75.7873 50.0402 75.7225 50.186C75.6632 50.3263 75.62 50.4964 75.593 50.6961C75.566 50.8905 75.5525 51.1064 75.5525 51.3439C75.5525 51.5815 75.566 51.8001 75.593 51.9998C75.62 52.1942 75.6632 52.3615 75.7225 52.5019C75.7873 52.6423 75.8656 52.7529 75.9574 52.8339C76.0545 52.9095 76.1733 52.9473 76.3137 52.9473C76.4486 52.9473 76.5647 52.9095 76.6619 52.8339C76.759 52.7529 76.8373 52.6423 76.8967 52.5019C76.9561 52.3615 76.9993 52.1942 77.0263 51.9998C77.0533 51.8001 77.0668 51.5815 77.0668 51.3439ZM73.9882 50.6556C73.9882 51.1793 73.9316 51.6247 73.8182 51.9917C73.7102 52.3534 73.551 52.6477 73.3404 52.8744C73.1353 53.1011 72.8843 53.2658 72.5873 53.3683C72.2958 53.4709 71.9692 53.5222 71.6075 53.5222C71.2404 53.5222 70.8517 53.4736 70.4415 53.3764V47.9348C70.6466 47.8916 70.8463 47.8565 71.0407 47.8295C71.235 47.8025 71.4213 47.789 71.5994 47.789C71.9665 47.789 72.2958 47.8403 72.5873 47.9429C72.8843 48.0455 73.1353 48.2101 73.3404 48.4369C73.551 48.6636 73.7102 48.9605 73.8182 49.3276C73.9316 49.6893 73.9882 50.132 73.9882 50.6556ZM73.2109 50.6556C73.2109 50.2561 73.1812 49.916 73.1218 49.6353C73.0624 49.3546 72.9706 49.1252 72.8465 48.947C72.7223 48.7689 72.5576 48.6393 72.3525 48.5583C72.1528 48.4774 71.9125 48.4369 71.6318 48.4369C71.5562 48.4369 71.4807 48.4396 71.4051 48.445C71.3295 48.4504 71.2512 48.4585 71.1702 48.4692V52.842C71.2512 52.8528 71.3295 52.8609 71.4051 52.8663C71.4807 52.8717 71.5535 52.8744 71.6237 52.8744C71.9098 52.8744 72.1528 52.8339 72.3525 52.7529C72.5522 52.6719 72.7142 52.5451 72.8384 52.3723C72.9679 52.1942 73.0624 51.9648 73.1218 51.684C73.1812 51.4033 73.2109 51.0605 73.2109 50.6556ZM137.431 42.9359C137.431 43.0601 137.385 43.1707 137.293 43.2679C137.207 43.3651 137.091 43.4137 136.945 43.4137C136.799 43.4137 136.683 43.3651 136.597 43.2679C136.511 43.1707 136.467 43.0601 136.467 42.9359C136.467 42.8064 136.511 42.693 136.597 42.5958C136.683 42.4986 136.799 42.4501 136.945 42.4501C137.091 42.4501 137.207 42.4986 137.293 42.5958C137.385 42.693 137.431 42.8064 137.431 42.9359ZM135.618 41.1868C135.618 41.5215 135.588 41.8265 135.529 42.1019C135.47 42.3718 135.378 42.6039 135.254 42.7983C135.135 42.9926 134.981 43.1438 134.792 43.2517C134.609 43.3597 134.39 43.4137 134.136 43.4137C133.882 43.4137 133.661 43.3597 133.472 43.2517C133.283 43.1438 133.127 42.9926 133.003 42.7983C132.884 42.6039 132.795 42.3718 132.735 42.1019C132.676 41.8265 132.646 41.5215 132.646 41.1868C132.646 40.8575 132.676 40.5552 132.735 40.2799C132.795 40.0046 132.884 39.7697 133.003 39.5754C133.127 39.3756 133.283 39.2218 133.472 39.1138C133.661 39.0058 133.882 38.9519 134.136 38.9519C134.39 38.9519 134.609 39.0058 134.792 39.1138C134.981 39.2218 135.135 39.3756 135.254 39.5754C135.378 39.7697 135.47 40.0046 135.529 40.2799C135.588 40.5552 135.618 40.8575 135.618 41.1868ZM134.889 41.1868C134.889 40.9493 134.876 40.7333 134.849 40.539C134.822 40.3393 134.779 40.1692 134.719 40.0288C134.66 39.8831 134.582 39.7724 134.484 39.6968C134.387 39.6159 134.271 39.5754 134.136 39.5754C133.996 39.5754 133.877 39.6159 133.78 39.6968C133.688 39.7724 133.61 39.8831 133.545 40.0288C133.486 40.1692 133.443 40.3393 133.416 40.539C133.389 40.7333 133.375 40.9493 133.375 41.1868C133.375 41.4243 133.389 41.643 133.416 41.8427C133.443 42.0371 133.486 42.2044 133.545 42.3448C133.61 42.4851 133.688 42.5958 133.78 42.6768C133.877 42.7524 133.996 42.7902 134.136 42.7902C134.271 42.7902 134.387 42.7524 134.484 42.6768C134.582 42.5958 134.66 42.4851 134.719 42.3448C134.779 42.2044 134.822 42.0371 134.849 41.8427C134.876 41.643 134.889 41.4243 134.889 41.1868ZM131.801 42.9359C131.801 43.0601 131.755 43.1707 131.663 43.2679C131.577 43.3651 131.461 43.4137 131.315 43.4137C131.169 43.4137 131.053 43.3651 130.967 43.2679C130.88 43.1707 130.837 43.0601 130.837 42.9359C130.837 42.8064 130.88 42.693 130.967 42.5958C131.053 42.4986 131.169 42.4501 131.315 42.4501C131.461 42.4501 131.577 42.4986 131.663 42.5958C131.755 42.693 131.801 42.8064 131.801 42.9359ZM129.988 41.1868C129.988 41.5215 129.958 41.8265 129.899 42.1019C129.839 42.3718 129.747 42.6039 129.623 42.7983C129.504 42.9926 129.351 43.1438 129.162 43.2517C128.978 43.3597 128.76 43.4137 128.506 43.4137C128.252 43.4137 128.031 43.3597 127.842 43.2517C127.653 43.1438 127.496 42.9926 127.372 42.7983C127.253 42.6039 127.164 42.3718 127.105 42.1019C127.046 41.8265 127.016 41.5215 127.016 41.1868C127.016 40.8575 127.046 40.5552 127.105 40.2799C127.164 40.0046 127.253 39.7697 127.372 39.5754C127.496 39.3756 127.653 39.2218 127.842 39.1138C128.031 39.0058 128.252 38.9519 128.506 38.9519C128.76 38.9519 128.978 39.0058 129.162 39.1138C129.351 39.2218 129.504 39.3756 129.623 39.5754C129.747 39.7697 129.839 40.0046 129.899 40.2799C129.958 40.5552 129.988 40.8575 129.988 41.1868ZM129.259 41.1868C129.259 40.9493 129.245 40.7333 129.218 40.539C129.191 40.3393 129.148 40.1692 129.089 40.0288C129.029 39.8831 128.951 39.7724 128.854 39.6968C128.757 39.6159 128.641 39.5754 128.506 39.5754C128.365 39.5754 128.247 39.6159 128.149 39.6968C128.058 39.7724 127.979 39.8831 127.915 40.0288C127.855 40.1692 127.812 40.3393 127.785 40.539C127.758 40.7333 127.745 40.9493 127.745 41.1868C127.745 41.4243 127.758 41.643 127.785 41.8427C127.812 42.0371 127.855 42.2044 127.915 42.3448C127.979 42.4851 128.058 42.5958 128.149 42.6768C128.247 42.7524 128.365 42.7902 128.506 42.7902C128.641 42.7902 128.757 42.7524 128.854 42.6768C128.951 42.5958 129.029 42.4851 129.089 42.3448C129.148 42.2044 129.191 42.0371 129.218 41.8427C129.245 41.643 129.259 41.4243 129.259 41.1868ZM124.75 39.5754C124.631 39.7751 124.496 40.0127 124.345 40.288C124.194 40.5633 124.043 40.8467 123.892 41.1382C123.746 41.4244 123.606 41.7078 123.471 41.9885C123.341 42.2638 123.236 42.504 123.155 42.7092H124.807V43.3084H122.434V42.8064C122.521 42.5688 122.631 42.3043 122.766 42.0128C122.901 41.7213 123.042 41.4298 123.187 41.1382C123.339 40.8467 123.484 40.5714 123.625 40.3123C123.77 40.0477 123.895 39.8291 123.997 39.6564H122.531V39.0571H124.75V39.5754ZM120.129 42.9359C120.129 43.0601 120.083 43.1707 119.991 43.2679C119.905 43.3651 119.788 43.4137 119.643 43.4137C119.497 43.4137 119.381 43.3651 119.295 43.2679C119.208 43.1707 119.165 43.0601 119.165 42.9359C119.165 42.8064 119.208 42.693 119.295 42.5958C119.381 42.4986 119.497 42.4501 119.643 42.4501C119.788 42.4501 119.905 42.4986 119.991 42.5958C120.083 42.693 120.129 42.8064 120.129 42.9359ZM116.243 42.6687C116.4 42.7551 116.567 42.7983 116.745 42.7983C116.88 42.7983 116.999 42.7713 117.102 42.7173C117.204 42.6633 117.291 42.5742 117.361 42.4501C117.436 42.3259 117.493 42.1612 117.531 41.9561C117.569 41.751 117.588 41.4972 117.588 41.1949C117.588 40.6119 117.512 40.1962 117.361 39.9479C117.215 39.6941 116.98 39.5673 116.656 39.5673C116.597 39.5673 116.532 39.5727 116.462 39.5835C116.392 39.5889 116.319 39.6024 116.243 39.624V42.6687ZM116.243 44.8065H115.547V39.1705C115.698 39.1057 115.868 39.0544 116.057 39.0166C116.251 38.9735 116.448 38.9519 116.648 38.9519C116.945 38.9519 117.199 39.0031 117.409 39.1057C117.625 39.2083 117.798 39.3567 117.928 39.5511C118.063 39.74 118.16 39.9749 118.219 40.2556C118.284 40.5309 118.316 40.8467 118.316 41.203C118.316 41.921 118.2 42.4689 117.968 42.8468C117.741 43.2247 117.369 43.4137 116.851 43.4137C116.727 43.4137 116.616 43.4002 116.519 43.3732C116.422 43.3516 116.33 43.3192 116.243 43.276V44.8065ZM113.058 42.8064C113.349 42.8064 113.573 42.7254 113.73 42.5634C113.892 42.4015 113.973 42.1828 113.973 41.9075C113.973 41.7618 113.949 41.6322 113.9 41.5188C113.851 41.4055 113.787 41.3029 113.706 41.2111C113.63 41.1193 113.541 41.0357 113.438 40.9601C113.336 40.8845 113.231 40.8089 113.123 40.7333C112.998 40.647 112.869 40.5552 112.734 40.458C112.599 40.3608 112.475 40.2475 112.361 40.1179C112.253 39.9884 112.164 39.8372 112.094 39.6645C112.024 39.4917 111.989 39.2893 111.989 39.0571C111.989 38.8304 112.027 38.6253 112.102 38.4417C112.183 38.2582 112.291 38.1016 112.426 37.972C112.567 37.8425 112.731 37.7426 112.92 37.6724C113.114 37.6022 113.322 37.5672 113.544 37.5672C113.76 37.5672 113.959 37.5941 114.143 37.6481C114.326 37.7021 114.48 37.7669 114.604 37.8425L114.378 38.4174C114.264 38.3418 114.14 38.2852 114.005 38.2474C113.876 38.2042 113.738 38.1826 113.592 38.1826C113.328 38.1826 113.114 38.2555 112.953 38.4012C112.796 38.5416 112.718 38.7494 112.718 39.0247C112.718 39.1759 112.742 39.3082 112.791 39.4215C112.845 39.5349 112.912 39.6375 112.993 39.7292C113.079 39.821 113.177 39.9047 113.285 39.9803C113.398 40.0558 113.517 40.1341 113.641 40.2151C113.765 40.2961 113.892 40.3851 114.021 40.4823C114.151 40.5795 114.267 40.6929 114.37 40.8224C114.478 40.9466 114.564 41.095 114.629 41.2678C114.699 41.4352 114.734 41.6349 114.734 41.867C114.734 42.0776 114.702 42.2773 114.637 42.4663C114.572 42.6552 114.469 42.8225 114.329 42.9683C114.194 43.1087 114.021 43.222 113.811 43.3084C113.606 43.3894 113.363 43.4299 113.082 43.4299C112.823 43.4299 112.596 43.4002 112.402 43.3408C112.208 43.2814 112.035 43.2031 111.884 43.106L112.11 42.5229C112.251 42.6093 112.394 42.6795 112.54 42.7335C112.691 42.7821 112.863 42.8064 113.058 42.8064ZM106.825 43.3084V37.1461L107.521 37.0246V39.0814C107.624 39.049 107.734 39.022 107.853 39.0004C107.977 38.9789 108.101 38.9681 108.226 38.9681C108.404 38.9681 108.571 38.9977 108.728 39.0571C108.884 39.1111 109.019 39.2056 109.133 39.3405C109.251 39.4755 109.343 39.6591 109.408 39.8912C109.478 40.1179 109.513 40.4013 109.513 40.7414V43.3084H108.817V40.7981C108.817 40.377 108.763 40.0693 108.655 39.875C108.547 39.6806 108.344 39.5835 108.047 39.5835C107.891 39.5835 107.715 39.6105 107.521 39.6645V43.3084H106.825ZM105.258 43.4137C104.966 43.4137 104.723 43.357 104.529 43.2436C104.335 43.1303 104.175 42.9764 104.051 42.7821C103.932 42.5823 103.846 42.3475 103.792 42.0776C103.743 41.8076 103.719 41.5134 103.719 41.1949C103.719 40.4931 103.846 39.9452 104.1 39.5511C104.359 39.1516 104.748 38.9519 105.266 38.9519C105.422 38.9519 105.563 38.9708 105.687 39.0085C105.811 39.0463 105.927 39.0949 106.035 39.1543L105.857 39.7292C105.69 39.6213 105.503 39.5673 105.298 39.5673C105.007 39.5673 104.791 39.6995 104.65 39.9641C104.515 40.2286 104.448 40.6389 104.448 41.1949C104.448 41.4271 104.461 41.643 104.488 41.8427C104.515 42.0371 104.561 42.2044 104.626 42.3448C104.696 42.4851 104.785 42.5958 104.893 42.6768C105.007 42.7578 105.15 42.7983 105.322 42.7983C105.441 42.7983 105.547 42.7848 105.638 42.7578C105.735 42.7254 105.827 42.6849 105.914 42.6363L106.067 43.1789C105.981 43.2382 105.865 43.2922 105.719 43.3408C105.579 43.3894 105.425 43.4137 105.258 43.4137ZM101.81 42.4258C101.967 41.8859 102.11 41.3434 102.24 40.7981C102.369 40.2529 102.493 39.6726 102.612 39.0571H103.3C103.219 39.4512 103.13 39.8399 103.033 40.2232C102.941 40.6065 102.844 40.9763 102.742 41.3326C102.644 41.6889 102.545 42.0263 102.442 42.3448C102.345 42.6579 102.253 42.944 102.167 43.2031C102.064 43.5055 101.964 43.7592 101.867 43.9643C101.775 44.1749 101.673 44.3422 101.559 44.4664C101.451 44.5959 101.333 44.6877 101.203 44.7417C101.073 44.8011 100.92 44.8308 100.741 44.8308C100.644 44.8308 100.547 44.8173 100.45 44.7903C100.353 44.7687 100.272 44.7444 100.207 44.7174L100.337 44.1506C100.477 44.21 100.609 44.2396 100.733 44.2396C100.89 44.2396 101.017 44.183 101.114 44.0696C101.211 43.9562 101.306 43.7862 101.397 43.5594L101.478 43.357C101.376 43.0763 101.271 42.7659 101.163 42.4258C101.06 42.0803 100.957 41.7213 100.855 41.3488C100.758 40.9763 100.663 40.5957 100.571 40.207C100.48 39.8129 100.396 39.4296 100.32 39.0571H101.057C101.1 39.3109 101.152 39.5889 101.211 39.8912C101.271 40.1935 101.333 40.4958 101.397 40.7981C101.468 41.1004 101.538 41.3947 101.608 41.6808C101.678 41.9615 101.746 42.2098 101.81 42.4258ZM97.0348 39.1786C97.2345 39.1192 97.4504 39.0706 97.6826 39.0328C97.9147 38.9896 98.1279 38.9681 98.3223 38.9681C98.5328 38.9681 98.7245 38.9977 98.8972 39.0571C99.07 39.1111 99.2157 39.2056 99.3345 39.3405C99.4587 39.4755 99.5531 39.6591 99.6179 39.8912C99.6881 40.1179 99.7232 40.4013 99.7232 40.7414V43.3084H99.0268V40.7981C99.0268 40.377 98.9728 40.0693 98.8648 39.875C98.7569 39.6806 98.5544 39.5835 98.2575 39.5835C98.101 39.5835 97.9255 39.6105 97.7312 39.6645V43.3084H97.0348V39.1786ZM96.1749 43.3894C95.7754 43.3786 95.4893 43.2814 95.3165 43.0979C95.1438 42.9089 95.0574 42.612 95.0574 42.2071V37.1461L95.7538 37.0246V42.2233C95.7538 42.4123 95.7916 42.5499 95.8672 42.6363C95.9427 42.7173 96.075 42.774 96.264 42.8064L96.1749 43.3894ZM91.6273 39.1462C91.7676 39.0868 91.9161 39.0409 92.0726 39.0085C92.2292 38.9708 92.3993 38.9519 92.5828 38.9519C92.9607 38.9519 93.2684 39.0706 93.5059 39.3082C93.7435 39.5403 93.8622 39.9047 93.8622 40.4013V43.2193C93.6679 43.2733 93.4681 43.3165 93.263 43.3489C93.0633 43.3813 92.8662 43.3975 92.6719 43.3975C92.4775 43.3975 92.294 43.3732 92.1212 43.3246C91.9539 43.276 91.8054 43.1977 91.6759 43.0898C91.5517 42.9818 91.4518 42.8468 91.3762 42.6849C91.3007 42.5175 91.2629 42.3151 91.2629 42.0776C91.2629 41.8562 91.2953 41.6646 91.3601 41.5026C91.4302 41.3353 91.5247 41.1976 91.6435 41.0896C91.7622 40.9763 91.9026 40.8926 92.0646 40.8386C92.2265 40.7792 92.402 40.7495 92.5909 40.7495C92.769 40.7495 92.9661 40.7711 93.182 40.8143V40.4256C93.182 40.1125 93.1199 39.8939 92.9958 39.7697C92.877 39.6456 92.7043 39.5835 92.4775 39.5835C92.3534 39.5835 92.2346 39.597 92.1212 39.624C92.0133 39.6456 91.8972 39.6834 91.773 39.7373L91.6273 39.1462ZM91.9593 42.0695C91.9593 42.3178 92.0241 42.5013 92.1536 42.6201C92.2832 42.7389 92.4667 42.7983 92.7043 42.7983C92.85 42.7983 93.0093 42.7794 93.182 42.7416V41.3893C93.0201 41.3461 92.8608 41.3245 92.7043 41.3245C92.6017 41.3245 92.5045 41.338 92.4128 41.365C92.321 41.3866 92.24 41.427 92.1698 41.4864C92.105 41.5404 92.0538 41.616 92.016 41.7132C91.9782 41.8049 91.9593 41.9237 91.9593 42.0695ZM87.656 39.1786C87.8557 39.1192 88.0717 39.0706 88.3038 39.0328C88.5359 38.9896 88.7492 38.9681 88.9435 38.9681C89.1541 38.9681 89.3457 38.9977 89.5185 39.0571C89.6912 39.1111 89.837 39.2056 89.9557 39.3405C90.0799 39.4755 90.1744 39.6591 90.2392 39.8912C90.3093 40.1179 90.3444 40.4013 90.3444 40.7414V43.3084H89.648V40.7981C89.648 40.377 89.594 40.0693 89.4861 39.875C89.3781 39.6806 89.1757 39.5835 88.8787 39.5835C88.7222 39.5835 88.5467 39.6105 88.3524 39.6645V43.3084H87.656V39.1786ZM86.3971 43.1869C86.3269 43.2139 86.2405 43.2409 86.1379 43.2679C86.0408 43.2895 85.9355 43.3084 85.8221 43.3246C85.7141 43.3462 85.6035 43.3624 85.4901 43.3732C85.3821 43.3894 85.2823 43.3975 85.1905 43.3975C84.9692 43.3975 84.7667 43.3705 84.5832 43.3165C84.3996 43.2679 84.2431 43.1789 84.1135 43.0493C83.9839 42.9197 83.8841 42.7443 83.8139 42.5229C83.7437 42.2962 83.7086 42.0128 83.7086 41.6727V39.0571H84.405V41.6484C84.405 42.0641 84.4671 42.3583 84.5913 42.531C84.7208 42.6984 84.9152 42.7821 85.1743 42.7821C85.2607 42.7821 85.3471 42.7794 85.4334 42.774C85.5198 42.7632 85.6089 42.7443 85.7007 42.7173V39.0571H86.3971V43.1869ZM78.1191 39.1786C78.308 39.1192 78.5132 39.0706 78.7345 39.0328C78.9558 38.9896 79.1583 38.9681 79.3418 38.9681C79.5308 38.9681 79.7008 38.9923 79.852 39.0409C80.0085 39.0895 80.1462 39.1705 80.265 39.2839C80.4053 39.1921 80.5565 39.1165 80.7184 39.0571C80.8804 38.9977 81.0585 38.9681 81.2529 38.9681C81.4472 38.9681 81.6227 38.9977 81.7792 39.0571C81.9412 39.1111 82.0788 39.2056 82.1922 39.3405C82.3056 39.4755 82.3946 39.6591 82.4594 39.8912C82.5242 40.1179 82.5566 40.4013 82.5566 40.7414V43.3084H81.8602V40.7981C81.8602 40.377 81.8116 40.0693 81.7144 39.875C81.6173 39.6806 81.4337 39.5835 81.1638 39.5835C81.0612 39.5835 80.956 39.6024 80.848 39.6402C80.7454 39.6779 80.6482 39.7292 80.5565 39.794C80.5997 39.9182 80.6321 40.0585 80.6536 40.2151C80.6752 40.3717 80.686 40.5471 80.686 40.7414V43.3084H79.9896V40.7981C79.9896 40.377 79.941 40.0693 79.8439 39.875C79.7467 39.6806 79.5632 39.5835 79.2932 39.5835C79.1529 39.5835 78.9936 39.6105 78.8155 39.6645V43.3084H78.1191V39.1786ZM77.0996 41.1868C77.0996 41.5215 77.07 41.8265 77.0106 42.1019C76.9512 42.3718 76.8594 42.6039 76.7353 42.7983C76.6165 42.9926 76.4626 43.1438 76.2737 43.2517C76.0901 43.3597 75.8715 43.4137 75.6178 43.4137C75.364 43.4137 75.1427 43.3597 74.9538 43.2517C74.7648 43.1438 74.6083 42.9926 74.4841 42.7983C74.3653 42.6039 74.2763 42.3718 74.2169 42.1019C74.1575 41.8265 74.1278 41.5215 74.1278 41.1868C74.1278 40.8575 74.1575 40.5552 74.2169 40.2799C74.2763 40.0046 74.3653 39.7697 74.4841 39.5754C74.6083 39.3756 74.7648 39.2218 74.9538 39.1138C75.1427 39.0058 75.364 38.9519 75.6178 38.9519C75.8715 38.9519 76.0901 39.0058 76.2737 39.1138C76.4626 39.2218 76.6165 39.3756 76.7353 39.5754C76.8594 39.7697 76.9512 40.0046 77.0106 40.2799C77.07 40.5552 77.0996 40.8575 77.0996 41.1868ZM76.3709 41.1868C76.3709 40.9493 76.3574 40.7333 76.3304 40.539C76.3034 40.3393 76.2602 40.1692 76.2008 40.0288C76.1414 39.8831 76.0631 39.7724 75.966 39.6968C75.8688 39.6159 75.7527 39.5754 75.6178 39.5754C75.4774 39.5754 75.3586 39.6159 75.2615 39.6968C75.1697 39.7724 75.0914 39.8831 75.0266 40.0288C74.9673 40.1692 74.9241 40.3393 74.8971 40.539C74.8701 40.7333 74.8566 40.9493 74.8566 41.1868C74.8566 41.4243 74.8701 41.643 74.8971 41.8427C74.9241 42.0371 74.9673 42.2044 75.0266 42.3448C75.0914 42.4851 75.1697 42.5958 75.2615 42.6768C75.3586 42.7524 75.4774 42.7902 75.6178 42.7902C75.7527 42.7902 75.8688 42.7524 75.966 42.6768C76.0631 42.5958 76.1414 42.4851 76.2008 42.3448C76.2602 42.2044 76.3034 42.0371 76.3304 41.8427C76.3574 41.643 76.3709 41.4243 76.3709 41.1868ZM73.6562 37.6967C73.5375 37.8803 73.4025 38.0827 73.2513 38.304C73.1056 38.5254 72.9544 38.7548 72.7979 38.9923C72.6413 39.2245 72.4821 39.4539 72.3201 39.6807C72.1636 39.9074 72.0124 40.1179 71.8666 40.3123C72.0286 40.4742 72.204 40.6794 72.393 40.9277C72.5819 41.1706 72.7682 41.4298 72.9517 41.7051C73.1353 41.975 73.308 42.2503 73.47 42.531C73.6319 42.8118 73.7615 43.0709 73.8587 43.3084H73.0408C72.9274 43.0601 72.7952 42.8064 72.644 42.5472C72.4983 42.2881 72.3417 42.0398 72.1744 41.8022C72.0124 41.5593 71.8451 41.3353 71.6723 41.1301C71.5049 40.925 71.3403 40.7522 71.1783 40.6119V43.3084H70.4495V37.6967H71.1783V40.1746C71.3187 39.9965 71.4672 39.794 71.6237 39.5673C71.7803 39.3405 71.9341 39.1138 72.0853 38.8871C72.2418 38.6603 72.3876 38.4444 72.5226 38.2393C72.6575 38.0287 72.7709 37.8479 72.8627 37.6967H73.6562ZM107.295 33.0298C107.295 33.3321 107.255 33.5859 107.174 33.791C107.098 34.0016 106.993 34.1716 106.858 34.3012C106.723 34.4307 106.564 34.5252 106.38 34.5846C106.202 34.644 106.01 34.6737 105.805 34.6737C105.632 34.6737 105.46 34.6548 105.287 34.617C105.114 34.5792 104.955 34.5225 104.809 34.4469L104.955 33.8639C105.052 33.9179 105.171 33.9665 105.311 34.0097C105.452 34.0528 105.597 34.0744 105.749 34.0744C106.013 34.0744 106.221 33.9989 106.372 33.8477C106.523 33.6965 106.599 33.4374 106.599 33.0703V32.8679C106.512 32.9057 106.421 32.9381 106.323 32.9651C106.226 32.9866 106.116 32.9974 105.991 32.9974C105.484 32.9974 105.111 32.8247 104.874 32.4792C104.642 32.1283 104.526 31.6343 104.526 30.9973C104.526 30.6572 104.555 30.3522 104.615 30.0823C104.68 29.807 104.777 29.5748 104.906 29.3859C105.041 29.1915 105.214 29.0458 105.425 28.9486C105.635 28.846 105.892 28.7947 106.194 28.7947C106.394 28.7947 106.588 28.8163 106.777 28.8595C106.971 28.8973 107.144 28.9486 107.295 29.0134V33.0298ZM106.599 29.4669C106.523 29.4453 106.45 29.4318 106.38 29.4264C106.31 29.4156 106.245 29.4102 106.186 29.4102C105.862 29.4102 105.624 29.5343 105.473 29.7827C105.327 30.031 105.255 30.4359 105.255 30.9973C105.255 31.5048 105.327 31.8638 105.473 32.0743C105.619 32.2795 105.827 32.382 106.097 32.382C106.188 32.382 106.275 32.3712 106.356 32.3496C106.442 32.328 106.523 32.2983 106.599 32.2606V29.4669ZM103.51 33.0298C103.44 33.0568 103.353 33.0838 103.251 33.1108C103.153 33.1324 103.048 33.1513 102.935 33.1675C102.827 33.1891 102.716 33.2053 102.603 33.2161C102.495 33.2323 102.395 33.2404 102.303 33.2404C102.082 33.2404 101.879 33.2134 101.696 33.1594C101.512 33.1108 101.356 33.0217 101.226 32.8922C101.097 32.7626 100.997 32.5872 100.927 32.3658C100.856 32.1391 100.821 31.8557 100.821 31.5156V28.9H101.518V31.4913C101.518 31.907 101.58 32.2012 101.704 32.3739C101.834 32.5413 102.028 32.625 102.287 32.625C102.373 32.625 102.46 32.6222 102.546 32.6169C102.632 32.6061 102.722 32.5872 102.813 32.5602V28.9H103.51V33.0298ZM98.2204 30.1471L98.9006 29.7665V26.989L99.597 26.8675V29.3697L100.051 29.1106L100.318 29.5883L99.597 29.9932V32.0662C99.597 32.2552 99.6348 32.3928 99.7104 32.4792C99.786 32.5602 99.9182 32.6169 100.107 32.6492L100.018 33.2323C99.6186 33.2215 99.3325 33.1243 99.1598 32.9408C98.987 32.7518 98.9006 32.4549 98.9006 32.05V30.39L98.4877 30.6167L98.2204 30.1471ZM96.7402 32.6573C96.9453 32.6573 97.0992 32.6007 97.2018 32.4873C97.3097 32.3685 97.3637 32.2147 97.3637 32.0257C97.3637 31.907 97.3421 31.8071 97.2989 31.7261C97.2558 31.6397 97.1991 31.5642 97.1289 31.4994C97.0587 31.4346 96.9777 31.3779 96.886 31.3293C96.7942 31.2753 96.7024 31.2187 96.6106 31.1593C96.5189 31.1053 96.4298 31.0432 96.3434 30.973C96.257 30.8974 96.1788 30.8138 96.1086 30.722C96.0438 30.6248 95.9898 30.5169 95.9466 30.3981C95.9088 30.2739 95.8899 30.1309 95.8899 29.9689C95.8899 29.618 95.9979 29.3346 96.2139 29.1186C96.4352 28.9027 96.7321 28.7947 97.1046 28.7947C97.2612 28.7947 97.4096 28.8163 97.55 28.8595C97.6903 28.8973 97.8064 28.9405 97.8982 28.9891L97.7443 29.5478C97.6471 29.4938 97.55 29.4534 97.4528 29.4264C97.3556 29.3994 97.2504 29.3859 97.137 29.3859C96.9642 29.3859 96.8266 29.4372 96.724 29.5397C96.6214 29.6369 96.5702 29.78 96.5702 29.9689C96.5702 30.0769 96.589 30.1714 96.6268 30.2523C96.6646 30.3279 96.7132 30.3981 96.7726 30.4629C96.8374 30.5223 96.9076 30.5789 96.9831 30.6329C97.0641 30.6869 97.1478 30.7382 97.2342 30.7868C97.3367 30.8462 97.4366 30.9109 97.5338 30.9811C97.6363 31.0513 97.7254 31.135 97.801 31.2322C97.882 31.3239 97.9468 31.4346 97.9953 31.5642C98.0439 31.6883 98.0682 31.8395 98.0682 32.0176C98.0682 32.3901 97.9576 32.6897 97.7362 32.9165C97.5203 33.1432 97.2018 33.2566 96.7807 33.2566C96.5648 33.2566 96.3704 33.2269 96.1977 33.1675C96.0249 33.1081 95.8953 33.0541 95.809 33.0055L95.9547 32.4306C96.0357 32.4738 96.1437 32.5224 96.2786 32.5764C96.419 32.6304 96.5729 32.6573 96.7402 32.6573ZM93.2758 33.2728C92.7521 33.2728 92.3581 33.1243 92.0935 32.8274C91.8344 32.5305 91.7048 32.0608 91.7048 31.4184V27.5396H92.4336V31.3536C92.4336 31.7801 92.4957 32.1013 92.6199 32.3172C92.744 32.5278 92.9681 32.6331 93.292 32.6331C93.6267 32.6331 93.8534 32.5251 93.9722 32.3091C94.0964 32.0878 94.1584 31.7693 94.1584 31.3536V27.5396H94.8872V31.4184C94.8872 32.05 94.7523 32.517 94.4823 32.8193C94.2124 33.1216 93.8102 33.2728 93.2758 33.2728ZM88.1734 29.5397C88.0168 29.4534 87.8494 29.4102 87.6713 29.4102C87.5363 29.4102 87.4176 29.4372 87.315 29.4911C87.2124 29.5451 87.1234 29.6342 87.0478 29.7584C86.9776 29.8825 86.9236 30.0472 86.8858 30.2523C86.848 30.4575 86.8291 30.7112 86.8291 31.0135C86.8291 31.5965 86.9047 32.0149 87.0559 32.2687C87.2124 32.517 87.4473 32.6411 87.7604 32.6411C87.8198 32.6411 87.8845 32.6385 87.9547 32.6331C88.0249 32.6223 88.0978 32.6061 88.1734 32.5845V29.5397ZM88.1734 26.989L88.8698 26.8675V33.0379C88.7186 33.1027 88.5459 33.154 88.3515 33.1918C88.1572 33.235 87.9601 33.2566 87.7604 33.2566C87.1773 33.2566 86.7536 33.0703 86.489 32.6978C86.2299 32.3253 86.1003 31.7639 86.1003 31.0135C86.1003 30.6734 86.1273 30.3684 86.1813 30.0985C86.2407 29.8231 86.3298 29.591 86.4485 29.4021C86.5727 29.2077 86.7293 29.0593 86.9182 28.9567C87.1072 28.8487 87.3312 28.7947 87.5903 28.7947C87.7145 28.7947 87.8198 28.8082 87.9061 28.8352C87.9979 28.8568 88.087 28.8892 88.1734 28.9324V26.989ZM82.897 28.9891C83.0373 28.9297 83.1858 28.8838 83.3423 28.8514C83.4989 28.8136 83.6689 28.7947 83.8525 28.7947C84.2304 28.7947 84.5381 28.9135 84.7756 29.151C85.0132 29.3832 85.1319 29.7476 85.1319 30.2442V33.0622C84.9376 33.1162 84.7378 33.1594 84.5327 33.1918C84.3329 33.2242 84.1359 33.2404 83.9416 33.2404C83.7472 33.2404 83.5637 33.2161 83.3909 33.1675C83.2236 33.1189 83.0751 33.0406 82.9455 32.9327C82.8214 32.8247 82.7215 32.6897 82.6459 32.5278C82.5704 32.3604 82.5326 32.158 82.5326 31.9205C82.5326 31.6991 82.5649 31.5075 82.6297 31.3455C82.6999 31.1782 82.7944 31.0405 82.9132 30.9325C83.0319 30.8192 83.1723 30.7355 83.3342 30.6815C83.4962 30.6221 83.6716 30.5924 83.8606 30.5924C84.0387 30.5924 84.2358 30.614 84.4517 30.6572V30.2685C84.4517 29.9554 84.3896 29.7368 84.2655 29.6126C84.1467 29.4884 83.974 29.4264 83.7472 29.4264C83.6231 29.4264 83.5043 29.4399 83.3909 29.4669C83.2829 29.4884 83.1669 29.5262 83.0427 29.5802L82.897 28.9891ZM83.229 31.9124C83.229 32.1607 83.2937 32.3442 83.4233 32.463C83.5529 32.5818 83.7364 32.6411 83.9739 32.6411C84.1197 32.6411 84.279 32.6223 84.4517 32.5845V31.2322C84.2898 31.189 84.1305 31.1674 83.9739 31.1674C83.8714 31.1674 83.7742 31.1809 83.6824 31.2079C83.5907 31.2294 83.5097 31.2699 83.4395 31.3293C83.3747 31.3833 83.3234 31.4589 83.2856 31.5561C83.2479 31.6478 83.229 31.7666 83.229 31.9124ZM80.1746 30.1471L80.8548 29.7665V26.989L81.5512 26.8675V29.3697L82.0047 29.1106L82.2719 29.5883L81.5512 29.9932V32.0662C81.5512 32.2552 81.589 32.3928 81.6646 32.4792C81.7402 32.5602 81.8724 32.6169 82.0614 32.6492L81.9723 33.2323C81.5728 33.2215 81.2867 33.1243 81.1139 32.9408C80.9412 32.7518 80.8548 32.4549 80.8548 32.05V30.39L80.4418 30.6167L80.1746 30.1471ZM80.0391 28.9C79.8124 29.2887 79.5937 29.645 79.3832 29.9689C79.1781 30.2874 78.9729 30.587 78.7678 30.8678C78.8973 31.0189 79.0296 31.189 79.1646 31.3779C79.2995 31.5669 79.4291 31.7639 79.5532 31.969C79.6774 32.1688 79.7935 32.3712 79.9014 32.5764C80.0094 32.7761 80.1012 32.9678 80.1768 33.1513H79.4156C79.3346 32.9732 79.2401 32.7869 79.1322 32.5926C79.0242 32.3982 78.9108 32.2093 78.7921 32.0257C78.6733 31.8368 78.5545 31.6586 78.4358 31.4913C78.317 31.3239 78.2063 31.1836 78.1038 31.0702V33.1513H77.4074V26.989L78.1038 26.8675V30.7301C78.2009 30.6005 78.3035 30.4548 78.4115 30.2928C78.5248 30.1309 78.6355 29.9689 78.7435 29.807C78.8514 29.6396 78.954 29.4777 79.0512 29.3211C79.1484 29.1645 79.2293 29.0242 79.2941 28.9H80.0391ZM73.961 28.9891C74.1014 28.9297 74.2499 28.8838 74.4064 28.8514C74.563 28.8136 74.733 28.7947 74.9166 28.7947C75.2945 28.7947 75.6022 28.9135 75.8397 29.151C76.0772 29.3832 76.196 29.7476 76.196 30.2442V33.0622C76.0017 33.1162 75.8019 33.1594 75.5968 33.1918C75.397 33.2242 75.2 33.2404 75.0056 33.2404C74.8113 33.2404 74.6277 33.2161 74.455 33.1675C74.2876 33.1189 74.1392 33.0406 74.0096 32.9327C73.8855 32.8247 73.7856 32.6897 73.71 32.5278C73.6344 32.3604 73.5966 32.158 73.5966 31.9205C73.5966 31.6991 73.629 31.5075 73.6938 31.3455C73.764 31.1782 73.8585 31.0405 73.9772 30.9325C74.096 30.8192 74.2364 30.7355 74.3983 30.6815C74.5603 30.6221 74.7357 30.5924 74.9247 30.5924C75.1028 30.5924 75.2999 30.614 75.5158 30.6572V30.2685C75.5158 29.9554 75.4537 29.7368 75.3295 29.6126C75.2108 29.4884 75.038 29.4264 74.8113 29.4264C74.6871 29.4264 74.5684 29.4399 74.455 29.4669C74.347 29.4884 74.231 29.5262 74.1068 29.5802L73.961 28.9891ZM74.293 31.9124C74.293 32.1607 74.3578 32.3442 74.4874 32.463C74.6169 32.5818 74.8005 32.6411 75.038 32.6411C75.1838 32.6411 75.343 32.6223 75.5158 32.5845V31.2322C75.3538 31.189 75.1946 31.1674 75.038 31.1674C74.9355 31.1674 74.8383 31.1809 74.7465 31.2079C74.6547 31.2294 74.5738 31.2699 74.5036 31.3293C74.4388 31.3833 74.3875 31.4589 74.3497 31.5561C74.3119 31.6478 74.293 31.7666 74.293 31.9124ZM72.9274 28.1145C72.7655 28.4007 72.5846 28.7381 72.3849 29.1268C72.1852 29.51 71.9854 29.9068 71.7857 30.3171C71.5913 30.722 71.4051 31.1188 71.2269 31.5075C71.0542 31.8962 70.9111 32.2363 70.7977 32.5278H72.9841V33.1513H70.0204V32.7059C70.1013 32.49 70.1958 32.2525 70.3038 31.9933C70.4118 31.7342 70.5278 31.467 70.652 31.1917C70.7762 30.9109 70.903 30.6302 71.0326 30.3495C71.1675 30.0688 71.2998 29.7962 71.4294 29.5316C71.5643 29.2671 71.6912 29.0188 71.81 28.7866C71.9341 28.5491 72.0475 28.3413 72.1501 28.1631H70.1256V27.5396H72.9274V28.1145Z" fill="black"/>
</g>
<defs>
<clipPath id="clip0_149_3205">
<rect width="98" height="30" fill="white" transform="translate(39 25.5713)"/>
</clipPath>
</defs>
</svg>
