<svg width="112" height="27" viewBox="0 0 112 27" fill="none" xmlns="http://www.w3.org/2000/svg">
<g clip-path="url(#clip0_149_3146)">
<path d="M44.0077 19.749H43.3957C43.3116 19.8436 43.2273 19.9382 43.1001 20.0462C42.9745 20.1541 42.8267 20.2621 42.658 20.3699C42.5102 20.4785 42.32 20.5591 42.1097 20.6537C41.9192 20.7344 41.708 20.8024 41.4761 20.8562V21.3292C41.7298 21.2886 41.9607 21.2346 42.1722 21.1534C42.4041 21.0588 42.5946 20.9642 42.784 20.8702C42.9745 20.7623 43.122 20.6537 43.2689 20.5591V26.4197H44.0077V19.749ZM51.7918 20.789C51.7918 20.5591 51.7292 20.3565 51.5815 20.1947C51.4119 20.0194 51.2019 19.8842 50.9479 19.7896C50.6742 19.695 50.3568 19.6551 49.9781 19.6551C49.6192 19.6551 49.3027 19.695 49.0281 19.7896C48.7753 19.8842 48.5641 20.0194 48.3954 20.1947C48.2476 20.3565 48.1636 20.5591 48.1636 20.789V22.5039C48.1636 22.7469 48.2476 22.9627 48.3954 23.1386C48.5641 23.3006 48.7753 23.435 49.0499 23.5297C49.3236 23.6243 49.6398 23.6649 49.9781 23.6649C50.2102 23.6649 50.4214 23.6382 50.5898 23.5844C50.7792 23.5297 50.927 23.4624 51.0541 23.3812V25.3524C51.0541 25.569 50.9697 25.7575 50.7792 25.8794C50.5898 26.0013 50.3362 26.0687 49.9781 26.0687C49.7669 26.0687 49.5982 26.0413 49.4298 25.9873C49.2602 25.9201 49.1552 25.8388 49.0499 25.7308C48.9647 25.623 48.9231 25.5018 48.9231 25.3524V24.7723H48.1636V25.3524C48.1636 25.5822 48.2476 25.7981 48.3954 25.9741C48.5641 26.1359 48.7753 26.2711 49.0499 26.3657C49.3236 26.4603 49.6398 26.5136 49.9781 26.5136C50.3362 26.5136 50.6524 26.4603 50.927 26.3657C51.2019 26.2711 51.4119 26.1359 51.5596 25.9741C51.7292 25.7981 51.7918 25.5822 51.7918 25.3524V20.789ZM48.9231 20.789C48.9231 20.6537 48.9647 20.5325 49.0499 20.4245C49.1343 20.3159 49.2602 20.2353 49.4298 20.1814C49.5776 20.114 49.7669 20.0868 49.9781 20.0868C50.3152 20.0868 50.568 20.1541 50.7586 20.2753C50.9479 20.4113 51.0541 20.5731 51.0541 20.789V22.5039C51.0541 22.7329 50.9697 22.9221 50.7792 23.0434C50.5898 23.1794 50.3362 23.2466 49.9781 23.2466C49.7669 23.2466 49.5982 23.2192 49.4298 23.152C49.2602 23.0974 49.1552 23.0168 49.0499 22.9087C48.9647 22.7875 48.9231 22.6657 48.9231 22.5039V20.789ZM58.2052 21.2752C58.2052 21.5045 58.1418 21.7343 58.0356 21.9502C57.9306 22.1792 57.8035 22.4092 57.6351 22.6251C57.4663 22.8415 57.2761 23.0708 57.0658 23.2872C56.8546 23.5164 56.6434 23.7463 56.4541 23.9621C56.2429 24.1912 56.0535 24.4344 55.8839 24.6637C55.7152 24.9075 55.5674 25.1365 55.4624 25.393C55.3563 25.6362 55.3147 25.8927 55.2937 26.1625V26.4197H58.9429V25.9741H56.0535C56.0535 25.7442 56.1376 25.5284 56.2429 25.2986C56.3491 25.0827 56.4957 24.8535 56.6641 24.6368C56.834 24.421 57.0233 24.1912 57.2345 23.9753C57.4248 23.7595 57.6351 23.5436 57.8462 23.3272C58.0356 23.0974 58.2261 22.8821 58.3946 22.6657C58.5633 22.4364 58.6901 22.22 58.7951 21.9908C58.9013 21.7609 58.9429 21.5451 58.9429 21.3153V20.8024C58.9429 20.5591 58.8588 20.3565 58.711 20.1814C58.5633 20.0194 58.353 19.8842 58.0784 19.7896C57.8035 19.695 57.4882 19.6551 57.1292 19.6551C56.7703 19.6551 56.4541 19.695 56.1804 19.7896C55.9058 19.8842 55.6946 20.0194 55.5468 20.1814C55.3781 20.3565 55.3147 20.5591 55.2937 20.8024V21.3693H56.0535V20.8024C56.0535 20.6537 56.0951 20.5325 56.1804 20.4245C56.2854 20.3159 56.4113 20.2353 56.5591 20.1814C56.7278 20.114 56.918 20.0868 57.1292 20.0868C57.4663 20.0868 57.7412 20.1541 57.9306 20.2753C58.099 20.4113 58.2052 20.5865 58.2052 20.8024V21.2752ZM62.6348 25.3664C62.6348 25.5962 62.7191 25.7981 62.8678 25.9741C63.0147 26.1493 63.2259 26.2711 63.5005 26.3657C63.7742 26.4603 64.0904 26.5136 64.4493 26.5136C64.8074 26.5136 65.1248 26.4603 65.3985 26.3657C65.6731 26.2711 65.8834 26.1493 66.0312 25.9741C66.1798 25.7981 66.2642 25.5962 66.2642 25.3664V23.6243C66.2642 23.3812 66.1798 23.1793 66.0518 23.0033C65.9052 22.8283 65.694 22.6923 65.4191 22.5983C65.1454 22.5171 64.8292 22.4631 64.4493 22.4631C64.2175 22.4631 64.006 22.4904 63.8167 22.5577C63.6264 22.6251 63.4786 22.7063 63.3736 22.8009V20.8163C63.3736 20.5865 63.4786 20.4113 63.6689 20.2893C63.8376 20.154 64.1113 20.0868 64.4493 20.0868C64.6596 20.0868 64.8502 20.114 65.0186 20.1814C65.1664 20.2353 65.2932 20.3159 65.3775 20.4245C65.4619 20.5325 65.5253 20.667 65.5253 20.8163V21.3693H66.2642V20.8163C66.2642 20.5731 66.1798 20.3699 66.0311 20.1947C65.8834 20.0194 65.6731 19.8842 65.3985 19.7896C65.1248 19.695 64.8074 19.6551 64.4493 19.6551C64.0904 19.6551 63.7742 19.695 63.5005 19.7896C63.2259 19.8842 63.0147 20.0194 62.8678 20.1947C62.7191 20.3699 62.6348 20.5731 62.6348 20.8163L62.6348 25.3664ZM65.5253 25.3664C65.5253 25.5822 65.4191 25.7575 65.2298 25.8794C65.0404 26.0012 64.7865 26.0687 64.4493 26.0687C64.2381 26.0687 64.0479 26.0413 63.8792 25.9873C63.7326 25.9335 63.6055 25.8388 63.5214 25.7442C63.4152 25.6362 63.3736 25.515 63.3736 25.3664V23.6243C63.3736 23.3944 63.4786 23.2192 63.6689 23.0974C63.8376 22.9627 64.1113 22.8955 64.4493 22.8955C64.6596 22.8955 64.8502 22.9355 65.0186 22.9894C65.1664 23.0434 65.2932 23.1246 65.3775 23.2332C65.4619 23.3404 65.5253 23.4758 65.5253 23.6243V25.3664Z" fill="#A50F20"/>
<path d="M74.2796 23.6786H90.5439V23.2736H74.2796V23.6786Z" fill="#A50F20"/>
<path d="M19.3673 23.6786H35.6328V23.2736H19.3673V23.6786Z" fill="#A50F20"/>
<path d="M2.06905 0.81822H0.550049V14.3481H2.06905V8.97381L3.90453 7.83999C4.4322 8.19105 4.89616 8.52814 5.27606 8.8792C5.65566 9.23026 5.9512 9.59473 6.1615 10.0138C6.37269 10.4188 6.47887 10.8779 6.47887 11.4042V14.3481H7.97605V11.4042C7.97605 10.9185 7.91263 10.4729 7.76486 10.081C7.61709 9.67612 7.42773 9.31165 7.15313 8.98721C6.87942 8.66334 6.56323 8.35288 6.18333 8.06924C5.80343 7.772 5.38106 7.50214 4.89616 7.21849C5.50789 6.85402 6.03467 6.46236 6.49952 6.05728C6.96377 5.66543 7.32155 5.20654 7.5755 4.72007C7.84922 4.22114 7.97604 3.65348 7.97604 3.00592V0.81816H6.47887V3.00592C6.47887 3.35642 6.4361 3.68086 6.35174 3.96469C6.26768 4.26117 6.11991 4.54501 5.90873 4.81543C5.71819 5.08529 5.44447 5.35496 5.10646 5.6388C4.76933 5.93604 4.34784 6.2465 3.86206 6.58415C3.35621 6.92124 2.76513 7.3129 2.06905 7.74536L2.06905 0.81822ZM21.709 14.3481V2.95139C21.709 2.47909 21.5624 2.06061 21.2451 1.72296C20.9286 1.37189 20.5071 1.10204 19.9588 0.912814C19.4096 0.723592 18.756 0.62898 18.039 0.62898C17.321 0.62898 16.6677 0.723591 16.1194 0.912814C15.5711 1.10204 15.1484 1.37189 14.8322 1.72296C14.5158 2.06061 14.368 2.47909 14.3473 2.95139V14.3481H15.8663V8.9606H20.2116V14.3481H21.709ZM15.8663 2.95139C15.8663 2.65491 15.9507 2.41186 16.14 2.19601C16.3294 1.97941 16.5627 1.81757 16.8998 1.69558C17.216 1.57434 17.5959 1.52033 18.0389 1.52033C18.7132 1.52033 19.2409 1.65573 19.6208 1.91218C20.0004 2.15466 20.2116 2.50572 20.2116 2.95139V8.06927H15.8663V2.95139ZM40.4635 14.3481V2.77613C40.4635 2.33046 40.2947 1.9388 39.9992 1.62833C39.683 1.30446 39.2825 1.06142 38.7548 0.885418C38.2481 0.723578 37.6788 0.628967 37.0671 0.628967C36.7081 0.628967 36.371 0.669569 36.012 0.736986C35.654 0.818189 35.3378 0.926208 35.0422 1.06142C34.7467 1.19663 34.5146 1.3445 34.3462 1.52031C34.1766 1.33128 33.9444 1.15603 33.6707 1.03404C33.3752 0.899581 33.059 0.804969 32.7219 0.736986C32.3629 0.669569 32.004 0.628967 31.6459 0.628967C31.0123 0.628967 30.4431 0.723578 29.9375 0.885418C29.409 1.06142 29.0081 1.30446 28.6919 1.62833C28.3755 1.93879 28.2277 2.33046 28.207 2.77613V14.3481H29.726V2.77613C29.726 2.51968 29.8104 2.28986 29.9997 2.10064C30.1685 1.91217 30.4003 1.77696 30.6752 1.66894C30.9707 1.57433 31.3079 1.52032 31.6459 1.52032C32.0039 1.52032 32.342 1.57433 32.6157 1.66894C32.9112 1.77696 33.1433 1.91217 33.3118 2.10064C33.5023 2.28986 33.5867 2.51968 33.5867 2.77613V14.3481H35.1048V2.77613C35.1048 2.51968 35.1888 2.28986 35.3584 2.10064C35.5478 1.91217 35.7799 1.77696 36.0755 1.66894C36.371 1.57433 36.7081 1.52032 37.0671 1.52032C37.4042 1.52032 37.7422 1.57433 38.0159 1.66894C38.3115 1.77696 38.5227 1.91217 38.712 2.10064C38.8598 2.28986 38.9442 2.51968 38.966 2.77613V14.3481H40.4635ZM48.5855 0.81822H47.0872V14.3481H48.5855V0.81822ZM62.571 14.3481V2.95139C62.571 2.47909 62.4244 2.06061 62.1079 1.72296C61.7905 1.37189 61.3693 1.10204 60.821 0.912814C60.2724 0.723592 59.6179 0.62898 58.9012 0.62898C58.1635 0.62898 57.5296 0.723591 56.9813 0.912814C56.433 1.10204 55.9897 1.37189 55.6942 1.72296C55.378 2.06061 55.2093 2.47909 55.2093 2.95139V14.3481H56.7286V2.95139C56.7286 2.50572 56.9179 2.15466 57.3185 1.91218C57.6984 1.65573 58.2257 1.52033 58.9012 1.52033C59.5763 1.52033 60.104 1.65573 60.4827 1.91218C60.8635 2.15466 61.0528 2.50572 61.0738 2.95139V14.3481H62.571ZM70.6933 0.81822H69.195V14.3481H70.6933V0.81822ZM84.6803 14.3481V2.95139C84.6803 2.47909 84.5325 2.06061 84.216 1.72296C83.8998 1.37189 83.4771 1.10204 82.93 0.912814C82.3805 0.723592 81.7272 0.62898 81.0093 0.62898C80.2923 0.62898 79.6387 0.723591 79.0895 0.912814C78.5411 1.10204 78.1197 1.37189 77.8032 1.72296C77.4858 2.06061 77.3174 2.47909 77.3174 2.95139V14.3481H78.8367V8.9606H83.1819V14.3481H84.6803ZM78.8367 2.95139C78.8367 2.65491 78.9207 2.41186 79.1113 2.19601C79.2797 1.97941 79.5328 1.81757 79.8699 1.69558C80.1873 1.57434 80.566 1.52033 81.0093 1.52033C81.6844 1.52033 82.2121 1.65573 82.5917 1.91218C82.9716 2.15466 83.161 2.50572 83.1819 2.95139V8.06927H78.8367V2.95139ZM98.54 14.3481V9.46028C98.54 9.17644 98.4762 8.90658 98.3503 8.66335C98.2235 8.4069 98.0551 8.19105 97.8229 8.01524C97.5908 7.82601 97.3162 7.69137 96.9997 7.58354C97.3162 7.48817 97.5908 7.35371 97.8229 7.16449C98.0551 6.97584 98.2235 6.74601 98.3503 6.48956C98.4762 6.24652 98.54 5.96268 98.54 5.67942V3.14059C98.54 2.66829 98.3922 2.26322 98.0966 1.91215C97.7802 1.57431 97.359 1.30445 96.8095 1.11542C96.262 0.926194 95.6076 0.831582 94.869 0.818174H91.1771V14.3481H92.6964V8.02841H94.869C95.5441 8.04182 96.0718 8.16363 96.4514 8.42027C96.8313 8.67672 97.0219 9.01437 97.0425 9.46023V14.3481L98.54 14.3481ZM92.6964 7.13711V1.70953H94.869C95.5441 1.70953 96.0718 1.84474 96.4514 2.10062C96.8313 2.35707 97.0218 2.69492 97.0425 3.14059V5.67942C97.0425 5.96269 96.9363 6.21914 96.7679 6.43556C96.5992 6.66481 96.3464 6.82665 96.029 6.94865C95.7137 7.0831 95.312 7.13711 94.869 7.13711L92.6964 7.13711ZM104.447 1.73616H109.531C109.488 2.41185 109.383 3.03277 109.173 3.59967C108.982 4.15318 108.729 4.68024 108.413 5.16576C108.117 5.65222 107.78 6.12452 107.421 6.59757C107.084 7.05647 106.725 7.52877 106.366 8.01522C106.008 8.51491 105.691 9.04122 105.417 9.59472C105.122 10.1624 104.889 10.7965 104.7 11.4715C104.531 12.1743 104.447 12.9437 104.447 13.8078C104.447 13.9563 104.468 14.0777 104.489 14.1863C104.51 14.2941 104.531 14.3481 104.531 14.3481H111.05V13.4434H105.923C105.966 12.6332 106.071 11.9037 106.282 11.2556C106.472 10.6073 106.725 10.0138 107.042 9.47348C107.336 8.91979 107.675 8.40689 108.032 7.92062C108.392 7.44832 108.751 6.96185 109.11 6.48956C109.467 6.0165 109.785 5.53023 110.079 5.01789C110.354 4.50424 110.607 3.95073 110.775 3.35644C110.944 2.76215 111.05 2.10063 111.05 1.35847C111.05 1.21003 111.029 1.07463 111.007 0.980021C110.987 0.87219 110.966 0.831589 110.966 0.818181H104.447L104.447 1.73616Z" fill="#A50F20"/>
</g>
<defs>
<clipPath id="clip0_149_3146">
<rect width="110.5" height="26" fill="white" transform="translate(0.550049 0.571289)"/>
</clipPath>
</defs>
</svg>
