<svg width="102" height="33" viewBox="0 0 102 33" fill="none" xmlns="http://www.w3.org/2000/svg">
<g clip-path="url(#clip0_149_3206)">
<path fill-rule="evenodd" clip-rule="evenodd" d="M15.6016 2.01125C23.6715 2.01125 30.2533 8.71271 30.2533 16.9293C30.2533 25.1458 23.6715 31.8473 15.6016 31.8473C7.5318 31.8473 0.949997 25.1458 0.949997 16.9293C0.949997 8.71271 7.5318 2.01125 15.6016 2.01125Z" fill="#283F62"/>
<path fill-rule="evenodd" clip-rule="evenodd" d="M27.3594 20.4024C25.8636 25.5627 21.1802 29.3458 15.6596 29.3458C8.9401 29.3458 3.45966 23.7417 3.45966 16.8706C3.45966 11.9661 6.25229 7.7078 10.2943 5.67161C9.11082 8.52471 13.4354 11.9301 19.1697 12.1281C24.6365 12.317 27.7502 15.7121 27.3594 20.4024ZM24.7787 27.0801C22.3701 29.3319 19.1672 30.7089 15.6596 30.7089C8.2059 30.7089 2.12664 24.4924 2.12664 16.8706C2.12664 10.1268 6.88615 4.4843 13.1456 3.27344C13.8356 2.97967 14.6536 2.71859 15.6098 2.49956C7.89038 2.52712 1.60279 8.94525 1.60279 16.8113C1.60279 24.6943 7.91737 31.1237 15.6596 31.1237C18.6592 31.1237 21.444 30.1581 23.7308 28.5174C24.1108 28.0356 24.4603 27.556 24.7787 27.0801Z" fill="#0994DC"/>
<path fill-rule="evenodd" clip-rule="evenodd" d="M24.7787 27.0801C22.3701 29.332 19.1672 30.7089 15.6596 30.7089C8.20592 30.7089 2.12666 24.4925 2.12666 16.8706C2.12666 10.1269 6.88617 4.48435 13.1457 3.27348C11.5742 3.94255 10.6644 4.77991 10.2943 5.67166C6.2523 7.70784 3.45968 11.9661 3.45968 16.8706C3.45968 23.7417 8.94011 29.3458 15.6596 29.3458C21.1802 29.3458 25.8636 25.5627 27.3594 20.4025C27.1898 22.4367 26.3609 24.7145 24.7787 27.0801ZM6.75055 15.7926H8.19064V22.8382H6.75055V15.7926ZM23.1335 15.7926H24.5736V22.8382H23.1335V15.7926ZM8.33796 17.3172H22.9763V21.5041H8.33796V17.3172ZM13.2603 16.8706C13.2603 15.5193 14.3381 14.4172 15.6596 14.4172C16.9811 14.4172 18.0589 15.5193 18.0589 16.8706L19.9699 16.8706C19.9699 14.6931 18.412 12.8763 16.3777 12.5249V11.7652C15.8763 11.6496 15.3951 11.5094 14.9377 11.3484V12.5256C12.9053 12.8785 11.3494 14.6945 11.3494 16.8706" fill="#E9E9E9"/>
<path fill-rule="evenodd" clip-rule="evenodd" d="M15.6596 3.03235C23.1133 3.03235 29.1926 9.24876 29.1926 16.8706C29.1926 20.9058 27.4883 24.5467 24.7787 27.0801C24.4603 27.5561 24.1108 28.0356 23.7308 28.5174C27.3465 25.9232 29.7164 21.6403 29.7164 16.8114C29.7164 8.92837 23.4018 2.49898 15.6596 2.49898C15.6429 2.49898 15.6264 2.49956 15.6098 2.49962C14.6536 2.71864 13.8356 2.97972 13.1456 3.27349C13.9607 3.11581 14.8008 3.03235 15.6596 3.03235ZM15.6596 4.39544C22.3791 4.39544 27.8595 9.99953 27.8595 16.8706C27.8595 18.0966 27.6842 19.2818 27.3594 20.4025C27.7502 15.7122 24.6364 12.317 19.1696 12.1282C13.4354 11.9301 9.1108 8.52477 10.2943 5.67167C11.915 4.85518 13.7364 4.39544 15.6596 4.39544Z" fill="#4FC6F0"/>
<path fill-rule="evenodd" clip-rule="evenodd" d="M16.3777 11.7652V8.38883L17.3896 8.83835L15.657 5.96819L13.9474 8.83835L14.9376 8.39618V11.3484C15.395 11.5094 15.8762 11.6496 16.3777 11.7652ZM15.6596 3.03234C23.1133 3.03234 29.1925 9.24875 29.1925 16.8706C29.1925 20.9058 27.4883 24.5467 24.7786 27.0801C26.3608 24.7145 27.1897 22.4367 27.3593 20.4025C27.6842 19.2818 27.8595 18.0966 27.8595 16.8706C27.8595 9.99952 22.3791 4.39543 15.6596 4.39543C13.7363 4.39543 11.915 4.85517 10.2943 5.67165C10.6644 4.77991 11.5742 3.94254 13.1456 3.27348C13.9607 3.1158 14.8008 3.03234 15.6596 3.03234Z" fill="white"/>
<path fill-rule="evenodd" clip-rule="evenodd" d="M15.6089 2.25745C7.73153 2.28548 1.31535 8.8122 1.31535 16.8114H1.60285C1.60285 8.9453 7.89044 2.52717 15.6099 2.49961C15.6265 2.49961 15.643 2.49897 15.6597 2.49897C23.4019 2.49897 29.7165 8.92837 29.7165 16.8114H30.004C30.004 8.79498 23.5602 2.2568 15.6597 2.2568C15.6427 2.2568 15.6259 2.2574 15.6089 2.25745Z" fill="#E6F7FD"/>
<path fill-rule="evenodd" clip-rule="evenodd" d="M1.31535 16.8113C1.31535 24.8277 7.75909 31.3659 15.6597 31.3659C18.7206 31.3659 21.5624 30.3839 23.8959 28.7154C27.5856 26.0773 30.004 21.7219 30.004 16.8113C29.8061 14.191 29.9769 16.9106 29.7165 16.8113C29.7165 21.6402 27.3465 25.9231 23.7309 28.5174C21.4441 30.1581 18.6592 31.1237 15.6597 31.1237C7.91744 31.1237 1.60285 24.6943 1.60285 16.8113C1.33778 17.3508 1.46244 14.6554 1.31535 16.8113Z" fill="#295588"/>
<path fill-rule="evenodd" clip-rule="evenodd" d="M15.6093 31.236C7.79838 31.2082 1.43626 24.7395 1.43626 16.8113H1.60286C1.60286 24.6943 7.91744 31.1237 15.6597 31.1237C18.6592 31.1237 21.4441 30.1581 23.7309 28.5174C27.3466 25.9231 29.7165 21.6402 29.7165 16.8113H29.8831C29.8831 24.7565 23.4937 31.2366 15.6597 31.2366C15.6428 31.2366 15.6261 31.236 15.6093 31.236Z" fill="#BFEAFB"/>
<path fill-rule="evenodd" clip-rule="evenodd" d="M1.43626 16.8113C1.43626 8.86616 7.82568 2.38604 15.6597 2.38604C18.6948 2.38604 21.5126 3.35926 23.8265 5.01295C27.4851 7.62765 29.8831 11.9443 29.8831 16.8113C29.8064 17.8372 29.7527 18.0295 29.7165 16.8113C29.7165 8.92833 23.4019 2.49894 15.6597 2.49894C15.643 2.49894 15.6265 2.49953 15.6099 2.49958C7.89044 2.52714 1.60286 8.94527 1.60286 16.8113C1.56135 18.0967 1.50582 17.773 1.43626 16.8113Z" fill="#295588"/>
<path d="M58.6055 27.7748C58.6055 28.1229 58.5752 28.4401 58.5145 28.7265C58.4539 29.0072 58.3601 29.2486 58.2333 29.4507C58.112 29.6529 57.9548 29.8101 57.7619 29.9223C57.5744 30.0346 57.351 30.0908 57.0919 30.0908C56.8327 30.0908 56.6066 30.0346 56.4136 29.9223C56.2207 29.8101 56.0607 29.6529 55.9339 29.4507C55.8126 29.2486 55.7216 29.0072 55.661 28.7265C55.6003 28.4401 55.57 28.1229 55.57 27.7748C55.57 27.4324 55.6003 27.118 55.661 26.8316C55.7216 26.5453 55.8126 26.3011 55.9339 26.0989C56.0607 25.8912 56.2207 25.7312 56.4136 25.6189C56.6066 25.5066 56.8327 25.4505 57.0919 25.4505C57.351 25.4505 57.5744 25.5066 57.7619 25.6189C57.9548 25.7312 58.112 25.8912 58.2333 26.0989C58.3601 26.3011 58.4539 26.5453 58.5145 26.8316C58.5752 27.118 58.6055 27.4324 58.6055 27.7748ZM57.8611 27.7748C57.8611 27.5278 57.8473 27.3032 57.8198 27.1011C57.7922 26.8934 57.7481 26.7165 57.6874 26.5706C57.6268 26.419 57.5468 26.3039 57.4475 26.2253C57.3483 26.1411 57.2297 26.0989 57.0919 26.0989C56.9485 26.0989 56.8272 26.1411 56.728 26.2253C56.6342 26.3039 56.5543 26.419 56.4881 26.5706C56.4274 26.7165 56.3833 26.8934 56.3557 27.1011C56.3282 27.3032 56.3144 27.5278 56.3144 27.7748C56.3144 28.0219 56.3282 28.2493 56.3557 28.457C56.3833 28.6591 56.4274 28.8332 56.4881 28.9791C56.5543 29.1251 56.6342 29.2402 56.728 29.3244C56.8272 29.403 56.9485 29.4423 57.0919 29.4423C57.2297 29.4423 57.3483 29.403 57.4475 29.3244C57.5468 29.2402 57.6268 29.1251 57.6874 28.9791C57.7481 28.8332 57.7922 28.6591 57.8198 28.457C57.8473 28.2493 57.8611 28.0219 57.8611 27.7748ZM52.2262 29.9813H51.5066C51.3357 29.403 51.173 28.7377 51.0186 27.9854C50.8697 27.2331 50.7319 26.4246 50.6051 25.56H51.3081C51.3302 25.8014 51.3633 26.0849 51.4074 26.4105C51.4515 26.7306 51.4984 27.0618 51.548 27.4043C51.6031 27.7411 51.6583 28.0696 51.7134 28.3896C51.7685 28.704 51.8209 28.9735 51.8706 29.1981C51.9202 28.9735 51.9753 28.6984 52.036 28.3728C52.1021 28.0471 52.1656 27.7131 52.2262 27.3706C52.2924 27.0281 52.353 26.6969 52.4082 26.3769C52.4633 26.0512 52.5074 25.7789 52.5405 25.56H53.2105C53.2325 25.7789 53.2656 26.0484 53.3097 26.3684C53.3594 26.6885 53.409 27.0225 53.4586 27.3706C53.5138 27.7131 53.5689 28.0471 53.6241 28.3728C53.6792 28.6984 53.7288 28.9735 53.7729 29.1981C53.8226 28.9735 53.8749 28.7012 53.9301 28.3812C53.9852 28.0612 54.0376 27.7327 54.0872 27.3959C54.1424 27.059 54.192 26.7306 54.2361 26.4105C54.2802 26.0849 54.3133 25.8014 54.3354 25.56H55.0136C54.8868 26.4246 54.7462 27.2331 54.5918 27.9854C54.4429 28.7377 54.283 29.403 54.1121 29.9813H53.4173C53.3732 29.8073 53.3235 29.5855 53.2684 29.316C53.2188 29.0409 53.1664 28.7489 53.1112 28.4401C53.0616 28.1314 53.0147 27.8226 52.9706 27.5138C52.9265 27.1994 52.8879 26.913 52.8548 26.6548C52.8217 26.913 52.7776 27.1994 52.7225 27.5138C52.6673 27.8226 52.6095 28.1314 52.5488 28.4401C52.4881 28.7489 52.4275 29.0409 52.3668 29.316C52.3117 29.5855 52.2648 29.8073 52.2262 29.9813ZM47.9703 27.9854C47.9758 28.1987 47.9951 28.3952 48.0282 28.5749C48.0613 28.7489 48.1137 28.9033 48.1853 29.0381C48.2625 29.1672 48.3618 29.2683 48.4831 29.3413C48.6099 29.4142 48.7698 29.4507 48.9628 29.4507C49.1227 29.4507 49.2689 29.4283 49.4012 29.3834C49.5391 29.3328 49.6383 29.2907 49.699 29.257L49.8313 29.8381C49.7596 29.8887 49.6383 29.942 49.4674 29.9981C49.302 30.0599 49.1034 30.0908 48.8719 30.0908C48.5686 30.0908 48.3122 30.0346 48.1026 29.9223C47.8986 29.8101 47.7304 29.6529 47.5981 29.4507C47.4713 29.2486 47.3803 29.0072 47.3251 28.7265C47.27 28.4458 47.2424 28.137 47.2424 27.8001C47.2424 26.986 47.3748 26.3909 47.6394 26.0147C47.9041 25.6386 48.2543 25.4505 48.6899 25.4505C49.1806 25.4505 49.528 25.6386 49.7321 26.0147C49.9361 26.3909 50.0381 26.9187 50.0381 27.598C50.0381 27.6597 50.0381 27.7243 50.0381 27.7917C50.0381 27.8534 50.0353 27.918 50.0298 27.9854H47.9703ZM48.6899 26.0653C48.4528 26.0653 48.2791 26.186 48.1688 26.4274C48.064 26.6688 48.0006 26.9916 47.9786 27.3959H49.2937C49.2937 26.986 49.2523 26.6632 49.1696 26.4274C49.0869 26.186 48.927 26.0653 48.6899 26.0653ZM46.1904 29.9813H45.4791V25.56H46.1904V29.9813ZM45.8348 24.7768C45.7079 24.7768 45.5977 24.7346 45.5039 24.6504C45.4157 24.5606 45.3716 24.4427 45.3716 24.2967C45.3716 24.1507 45.4157 24.0357 45.5039 23.9514C45.5977 23.8616 45.7079 23.8167 45.8348 23.8167C45.9616 23.8167 46.0691 23.8616 46.1573 23.9514C46.2511 24.0357 46.298 24.1507 46.298 24.2967C46.298 24.4427 46.2511 24.5606 46.1573 24.6504C46.0691 24.7346 45.9616 24.7768 45.8348 24.7768ZM42.3212 29.316C42.4811 29.4058 42.652 29.4507 42.834 29.4507C42.9719 29.4507 43.0932 29.4227 43.1979 29.3665C43.3027 29.3104 43.3909 29.2177 43.4626 29.0886C43.5398 28.9595 43.5977 28.7882 43.6363 28.5749C43.6749 28.3615 43.6942 28.0977 43.6942 27.7833C43.6942 27.1769 43.617 26.7446 43.4626 26.4863C43.3137 26.2225 43.0739 26.0905 42.743 26.0905C42.6824 26.0905 42.6162 26.0961 42.5445 26.1074C42.4728 26.113 42.3984 26.127 42.3212 26.1495V29.316ZM42.3212 31.5393H41.6099V25.6779C41.7643 25.6105 41.938 25.5572 42.131 25.5179C42.3295 25.4729 42.5307 25.4505 42.7347 25.4505C43.038 25.4505 43.2972 25.5038 43.5122 25.6105C43.7328 25.7172 43.9093 25.8716 44.0416 26.0737C44.1795 26.2702 44.2787 26.5144 44.3394 26.8064C44.4055 27.0927 44.4386 27.4211 44.4386 27.7917C44.4386 28.5384 44.3201 29.1083 44.083 29.5013C43.8514 29.8943 43.4709 30.0908 42.9415 30.0908C42.8147 30.0908 42.7017 30.0767 42.6024 30.0487C42.5032 30.0262 42.4094 29.9925 42.3212 29.9476V31.5393ZM40.5769 27.7748C40.5769 28.1229 40.5465 28.4401 40.4859 28.7265C40.4252 29.0072 40.3315 29.2486 40.2047 29.4507C40.0834 29.6529 39.9262 29.8101 39.7332 29.9223C39.5457 30.0346 39.3224 30.0908 39.0632 30.0908C38.8041 30.0908 38.578 30.0346 38.385 29.9223C38.192 29.8101 38.0321 29.6529 37.9053 29.4507C37.784 29.2486 37.693 29.0072 37.6323 28.7265C37.5717 28.4401 37.5413 28.1229 37.5413 27.7748C37.5413 27.4324 37.5717 27.118 37.6323 26.8316C37.693 26.5453 37.784 26.3011 37.9053 26.0989C38.0321 25.8912 38.192 25.7312 38.385 25.6189C38.578 25.5066 38.8041 25.4505 39.0632 25.4505C39.3224 25.4505 39.5457 25.5066 39.7332 25.6189C39.9262 25.7312 40.0834 25.8912 40.2047 26.0989C40.3315 26.3011 40.4252 26.5453 40.4859 26.8316C40.5465 27.118 40.5769 27.4324 40.5769 27.7748ZM39.8325 27.7748C39.8325 27.5278 39.8187 27.3032 39.7911 27.1011C39.7635 26.8934 39.7194 26.7165 39.6588 26.5706C39.5981 26.419 39.5182 26.3039 39.4189 26.2253C39.3196 26.1411 39.2011 26.0989 39.0632 26.0989C38.9199 26.0989 38.7986 26.1411 38.6993 26.2253C38.6056 26.3039 38.5256 26.419 38.4594 26.5706C38.3988 26.7165 38.3547 26.8934 38.3271 27.1011C38.2995 27.3032 38.2857 27.5278 38.2857 27.7748C38.2857 28.0219 38.2995 28.2493 38.3271 28.457C38.3547 28.6591 38.3988 28.8332 38.4594 28.9791C38.5256 29.1251 38.6056 29.2402 38.6993 29.3244C38.7986 29.403 38.9199 29.4423 39.0632 29.4423C39.2011 29.4423 39.3196 29.403 39.4189 29.3244C39.5182 29.2402 39.5981 29.1251 39.6588 28.9791C39.7194 28.8332 39.7635 28.6591 39.7911 28.457C39.8187 28.2493 39.8325 28.0219 39.8325 27.7748ZM36.688 27.059C36.688 27.6036 36.6301 28.0668 36.5143 28.4486C36.404 28.8247 36.2413 29.1307 36.0263 29.3665C35.8167 29.6023 35.5603 29.7736 35.2571 29.8802C34.9593 29.9869 34.6257 30.0403 34.2562 30.0403C33.8813 30.0403 33.4843 29.9897 33.0652 29.8887V24.2294C33.2747 24.1844 33.4788 24.1479 33.6773 24.1199C33.8758 24.0918 34.066 24.0778 34.248 24.0778C34.6229 24.0778 34.9593 24.1311 35.2571 24.2378C35.5603 24.3444 35.8167 24.5157 36.0263 24.7515C36.2413 24.9873 36.404 25.2961 36.5143 25.6779C36.6301 26.054 36.688 26.5144 36.688 27.059ZM35.8939 27.059C35.8939 26.6435 35.8636 26.2898 35.803 25.9979C35.7423 25.7059 35.6486 25.4673 35.5217 25.282C35.3949 25.0968 35.2267 24.962 35.0172 24.8778C34.8132 24.7936 34.5678 24.7515 34.2811 24.7515C34.2039 24.7515 34.1267 24.7543 34.0495 24.7599C33.9723 24.7655 33.8923 24.7739 33.8096 24.7852V29.3328C33.8923 29.3441 33.9723 29.3525 34.0495 29.3581C34.1267 29.3637 34.2011 29.3665 34.2728 29.3665C34.565 29.3665 34.8132 29.3244 35.0172 29.2402C35.2212 29.156 35.3866 29.024 35.5135 28.8444C35.6458 28.6591 35.7423 28.4205 35.803 28.1285C35.8636 27.8366 35.8939 27.4801 35.8939 27.059ZM101.49 19.0305C101.49 19.1596 101.443 19.2747 101.35 19.3758C101.261 19.4769 101.143 19.5274 100.994 19.5274C100.845 19.5274 100.727 19.4769 100.638 19.3758C100.55 19.2747 100.506 19.1596 100.506 19.0305C100.506 18.8958 100.55 18.7779 100.638 18.6768C100.727 18.5757 100.845 18.5252 100.994 18.5252C101.143 18.5252 101.261 18.5757 101.35 18.6768C101.443 18.7779 101.49 18.8958 101.49 19.0305ZM99.6385 17.2114C99.6385 17.5595 99.6081 17.8767 99.5475 18.1631C99.4868 18.4438 99.3931 18.6852 99.2663 18.8873C99.145 19.0895 98.9878 19.2467 98.7948 19.3589C98.6073 19.4712 98.384 19.5274 98.1248 19.5274C97.8657 19.5274 97.6396 19.4712 97.4466 19.3589C97.2536 19.2467 97.0937 19.0895 96.9669 18.8873C96.8456 18.6852 96.7546 18.4438 96.6939 18.1631C96.6333 17.8767 96.6029 17.5595 96.6029 17.2114C96.6029 16.869 96.6333 16.5546 96.6939 16.2682C96.7546 15.9819 96.8456 15.7377 96.9669 15.5355C97.0937 15.3278 97.2536 15.1678 97.4466 15.0555C97.6396 14.9432 97.8657 14.8871 98.1248 14.8871C98.384 14.8871 98.6073 14.9432 98.7948 15.0555C98.9878 15.1678 99.145 15.3278 99.2663 15.5355C99.3931 15.7377 99.4868 15.9819 99.5475 16.2682C99.6081 16.5546 99.6385 16.869 99.6385 17.2114ZM98.8941 17.2114C98.8941 16.9644 98.8803 16.7398 98.8527 16.5377C98.8251 16.33 98.781 16.1531 98.7204 16.0072C98.6597 15.8556 98.5797 15.7405 98.4805 15.6619C98.3812 15.5777 98.2627 15.5355 98.1248 15.5355C97.9815 15.5355 97.8602 15.5777 97.7609 15.6619C97.6672 15.7405 97.5872 15.8556 97.521 16.0072C97.4604 16.1531 97.4163 16.33 97.3887 16.5377C97.3611 16.7398 97.3473 16.9644 97.3473 17.2114C97.3473 17.4585 97.3611 17.6859 97.3887 17.8936C97.4163 18.0957 97.4604 18.2698 97.521 18.4157C97.5872 18.5617 97.6672 18.6768 97.7609 18.761C97.8602 18.8396 97.9815 18.8789 98.1248 18.8789C98.2627 18.8789 98.3812 18.8396 98.4805 18.761C98.5797 18.6768 98.6597 18.5617 98.7204 18.4157C98.781 18.2698 98.8251 18.0957 98.8527 17.8936C98.8803 17.6859 98.8941 17.4585 98.8941 17.2114ZM95.7392 19.0305C95.7392 19.1596 95.6924 19.2747 95.5986 19.3758C95.5104 19.4769 95.3918 19.5274 95.243 19.5274C95.0941 19.5274 94.9755 19.4769 94.8873 19.3758C94.7991 19.2747 94.755 19.1596 94.755 19.0305C94.755 18.8958 94.7991 18.7779 94.8873 18.6768C94.9755 18.5757 95.0941 18.5252 95.243 18.5252C95.3918 18.5252 95.5104 18.5757 95.5986 18.6768C95.6924 18.7779 95.7392 18.8958 95.7392 19.0305ZM93.8874 17.2114C93.8874 17.5595 93.8571 17.8767 93.7964 18.1631C93.7357 18.4438 93.642 18.6852 93.5152 18.8873C93.3939 19.0895 93.2367 19.2467 93.0437 19.3589C92.8562 19.4712 92.6329 19.5274 92.3738 19.5274C92.1146 19.5274 91.8885 19.4712 91.6955 19.3589C91.5025 19.2467 91.3426 19.0895 91.2158 18.8873C91.0945 18.6852 91.0035 18.4438 90.9428 18.1631C90.8822 17.8767 90.8519 17.5595 90.8519 17.2114C90.8519 16.869 90.8822 16.5546 90.9428 16.2682C91.0035 15.9819 91.0945 15.7377 91.2158 15.5355C91.3426 15.3278 91.5025 15.1678 91.6955 15.0555C91.8885 14.9432 92.1146 14.8871 92.3738 14.8871C92.6329 14.8871 92.8562 14.9432 93.0437 15.0555C93.2367 15.1678 93.3939 15.3278 93.5152 15.5355C93.642 15.7377 93.7357 15.9819 93.7964 16.2682C93.8571 16.5546 93.8874 16.869 93.8874 17.2114ZM93.143 17.2114C93.143 16.9644 93.1292 16.7398 93.1016 16.5377C93.0741 16.33 93.0299 16.1531 92.9693 16.0072C92.9086 15.8556 92.8287 15.7405 92.7294 15.6619C92.6302 15.5777 92.5116 15.5355 92.3738 15.5355C92.2304 15.5355 92.1091 15.5777 92.0098 15.6619C91.9161 15.7405 91.8361 15.8556 91.77 16.0072C91.7093 16.1531 91.6652 16.33 91.6376 16.5377C91.6101 16.7398 91.5963 16.9644 91.5963 17.2114C91.5963 17.4585 91.6101 17.6859 91.6376 17.8936C91.6652 18.0957 91.7093 18.2698 91.77 18.4157C91.8361 18.5617 91.9161 18.6768 92.0098 18.761C92.1091 18.8396 92.2304 18.8789 92.3738 18.8789C92.5116 18.8789 92.6302 18.8396 92.7294 18.761C92.8287 18.6768 92.9086 18.5617 92.9693 18.4157C93.0299 18.2698 93.0741 18.0957 93.1016 17.8936C93.1292 17.6859 93.143 17.4585 93.143 17.2114ZM88.5377 15.5355C88.4164 15.7433 88.2786 15.9903 88.1242 16.2766C87.9698 16.563 87.8154 16.8577 87.661 17.1609C87.5121 17.4585 87.3687 17.7532 87.2309 18.0452C87.0985 18.3315 86.991 18.5814 86.9083 18.7947H88.5956V19.4179H86.1722V18.8958C86.2604 18.6487 86.3734 18.3736 86.5113 18.0704C86.6491 17.7673 86.7925 17.4641 86.9414 17.1609C87.0958 16.8577 87.2447 16.5714 87.388 16.3019C87.5369 16.0268 87.6637 15.7994 87.7685 15.6198H86.2714V14.9966H88.5377V15.5355ZM83.8171 19.0305C83.8171 19.1596 83.7702 19.2747 83.6765 19.3758C83.5882 19.4769 83.4697 19.5274 83.3208 19.5274C83.1719 19.5274 83.0534 19.4769 82.9651 19.3758C82.8769 19.2747 82.8328 19.1596 82.8328 19.0305C82.8328 18.8958 82.8769 18.7779 82.9651 18.6768C83.0534 18.5757 83.1719 18.5252 83.3208 18.5252C83.4697 18.5252 83.5882 18.5757 83.6765 18.6768C83.7702 18.7779 83.8171 18.8958 83.8171 19.0305ZM79.8486 18.7526C80.0085 18.8424 80.1794 18.8873 80.3614 18.8873C80.4992 18.8873 80.6205 18.8593 80.7253 18.8031C80.8301 18.747 80.9183 18.6543 80.99 18.5252C81.0672 18.3961 81.1251 18.2248 81.1637 18.0115C81.2023 17.7982 81.2216 17.5343 81.2216 17.2199C81.2216 16.6135 81.1444 16.1812 80.99 15.9229C80.8411 15.6591 80.6012 15.5271 80.2704 15.5271C80.2097 15.5271 80.1436 15.5327 80.0719 15.544C80.0002 15.5496 79.9258 15.5636 79.8486 15.5861V18.7526ZM79.8486 20.9759H79.1372V15.1145C79.2916 15.0471 79.4653 14.9938 79.6583 14.9545C79.8568 14.9095 80.0581 14.8871 80.2621 14.8871C80.5654 14.8871 80.8246 14.9404 81.0396 15.0471C81.2602 15.1538 81.4366 15.3082 81.569 15.5103C81.7068 15.7068 81.8061 15.951 81.8667 16.243C81.9329 16.5293 81.966 16.8577 81.966 17.2283C81.966 17.975 81.8474 18.5449 81.6103 18.9379C81.3787 19.3309 80.9983 19.5274 80.4689 19.5274C80.3421 19.5274 80.229 19.5133 80.1298 19.4853C80.0305 19.4628 79.9368 19.4291 79.8486 19.3842V20.9759ZM76.5947 18.8958C76.8925 18.8958 77.1213 18.8116 77.2813 18.6431C77.4467 18.4747 77.5294 18.2473 77.5294 17.961C77.5294 17.8094 77.5046 17.6746 77.455 17.5567C77.4053 17.4388 77.3392 17.3322 77.2564 17.2367C77.1792 17.1413 77.0883 17.0542 76.9835 16.9756C76.8787 16.897 76.7712 16.8184 76.6609 16.7398C76.5341 16.65 76.4018 16.5546 76.2639 16.4535C76.126 16.3524 75.9992 16.2345 75.8834 16.0998C75.7731 15.965 75.6822 15.8078 75.6105 15.6282C75.5388 15.4485 75.503 15.238 75.503 14.9966C75.503 14.7608 75.5415 14.5474 75.6187 14.3565C75.7015 14.1656 75.8117 14.0028 75.9496 13.8681C76.093 13.7333 76.2611 13.6295 76.4541 13.5565C76.6526 13.4835 76.8649 13.447 77.091 13.447C77.3116 13.447 77.5156 13.4751 77.7031 13.5312C77.8906 13.5874 78.0477 13.6547 78.1746 13.7333L77.943 14.3313C77.8272 14.2527 77.7003 14.1937 77.5625 14.1544C77.4301 14.1095 77.2895 14.087 77.1407 14.087C76.8705 14.087 76.6526 14.1628 76.4872 14.3144C76.3273 14.4604 76.2474 14.6765 76.2474 14.9629C76.2474 15.1201 76.2722 15.2576 76.3218 15.3755C76.3769 15.4934 76.4459 15.6001 76.5286 15.6956C76.6168 15.791 76.7161 15.878 76.8263 15.9566C76.9421 16.0352 77.0634 16.1166 77.1903 16.2009C77.3171 16.2851 77.4467 16.3777 77.579 16.4788C77.7114 16.5798 77.8299 16.6977 77.9347 16.8325C78.045 16.9616 78.1332 17.116 78.1994 17.2957C78.271 17.4697 78.3069 17.6774 78.3069 17.9189C78.3069 18.1378 78.2738 18.3456 78.2076 18.5421C78.1415 18.7386 78.0367 18.9126 77.8933 19.0642C77.7555 19.2102 77.579 19.3281 77.364 19.4179C77.1544 19.5021 76.9063 19.5442 76.6196 19.5442C76.3549 19.5442 76.1233 19.5133 75.9248 19.4516C75.7263 19.3898 75.5498 19.3084 75.3954 19.2074L75.627 18.601C75.7704 18.6908 75.9165 18.7638 76.0654 18.82C76.2198 18.8705 76.3962 18.8958 76.5947 18.8958ZM70.2281 19.4179V13.0091L70.9394 12.8827V15.0218C71.0442 14.9881 71.1572 14.9601 71.2786 14.9376C71.4054 14.9152 71.5322 14.9039 71.659 14.9039C71.841 14.9039 72.0119 14.9348 72.1718 14.9966C72.3318 15.0527 72.4696 15.151 72.5854 15.2913C72.7067 15.4317 72.8005 15.6226 72.8666 15.864C72.9383 16.0998 72.9742 16.3945 72.9742 16.7483V19.4179H72.2628V16.8072C72.2628 16.3693 72.2077 16.0493 72.0974 15.8471C71.9871 15.645 71.7803 15.544 71.4771 15.544C71.3172 15.544 71.138 15.572 70.9394 15.6282V19.4179H70.2281ZM68.6275 19.5274C68.3297 19.5274 68.0816 19.4684 67.8831 19.3505C67.6846 19.2326 67.5219 19.0726 67.3951 18.8705C67.2738 18.6628 67.1856 18.4185 67.1304 18.1378C67.0808 17.8571 67.056 17.5511 67.056 17.2199C67.056 16.49 67.1856 15.9201 67.4447 15.5103C67.7094 15.0948 68.1064 14.8871 68.6358 14.8871C68.7957 14.8871 68.9391 14.9067 69.0659 14.946C69.1927 14.9853 69.3113 15.0359 69.4215 15.0976L69.2396 15.6956C69.0686 15.5833 68.8784 15.5271 68.6689 15.5271C68.3711 15.5271 68.1505 15.6647 68.0072 15.9398C67.8693 16.2149 67.8004 16.6416 67.8004 17.2199C67.8004 17.4613 67.8142 17.6859 67.8417 17.8936C67.8693 18.0957 67.9162 18.2698 67.9824 18.4157C68.054 18.5617 68.145 18.6768 68.2553 18.761C68.3711 18.8452 68.5172 18.8873 68.6937 18.8873C68.815 18.8873 68.9225 18.8733 69.0163 18.8452C69.1155 18.8115 69.2092 18.7694 69.2975 18.7189L69.4546 19.2832C69.3664 19.3449 69.2478 19.4011 69.099 19.4516C68.9556 19.5021 68.7984 19.5274 68.6275 19.5274ZM65.1063 18.4999C65.2662 17.9385 65.4123 17.3743 65.5447 16.8072C65.677 16.2402 65.8038 15.6366 65.9252 14.9966H66.6282C66.5455 15.4064 66.4545 15.8107 66.3553 16.2093C66.2615 16.6079 66.1623 16.9925 66.0575 17.363C65.9582 17.7336 65.8562 18.0845 65.7515 18.4157C65.6522 18.7414 65.5585 19.0389 65.4702 19.3084C65.3655 19.6228 65.2635 19.8867 65.1642 20.1001C65.0705 20.319 64.9657 20.4931 64.8499 20.6222C64.7396 20.7569 64.6183 20.8524 64.486 20.9085C64.3536 20.9703 64.1965 21.0012 64.0145 21.0012C63.9152 21.0012 63.816 20.9871 63.7167 20.9591C63.6175 20.9366 63.5348 20.9113 63.4686 20.8833L63.6009 20.2938C63.7443 20.3555 63.8794 20.3864 64.0062 20.3864C64.1661 20.3864 64.2957 20.3274 64.395 20.2095C64.4942 20.0916 64.5907 19.9148 64.6845 19.679L64.7672 19.4684C64.6624 19.1765 64.5549 18.8536 64.4446 18.4999C64.3398 18.1406 64.2351 17.7673 64.1303 17.3799C64.031 16.9925 63.9345 16.5967 63.8408 16.1924C63.7471 15.7826 63.6616 15.384 63.5844 14.9966H64.3371C64.3812 15.2604 64.4336 15.5496 64.4942 15.864C64.5549 16.1784 64.6183 16.4928 64.6845 16.8072C64.7562 17.1216 64.8278 17.4276 64.8995 17.7252C64.9712 18.0171 65.0401 18.2754 65.1063 18.4999ZM60.2284 15.1229C60.4324 15.0611 60.6529 15.0106 60.89 14.9713C61.1272 14.9264 61.345 14.9039 61.5435 14.9039C61.7585 14.9039 61.9543 14.9348 62.1307 14.9966C62.3072 15.0527 62.4561 15.151 62.5774 15.2913C62.7042 15.4317 62.8007 15.6226 62.8669 15.864C62.9386 16.0998 62.9744 16.3945 62.9744 16.7483V19.4179H62.2631V16.8072C62.2631 16.3693 62.2079 16.0493 62.0976 15.8471C61.9874 15.645 61.7806 15.544 61.4773 15.544C61.3174 15.544 61.1382 15.572 60.9397 15.6282V19.4179H60.2284V15.1229ZM59.3501 19.5021C58.942 19.4909 58.6498 19.3898 58.4733 19.1989C58.2969 19.0024 58.2086 18.6936 58.2086 18.2726V13.0091L58.92 12.8827V18.2894C58.92 18.4859 58.9585 18.6291 59.0357 18.7189C59.1129 18.8031 59.248 18.8621 59.441 18.8958L59.3501 19.5021ZM54.705 15.0892C54.8484 15.0274 55 14.9797 55.1599 14.946C55.3198 14.9067 55.4935 14.8871 55.681 14.8871C56.067 14.8871 56.3813 15.0106 56.6239 15.2576C56.8665 15.4991 56.9878 15.878 56.9878 16.3946V19.3253C56.7893 19.3814 56.5853 19.4263 56.3758 19.46C56.1718 19.4937 55.9705 19.5105 55.772 19.5105C55.5735 19.5105 55.386 19.4853 55.2095 19.4347C55.0386 19.3842 54.887 19.3028 54.7546 19.1905C54.6278 19.0782 54.5258 18.9379 54.4486 18.7694C54.3714 18.5954 54.3328 18.3849 54.3328 18.1378C54.3328 17.9076 54.3659 17.7083 54.432 17.5399C54.5037 17.3658 54.6002 17.2227 54.7215 17.1104C54.8428 16.9925 54.9862 16.9055 55.1516 16.8493C55.3171 16.7876 55.4963 16.7567 55.6893 16.7567C55.8712 16.7567 56.0725 16.7791 56.2931 16.824V16.4198C56.2931 16.0942 56.2297 15.8668 56.1028 15.7377C55.9815 15.6085 55.8051 15.544 55.5735 15.544C55.4466 15.544 55.3253 15.558 55.2095 15.5861C55.0993 15.6085 54.9807 15.6478 54.8539 15.704L54.705 15.0892ZM55.0441 18.1294C55.0441 18.3877 55.1103 18.5786 55.2426 18.7021C55.375 18.8256 55.5624 18.8873 55.8051 18.8873C55.9539 18.8873 56.1166 18.8677 56.2931 18.8284V17.422C56.1276 17.3771 55.965 17.3546 55.8051 17.3546C55.7003 17.3546 55.601 17.3686 55.5073 17.3967C55.4136 17.4192 55.3308 17.4613 55.2592 17.523C55.193 17.5792 55.1406 17.6578 55.102 17.7588C55.0634 17.8543 55.0441 17.9778 55.0441 18.1294ZM50.6486 15.1229C50.8526 15.0611 51.0732 15.0106 51.3103 14.9713C51.5474 14.9264 51.7652 14.9039 51.9637 14.9039C52.1788 14.9039 52.3745 14.9348 52.551 14.9966C52.7274 15.0527 52.8763 15.151 52.9976 15.2913C53.1245 15.4317 53.221 15.6226 53.2871 15.864C53.3588 16.0998 53.3947 16.3945 53.3947 16.7483V19.4179H52.6833V16.8072C52.6833 16.3693 52.6282 16.0493 52.5179 15.8471C52.4076 15.645 52.2008 15.544 51.8976 15.544C51.7377 15.544 51.5584 15.572 51.3599 15.6282V19.4179H50.6486V15.1229ZM49.3627 19.2916C49.291 19.3197 49.2028 19.3477 49.098 19.3758C48.9988 19.3982 48.8912 19.4179 48.7754 19.4347C48.6652 19.4572 48.5521 19.474 48.4363 19.4853C48.326 19.5021 48.224 19.5105 48.1303 19.5105C47.9042 19.5105 47.6974 19.4825 47.5099 19.4263C47.3225 19.3758 47.1626 19.2832 47.0302 19.1484C46.8979 19.0137 46.7959 18.8312 46.7242 18.601C46.6525 18.3652 46.6167 18.0704 46.6167 17.7167V14.9966H47.328V17.6915C47.328 18.1238 47.3914 18.4298 47.5182 18.6094C47.6506 18.7835 47.8491 18.8705 48.1138 18.8705C48.202 18.8705 48.2902 18.8677 48.3784 18.8621C48.4667 18.8508 48.5576 18.8312 48.6514 18.8031V14.9966H49.3627V19.2916ZM40.9073 15.1229C41.1003 15.0611 41.3099 15.0106 41.5359 14.9713C41.762 14.9264 41.9688 14.9039 42.1563 14.9039C42.3493 14.9039 42.523 14.9292 42.6774 14.9797C42.8373 15.0302 42.9779 15.1145 43.0992 15.2324C43.2426 15.1369 43.397 15.0583 43.5624 14.9966C43.7278 14.9348 43.9098 14.9039 44.1083 14.9039C44.3068 14.9039 44.486 14.9348 44.6459 14.9966C44.8113 15.0527 44.952 15.151 45.0677 15.2913C45.1835 15.4317 45.2745 15.6226 45.3407 15.864C45.4069 16.0998 45.4399 16.3945 45.4399 16.7483V19.4179H44.7286V16.8072C44.7286 16.3693 44.679 16.0493 44.5797 15.8471C44.4805 15.645 44.293 15.544 44.0173 15.544C43.9125 15.544 43.805 15.5636 43.6947 15.6029C43.59 15.6422 43.4907 15.6956 43.397 15.7629C43.4411 15.8921 43.4742 16.038 43.4962 16.2009C43.5183 16.3637 43.5293 16.5461 43.5293 16.7483V19.4179H42.818V16.8072C42.818 16.3693 42.7684 16.0493 42.6691 15.8471C42.5698 15.645 42.3824 15.544 42.1067 15.544C41.9633 15.544 41.8006 15.572 41.6187 15.6282V19.4179H40.9073V15.1229ZM39.8661 17.2114C39.8661 17.5595 39.8357 17.8767 39.7751 18.1631C39.7144 18.4438 39.6207 18.6852 39.4939 18.8873C39.3725 19.0895 39.2154 19.2467 39.0224 19.3589C38.8349 19.4712 38.6116 19.5274 38.3524 19.5274C38.0933 19.5274 37.8672 19.4712 37.6742 19.3589C37.4812 19.2467 37.3213 19.0895 37.1945 18.8873C37.0731 18.6852 36.9822 18.4438 36.9215 18.1631C36.8609 17.8767 36.8305 17.5595 36.8305 17.2114C36.8305 16.869 36.8609 16.5546 36.9215 16.2682C36.9822 15.9819 37.0731 15.7377 37.1945 15.5355C37.3213 15.3278 37.4812 15.1678 37.6742 15.0555C37.8672 14.9432 38.0933 14.8871 38.3524 14.8871C38.6116 14.8871 38.8349 14.9432 39.0224 15.0555C39.2154 15.1678 39.3725 15.3278 39.4939 15.5355C39.6207 15.7377 39.7144 15.9819 39.7751 16.2682C39.8357 16.5546 39.8661 16.869 39.8661 17.2114ZM39.1217 17.2114C39.1217 16.9644 39.1079 16.7398 39.0803 16.5377C39.0527 16.33 39.0086 16.1531 38.948 16.0072C38.8873 15.8556 38.8073 15.7405 38.7081 15.6619C38.6088 15.5777 38.4903 15.5355 38.3524 15.5355C38.2091 15.5355 38.0878 15.5777 37.9885 15.6619C37.8948 15.7405 37.8148 15.8556 37.7486 16.0072C37.688 16.1531 37.6439 16.33 37.6163 16.5377C37.5887 16.7398 37.5749 16.9644 37.5749 17.2114C37.5749 17.4585 37.5887 17.6859 37.6163 17.8936C37.6439 18.0957 37.688 18.2698 37.7486 18.4157C37.8148 18.5617 37.8948 18.6768 37.9885 18.761C38.0878 18.8396 38.2091 18.8789 38.3524 18.8789C38.4903 18.8789 38.6088 18.8396 38.7081 18.761C38.8073 18.6768 38.8873 18.5617 38.948 18.4157C39.0086 18.2698 39.0527 18.0957 39.0803 17.8936C39.1079 17.6859 39.1217 17.4585 39.1217 17.2114ZM36.3489 13.5817C36.2275 13.7726 36.0897 13.9832 35.9353 14.2134C35.7864 14.4435 35.632 14.6822 35.4721 14.9292C35.3122 15.1706 35.1495 15.4092 34.9841 15.645C34.8242 15.8808 34.6698 16.0998 34.5209 16.3019C34.6863 16.4703 34.8656 16.6837 35.0586 16.942C35.2515 17.1946 35.4418 17.4641 35.6293 17.7504C35.8167 18.0311 35.9932 18.3175 36.1586 18.6094C36.324 18.9014 36.4564 19.1709 36.5556 19.4179H35.7202C35.6044 19.1596 35.4694 18.8958 35.315 18.6263C35.1661 18.3568 35.0062 18.0985 34.8352 17.8515C34.6698 17.5988 34.4989 17.3658 34.3224 17.1525C34.1515 16.9391 33.9833 16.7595 33.8179 16.6135V19.4179H33.0735V13.5817H33.8179V16.1587C33.9612 15.9735 34.1129 15.7629 34.2728 15.5271C34.4327 15.2913 34.5898 15.0555 34.7442 14.8197C34.9042 14.5839 35.053 14.3593 35.1909 14.146C35.3287 13.927 35.4445 13.7389 35.5383 13.5817H36.3489ZM70.7086 8.72818C70.7086 9.04259 70.6673 9.30646 70.5846 9.51981C70.5074 9.73877 70.3998 9.91563 70.262 10.0504C70.1241 10.1851 69.9615 10.2834 69.774 10.3451C69.592 10.4069 69.3963 10.4378 69.1867 10.4378C69.0103 10.4378 68.8338 10.4181 68.6574 10.3788C68.4809 10.3395 68.3182 10.2806 68.1694 10.202L68.3182 9.59561C68.4175 9.65175 68.5388 9.70228 68.6822 9.74719C68.8255 9.79211 68.9744 9.81457 69.1288 9.81457C69.399 9.81457 69.6113 9.73596 69.7657 9.57876C69.9201 9.42156 69.9973 9.15207 69.9973 8.77029V8.55974C69.9091 8.59905 69.8153 8.63274 69.7161 8.66081C69.6168 8.68327 69.5038 8.69449 69.377 8.69449C68.8586 8.69449 68.4781 8.51483 68.2355 8.15551C67.9984 7.79058 67.8799 7.27686 67.8799 6.61436C67.8799 6.26065 67.9102 5.94344 67.9709 5.66272C68.037 5.37639 68.1363 5.13497 68.2686 4.93847C68.4065 4.73635 68.5829 4.58475 68.798 4.48369C69.013 4.37702 69.2749 4.32369 69.5837 4.32369C69.7878 4.32369 69.9863 4.34614 70.1793 4.39106C70.3778 4.43036 70.5542 4.4837 70.7086 4.55107V8.72818ZM69.9973 5.02268C69.9201 5.00022 69.8457 4.98618 69.774 4.98057C69.7023 4.96934 69.6361 4.96373 69.5755 4.96373C69.2446 4.96373 69.002 5.09286 68.8476 5.35112C68.6987 5.60938 68.6243 6.03046 68.6243 6.61436C68.6243 7.14211 68.6987 7.51548 68.8476 7.73444C68.9965 7.94778 69.2088 8.05445 69.4845 8.05445C69.5782 8.05445 69.6664 8.04322 69.7492 8.02077C69.8374 7.99831 69.9201 7.96742 69.9973 7.92812V5.02268ZM66.8421 8.72818C66.7704 8.75625 66.6822 8.78432 66.5774 8.81239C66.4782 8.83485 66.3706 8.8545 66.2548 8.87134C66.1446 8.8938 66.0315 8.91065 65.9157 8.92188C65.8054 8.93872 65.7034 8.94714 65.6097 8.94714C65.3836 8.94714 65.1768 8.91907 64.9893 8.86292C64.8019 8.8124 64.6419 8.71976 64.5096 8.58502C64.3773 8.45027 64.2753 8.2678 64.2036 8.03761C64.1319 7.8018 64.0961 7.50704 64.0961 7.15334V4.43317H64.8074V7.12808C64.8074 7.56039 64.8708 7.86637 64.9976 8.04603C65.1299 8.22007 65.3285 8.30711 65.5931 8.30711C65.6814 8.30711 65.7696 8.30429 65.8578 8.29868C65.946 8.28745 66.037 8.2678 66.1308 8.23972V4.43317H66.8421V8.72818ZM61.4394 5.73009L62.1342 5.33428V2.44568L62.8455 2.31935V4.92162L63.3087 4.65213L63.5817 5.149L62.8455 5.57009V7.72601C62.8455 7.92251 62.8841 8.06568 62.9613 8.15551C63.0385 8.23973 63.1736 8.29868 63.3666 8.33237L63.2757 8.93872C62.8676 8.92749 62.5754 8.82644 62.3989 8.63555C62.2224 8.43904 62.1342 8.13025 62.1342 7.70917V5.98274L61.7124 6.21855L61.4394 5.73009ZM59.9275 8.34079C60.137 8.34079 60.2942 8.28183 60.3989 8.16393C60.5092 8.04041 60.5644 7.88041 60.5644 7.68391C60.5644 7.56039 60.5423 7.45652 60.4982 7.37231C60.4541 7.28248 60.3962 7.20387 60.3245 7.1365C60.2528 7.06913 60.1701 7.01017 60.0764 6.95964C59.9826 6.9035 59.8889 6.84456 59.7951 6.7828C59.7014 6.72665 59.6104 6.66209 59.5222 6.5891C59.434 6.5105 59.354 6.42347 59.2823 6.32802C59.2162 6.22696 59.161 6.11468 59.1169 5.99116C59.0783 5.86203 59.059 5.71325 59.059 5.54482C59.059 5.17988 59.1693 4.88512 59.3899 4.66055C59.6159 4.43597 59.9192 4.32369 60.2997 4.32369C60.4596 4.32369 60.6112 4.34614 60.7546 4.39106C60.898 4.43036 61.0165 4.47527 61.1103 4.5258L60.9531 5.10689C60.8539 5.05075 60.7546 5.00864 60.6554 4.98057C60.5561 4.9525 60.4486 4.93847 60.3328 4.93847C60.1563 4.93847 60.0157 4.9918 59.9109 5.09847C59.8062 5.19953 59.7538 5.34831 59.7538 5.54482C59.7538 5.6571 59.7731 5.75536 59.8117 5.83958C59.8503 5.91818 59.8999 5.99116 59.9606 6.05853C60.0267 6.12029 60.0984 6.17925 60.1756 6.23539C60.2583 6.29153 60.3438 6.34487 60.432 6.3954C60.5368 6.45716 60.6388 6.52453 60.7381 6.59752C60.8428 6.67051 60.9338 6.75753 61.011 6.85859C61.0937 6.95403 61.1599 7.06913 61.2095 7.20387C61.2592 7.333 61.284 7.4902 61.284 7.67548C61.284 8.06287 61.1709 8.37447 60.9448 8.61028C60.7243 8.84608 60.3989 8.96399 59.9688 8.96399C59.7483 8.96399 59.5498 8.9331 59.3733 8.87134C59.1969 8.80959 59.0645 8.75345 58.9763 8.70292L59.1252 8.10498C59.2079 8.1499 59.3182 8.20043 59.456 8.25658C59.5994 8.31272 59.7566 8.34079 59.9275 8.34079ZM56.3888 8.98083C55.854 8.98083 55.4514 8.82644 55.1812 8.51764C54.9166 8.20885 54.7842 7.7204 54.7842 7.05229V3.01834H55.5286V6.98491C55.5286 7.42845 55.592 7.7625 55.7189 7.98708C55.8457 8.20604 56.0745 8.31553 56.4054 8.31553C56.7472 8.31553 56.9788 8.20323 57.1002 7.97866C57.227 7.74847 57.2904 7.41722 57.2904 6.98491V3.01834H58.0348V7.05229C58.0348 7.70917 57.8969 8.19482 57.6212 8.50922C57.3455 8.82363 56.9347 8.98083 56.3888 8.98083ZM51.1771 5.09847C51.0172 5.00864 50.8462 4.96373 50.6643 4.96373C50.5264 4.96373 50.4051 4.9918 50.3003 5.04794C50.1956 5.10408 50.1046 5.19673 50.0274 5.32586C49.9557 5.45499 49.9005 5.62623 49.8619 5.83958C49.8233 6.05292 49.804 6.3168 49.804 6.6312C49.804 7.23756 49.8812 7.67268 50.0356 7.93655C50.1955 8.19482 50.4354 8.32395 50.7552 8.32395C50.8159 8.32395 50.8821 8.32114 50.9537 8.31553C51.0254 8.3043 51.0999 8.28745 51.1771 8.265V5.09847ZM51.1771 2.44568L51.8884 2.31935V8.7366C51.734 8.80397 51.5575 8.85731 51.359 8.89662C51.1605 8.94153 50.9593 8.96399 50.7552 8.96399C50.1597 8.96399 49.7268 8.77029 49.4567 8.3829C49.192 7.99551 49.0596 7.4116 49.0596 6.6312C49.0596 6.2775 49.0872 5.96028 49.1424 5.67956C49.203 5.39323 49.294 5.15181 49.4153 4.95531C49.5421 4.75319 49.702 4.5988 49.895 4.49212C50.088 4.37983 50.3169 4.32369 50.5815 4.32369C50.7084 4.32369 50.8159 4.33772 50.9041 4.3658C50.9979 4.38826 51.0888 4.42194 51.1771 4.46685V2.44568ZM45.7876 4.5258C45.931 4.46404 46.0826 4.41632 46.2425 4.38264C46.4024 4.34334 46.5761 4.32369 46.7636 4.32369C47.1496 4.32369 47.4639 4.4472 47.7065 4.69424C47.9491 4.93566 48.0705 5.31463 48.0705 5.83116V8.76187C47.8719 8.81802 47.6679 8.86293 47.4584 8.89662C47.2544 8.9303 47.0531 8.94714 46.8546 8.94714C46.6561 8.94714 46.4686 8.92187 46.2921 8.87134C46.1212 8.82081 45.9696 8.7394 45.8372 8.62712C45.7104 8.51483 45.6084 8.37448 45.5312 8.20604C45.454 8.032 45.4154 7.82146 45.4154 7.57442C45.4154 7.34423 45.4485 7.14492 45.5146 6.97649C45.5863 6.80245 45.6828 6.65928 45.8041 6.54699C45.9255 6.42909 46.0688 6.34206 46.2342 6.28592C46.3997 6.22416 46.5789 6.19328 46.7719 6.19328C46.9538 6.19328 47.1551 6.21573 47.3757 6.26065V5.85642C47.3757 5.53078 47.3123 5.3034 47.1854 5.17426C47.0641 5.04513 46.8877 4.98057 46.6561 4.98057C46.5293 4.98057 46.4079 4.99461 46.2921 5.02268C46.1819 5.04514 46.0633 5.08444 45.9365 5.14058L45.7876 4.5258ZM46.1267 7.566C46.1267 7.82426 46.1929 8.01515 46.3252 8.13867C46.4576 8.26219 46.645 8.32395 46.8877 8.32395C47.0366 8.32395 47.1992 8.3043 47.3757 8.265V6.85859C47.2102 6.81367 47.0476 6.79122 46.8877 6.79122C46.7829 6.79122 46.6836 6.80524 46.5899 6.83332C46.4962 6.85578 46.4135 6.89788 46.3418 6.95964C46.2756 7.01579 46.2232 7.09439 46.1846 7.19545C46.146 7.29089 46.1267 7.41441 46.1267 7.566ZM43.0069 5.73009L43.7017 5.33428V2.44568L44.413 2.31935V4.92162L44.8762 4.65213L45.1492 5.149L44.413 5.57009V7.72601C44.413 7.92251 44.4516 8.06568 44.5288 8.15551C44.606 8.23973 44.7411 8.29868 44.9341 8.33237L44.8431 8.93872C44.4351 8.92749 44.1428 8.82644 43.9664 8.63555C43.7899 8.43904 43.7017 8.13025 43.7017 7.70917V5.98274L43.2799 6.21855L43.0069 5.73009ZM42.8685 4.43317C42.6369 4.83741 42.4136 5.20795 42.1985 5.54482C41.989 5.87606 41.7795 6.18767 41.5699 6.47962C41.7023 6.63682 41.8374 6.81367 41.9752 7.01017C42.1131 7.20668 42.2454 7.41161 42.3722 7.62495C42.4991 7.83269 42.6176 8.04323 42.7279 8.25658C42.8382 8.46431 42.9319 8.66361 43.0091 8.8545H42.2316C42.1489 8.66923 42.0524 8.47553 41.9421 8.27342C41.8319 8.0713 41.7161 7.8748 41.5947 7.68391C41.4734 7.4874 41.3521 7.30212 41.2308 7.12808C41.1095 6.95403 40.9965 6.80806 40.8917 6.69015V8.8545H40.1804V2.44568L40.8917 2.31935V6.33645C40.9909 6.20171 41.0957 6.05011 41.206 5.88168C41.3218 5.71324 41.4348 5.54482 41.5451 5.37639C41.6554 5.20234 41.7602 5.03391 41.8594 4.87109C41.9587 4.70828 42.0414 4.5623 42.1076 4.43317H42.8685ZM36.6602 4.5258C36.8036 4.46404 36.9552 4.41632 37.1151 4.38264C37.275 4.34334 37.4487 4.32369 37.6362 4.32369C38.0222 4.32369 38.3365 4.4472 38.5791 4.69424C38.8217 4.93566 38.943 5.31463 38.943 5.83116V8.76187C38.7445 8.81802 38.5405 8.86293 38.331 8.89662C38.127 8.9303 37.9257 8.94714 37.7272 8.94714C37.5287 8.94714 37.3412 8.92187 37.1647 8.87134C36.9938 8.82081 36.8422 8.7394 36.7098 8.62712C36.583 8.51483 36.481 8.37448 36.4038 8.20604C36.3266 8.032 36.288 7.82146 36.288 7.57442C36.288 7.34423 36.3211 7.14492 36.3872 6.97649C36.4589 6.80245 36.5554 6.65928 36.6767 6.54699C36.798 6.42909 36.9414 6.34206 37.1068 6.28592C37.2723 6.22416 37.4515 6.19328 37.6445 6.19328C37.8264 6.19328 38.0277 6.21573 38.2483 6.26065V5.85642C38.2483 5.53078 38.1849 5.3034 38.058 5.17426C37.9367 5.04513 37.7603 4.98057 37.5287 4.98057C37.4018 4.98057 37.2805 4.99461 37.1647 5.02268C37.0545 5.04514 36.9359 5.08444 36.8091 5.14058L36.6602 4.5258ZM36.9993 7.566C36.9993 7.82426 37.0655 8.01515 37.1978 8.13867C37.3302 8.26219 37.5176 8.32395 37.7603 8.32395C37.9091 8.32395 38.0718 8.3043 38.2483 8.265V6.85859C38.0828 6.81367 37.9202 6.79122 37.7603 6.79122C37.6555 6.79122 37.5562 6.80524 37.4625 6.83332C37.3688 6.85578 37.286 6.89788 37.2144 6.95964C37.1482 7.01579 37.0958 7.09439 37.0572 7.19545C37.0186 7.29089 36.9993 7.41441 36.9993 7.566ZM35.6045 3.61627C35.439 3.91384 35.2543 4.26474 35.0503 4.66898C34.8463 5.0676 34.6422 5.48025 34.4382 5.90695C34.2397 6.32803 34.0495 6.74068 33.8675 7.14492C33.691 7.54915 33.5449 7.90287 33.4291 8.20604H35.6623V8.8545H32.6351V8.39132C32.7178 8.16674 32.8143 7.91971 32.9246 7.65022C33.0349 7.38072 33.1534 7.10281 33.2802 6.81648C33.4071 6.52453 33.5366 6.23258 33.669 5.94063C33.8068 5.64868 33.9419 5.36516 34.0743 5.09005C34.2121 4.81495 34.3417 4.55669 34.463 4.31527C34.5898 4.06823 34.7056 3.85208 34.8104 3.66681H32.7426V3.01834H35.6045V3.61627Z" fill="black"/>
</g>
<defs>
<clipPath id="clip0_149_3206">
<rect width="100.1" height="31.2" fill="white" transform="translate(0.949997 0.971291)"/>
</clipPath>
</defs>
</svg>
