<svg width="75" height="39" viewBox="0 0 75 39" fill="none" xmlns="http://www.w3.org/2000/svg">
<path d="M7.16391 26.563V24.9748H12.8039C14.8001 24.9748 15.7964 25.9518 15.7964 27.9666V32.3844C15.7964 34.4016 14.8001 35.3968 12.8039 35.3968H9.26213C7.26653 35.3968 6.26978 34.4417 6.26978 32.5683V32.1806C6.26978 30.3082 7.26654 29.3915 9.26213 29.3915H14.8889V30.9804H9.26213C8.3045 30.9804 7.85753 31.367 7.85753 32.1806V32.5683C7.85753 33.3821 8.3045 33.8101 9.26213 33.8101H14.2136L14.2096 32.3844V27.9666C14.2096 27.0108 13.7408 26.563 12.8039 26.563L7.16391 26.563Z" fill="#898989"/>
<path d="M24.8355 26.563H17.5681V24.9747H27.116V26.359L19.8292 33.81H27.116V35.3969H17.5681V34.0352L24.8355 26.563Z" fill="#898989"/>
<path d="M28.7433 24.9747H30.3326V32.3844C30.3326 33.3209 30.78 33.81 31.7367 33.81H36.7037V24.9747H38.2918V35.9289C38.2918 37.9228 37.2949 38.9205 35.2787 38.9205H28.7434V37.353H35.2787C36.2149 37.353 36.7037 36.8837 36.7037 35.9289V35.3967H31.7367C29.7419 35.3967 28.7433 34.4015 28.7433 32.3843V24.9747Z" fill="#898989"/>
<path d="M52.2351 35.3969H53.8437V24.9747H52.2351V35.3969Z" fill="#898989"/>
<path d="M74.65 33.81V35.3967H70.4347C68.439 35.3967 67.4417 34.4015 67.4417 32.3843V27.9665C67.4417 25.9517 68.439 24.9747 70.4347 24.9747H74.65V26.563H70.4347C69.4782 26.563 69.0305 27.0108 69.0305 27.9665V32.3843C69.0305 33.3209 69.4782 33.81 70.4347 33.81L74.65 33.81Z" fill="#898989"/>
<path d="M53.8953 22.3469C53.8953 22.8204 53.5121 23.2026 53.0398 23.2026C52.5673 23.2026 52.1849 22.8204 52.1849 22.3469C52.1849 21.875 52.5673 21.4922 53.0398 21.4922C53.5121 21.4922 53.8953 21.875 53.8953 22.3469Z" fill="#898989"/>
<path d="M45.2641 24.9747H40.4899V35.3967H42.078V26.563H45.264L45.2651 26.5632C45.2705 26.5632 45.2756 26.563 45.2796 26.563C47.0859 26.563 48.4416 27.9754 48.4467 29.7219C48.4481 29.7226 48.4493 29.7248 48.4493 29.7252V35.3967H50.0385V30.1857C50.0385 25.9379 47.0837 24.9747 45.2641 24.9747Z" fill="#898989"/>
<path d="M0.549988 37.3531C1.71102 37.3531 2.32205 36.8838 2.32205 35.9289V24.9748H3.90929V35.9289C3.90929 37.9229 2.79007 38.9206 0.549994 38.9206L0.549988 37.3531Z" fill="#898989"/>
<path d="M4.01758 22.3469C4.01758 22.8204 3.63577 23.2026 3.16227 23.2026C2.68908 23.2026 2.30634 22.8204 2.30634 22.3469C2.30634 21.875 2.68908 21.4922 3.16227 21.4922C3.63577 21.4922 4.01758 21.875 4.01758 22.3469Z" fill="#898989"/>
<path d="M27.8736 9.74591C27.8981 9.97513 27.9135 10.2072 27.9135 10.4425C27.9135 13.9687 25.0558 16.8268 21.53 16.8268C18.0042 16.8268 15.1445 13.9687 15.1445 10.4425C15.1445 6.917 18.0042 4.05917 21.53 4.05917C23.7364 4.05917 25.6825 5.17973 26.8286 6.88344H31.4175C29.9704 2.86675 26.1487 -0.0146246 21.6471 -0.063858H21.4396C15.6775 -0.0152279 11.0218 4.66948 11.0218 10.4425C11.0218 16.2464 15.7262 20.9499 21.53 20.9499C27.3324 20.9499 32.0366 16.2464 32.0366 10.4425C32.0366 9.32176 31.8591 8.24251 31.5338 7.22933L27.8736 9.74591Z" fill="#898989"/>
<path d="M64.6775 33.8089V35.3967H59.0372C57.0412 35.3967 56.0446 34.42 56.0446 32.4053V27.9875C56.0446 25.9702 57.0412 24.9747 59.0372 24.9747H62.5791C64.5744 24.9747 65.5713 25.9298 65.5713 27.8035V28.1914C65.5713 30.0633 64.5744 30.9804 62.5791 30.9804H56.9526V29.3915H62.5791C63.5363 29.3915 63.9836 29.0048 63.9836 28.1914V27.8035C63.9836 26.9896 63.5363 26.5618 62.5791 26.5618H57.6276L57.6316 27.9875V32.4053C57.6316 33.361 58.1003 33.8089 59.0372 33.8089L64.6775 33.8089Z" fill="#898989"/>
</svg>
