<svg width="597" height="480" viewBox="0 0 597 480" fill="none" xmlns="http://www.w3.org/2000/svg">
<path d="M173.102 437.475H182.184V383.339C182.184 381.724 182.369 380.182 182.666 378.697C182.964 377.174 183.372 375.818 183.836 374.611C184.821 372.104 186.158 369.671 187.885 367.257C189.612 364.805 191.655 362.614 194.032 360.645C196.409 358.639 199.065 357.061 201.962 355.854C204.896 354.684 208.054 354.052 211.452 354.034C216.485 354.052 220.812 355.297 224.471 357.748C228.148 360.199 230.952 363.617 232.939 367.981C234.926 372.364 235.911 377.508 235.929 383.339V437.475H245.011V380.739C245.029 379.068 245.215 377.489 245.605 376.041C245.976 374.555 246.385 373.237 246.868 372.029C247.852 369.745 249.152 367.517 250.824 365.381C252.458 363.245 254.408 361.332 256.655 359.642C258.884 357.915 261.354 356.578 264.084 355.557C266.814 354.572 269.711 354.071 272.831 354.034C278.291 354.034 282.971 355.297 286.834 357.841C290.697 360.385 293.631 364.174 295.711 369.207C297.754 374.221 298.794 380.479 298.794 387.964V437.457H307.875V387.759C307.857 381.612 307.262 376.301 306.074 371.825C304.922 367.349 303.381 363.561 301.468 360.515C299.518 357.451 297.382 354.981 295.042 353.087C292.721 351.192 290.344 349.744 287.967 348.759C285.552 347.775 283.324 347.088 281.225 346.717C279.145 346.364 277.399 346.197 275.969 346.234C272.292 346.234 269.024 346.587 266.164 347.255C263.322 347.942 260.722 348.927 258.364 350.227C256.042 351.527 253.795 353.105 251.659 354.962C249.988 356.448 248.354 358.212 246.738 360.274C245.159 362.317 243.711 364.694 242.374 367.387H242.002C240.702 363.561 238.734 360.069 236.171 356.875C233.571 353.699 230.395 351.137 226.681 349.224C222.948 347.311 218.695 346.327 214.015 346.252C208.611 346.271 203.912 347.144 199.901 348.815C195.889 350.524 192.435 352.808 189.519 355.742C186.622 358.639 184.078 361.982 181.942 365.734H181.571L180.828 348.481H172.285C172.564 352.102 172.749 355.687 172.879 359.234C172.972 362.781 173.046 366.365 173.046 369.987V437.475V437.419L173.102 437.475ZM339.447 474.562H348.528V421.541H348.899C351.407 425.682 354.489 429.081 358.148 431.774C361.788 434.467 365.799 436.472 370.201 437.772C374.584 439.072 379.097 439.722 383.758 439.722C389.868 439.722 395.662 438.645 401.029 436.509C406.434 434.374 411.225 431.254 415.404 427.112C419.545 422.971 422.814 417.901 425.209 411.884C427.605 405.867 428.794 398.939 428.831 391.139C428.812 385.048 427.809 379.328 425.804 373.961C423.817 368.594 420.957 363.821 417.205 359.661C413.472 355.519 408.997 352.288 403.741 349.892C398.448 347.515 392.561 346.308 386.005 346.271C379.821 346.289 374.361 347.199 369.532 349.001C364.741 350.765 360.599 353.198 357.108 356.299C353.617 359.419 350.757 363.004 348.547 367.052H348.175L347.432 348.499H338.722C339.001 353.328 339.187 358.119 339.317 362.874C339.409 367.628 339.484 372.419 339.484 377.248V474.581L339.447 474.562ZM348.528 385.921C348.547 384.677 348.732 383.377 349.085 382.021C349.438 380.665 349.791 379.365 350.199 378.121C351.462 374.072 353.264 370.562 355.548 367.479C357.832 364.415 360.525 361.889 363.552 359.828C366.579 357.785 369.848 356.244 373.358 355.185C376.887 354.164 380.471 353.644 384.148 353.644C389.701 353.662 394.715 354.702 399.098 356.708C403.481 358.714 407.214 361.462 410.278 364.991C413.361 368.482 415.682 372.512 417.298 377.044C418.932 381.557 419.749 386.385 419.749 391.474C419.731 399.775 418.227 407.018 415.274 413.109C412.302 419.201 408.105 423.899 402.608 427.205C397.148 430.548 390.611 432.238 383.052 432.275C378.874 432.257 374.955 431.625 371.278 430.362C367.638 429.118 364.351 427.428 361.417 425.237C358.445 423.064 355.975 420.575 353.932 417.715C351.927 414.911 350.404 411.902 349.475 408.727C349.197 407.612 348.992 406.461 348.788 405.272C348.621 404.102 348.528 402.895 348.528 401.688V385.939V385.921ZM453.122 437.475H462.204V389.264C462.204 387.741 462.297 386.274 462.464 384.751C462.649 383.265 462.854 381.854 463.151 380.554C464.172 375.391 465.844 370.897 468.165 367.015C470.487 363.189 473.328 360.181 476.708 358.027C480.07 355.891 483.84 354.814 488.018 354.777C489.002 354.777 489.931 354.777 490.748 354.795C491.584 354.869 492.382 354.962 493.218 355.148V346.791C492.568 346.605 491.881 346.438 491.138 346.364C490.432 346.271 489.69 346.252 488.947 346.252C484.564 346.271 480.571 347.218 477.024 349.075C473.477 350.932 470.412 353.458 467.812 356.689C465.212 359.902 463.169 363.617 461.702 367.777H461.145L460.774 348.499H452.417C452.695 353.328 452.881 358.119 453.011 362.874C453.104 367.628 453.178 372.419 453.178 377.248V437.512L453.122 437.475ZM548.617 439.704C553 439.704 557.438 439.109 561.895 437.939C566.371 436.732 570.68 434.912 574.747 432.479C578.851 430.028 582.491 426.927 585.722 423.119C588.972 419.349 591.498 414.855 593.374 409.674C595.268 404.492 596.215 398.549 596.252 391.864C596.234 385.475 595.138 379.532 593.002 374.035C590.83 368.501 587.747 363.672 583.698 359.549C579.612 355.371 574.728 352.121 569.027 349.818C563.307 347.497 556.881 346.289 549.712 346.271C543.435 346.289 537.511 347.385 531.884 349.539C526.238 351.712 521.224 354.851 516.86 358.974C512.477 363.078 509.022 368.092 506.478 373.961C503.934 379.829 502.671 386.478 502.615 393.925C502.634 400.537 503.785 406.628 506.051 412.199C508.317 417.752 511.492 422.581 515.578 426.685C519.682 430.827 524.511 434.002 530.064 436.268C535.654 438.552 541.782 439.704 548.431 439.722H548.635L548.617 439.704ZM548.802 432.294C543.974 432.294 539.368 431.421 534.967 429.694C530.547 427.985 526.591 425.459 523.099 422.154C519.608 418.811 516.86 414.744 514.835 409.915C512.792 405.087 511.752 399.552 511.715 393.349C511.715 388.131 512.514 383.117 514.092 378.399C515.708 373.645 518.085 369.429 521.261 365.734C524.437 362.038 528.392 359.085 533.165 356.949C537.901 354.814 543.435 353.699 549.731 353.681C554.95 353.699 559.592 354.517 563.66 356.095C567.745 357.674 571.237 359.772 574.208 362.465C577.18 365.158 579.612 368.148 581.525 371.528C583.438 374.871 584.868 378.325 585.797 381.947C586.725 385.531 587.19 389.059 587.19 392.458C587.171 398.847 586.075 404.548 583.977 409.488C581.897 414.428 579.055 418.607 575.49 422.005C571.868 425.367 567.838 427.929 563.288 429.712C558.72 431.439 553.984 432.349 549.007 432.349H548.821L548.802 432.294ZM155.496 348.462C155.496 348.462 155.496 348.462 155.496 348.481L155.441 348.592L123.962 420.427C120.935 427.447 118.094 433.649 115.475 439.035C112.838 444.402 110.294 449.119 107.824 453.094C105.316 457.105 102.791 460.578 100.209 463.512C97.6092 466.409 94.8421 468.954 91.9078 471.052C89.3449 472.909 86.9678 474.395 84.7021 475.509C82.4735 476.661 80.5606 477.497 78.9635 478.054C77.3478 478.611 76.2335 478.927 75.6021 479.038L73.1878 471.424C74.7106 470.978 76.3449 470.402 78.1649 469.659C79.9849 468.917 81.8421 467.951 83.7921 466.818C85.7421 465.685 87.6549 464.311 89.5121 462.714C91.0906 461.414 92.8178 459.724 94.7678 457.588C96.6806 455.452 98.6678 452.834 100.692 449.751C102.735 446.668 104.685 443.009 106.561 438.812C106.932 437.977 107.211 437.271 107.396 436.714C107.582 436.138 107.675 435.655 107.675 435.284C107.675 434.912 107.582 434.392 107.378 433.742C107.192 433.055 106.858 432.219 106.394 431.198L69.4921 348.499H79.3163L105.836 408.021C106.709 409.971 107.601 412.014 108.492 414.205C109.384 416.378 110.219 418.532 111.036 420.687C111.835 422.859 112.522 424.865 113.079 426.741H113.451C114.472 423.955 115.586 420.909 116.812 417.622C118.019 414.354 119.375 410.881 120.861 407.259L145.691 348.518L155.534 348.499L155.496 348.462ZM0.907715 433.445C4.28772 435.432 8.09486 437.011 12.292 438.144C16.5263 439.314 21.0206 439.908 25.7749 439.945C32.5535 439.871 38.292 438.775 43.102 436.509C47.8563 434.281 51.5149 431.254 54.0592 427.409C56.6035 423.547 57.8663 419.219 57.8849 414.335C57.8849 409.915 56.9935 406.108 55.2292 402.895C53.4278 399.701 50.7535 396.934 47.1506 394.594C43.5292 392.235 39.0163 390.174 33.5749 388.354C29.192 386.905 25.4034 385.419 22.3206 383.841C19.2192 382.262 16.8606 380.405 15.282 378.214C13.6477 376.022 12.812 373.292 12.812 369.987C12.812 367.108 13.5177 364.452 14.9477 362.038C16.3777 359.661 18.4763 357.711 21.262 356.262C24.0477 354.814 27.4834 354.071 31.5692 354.034C34.9677 354.052 37.9763 354.405 40.5392 355.055C43.1392 355.742 45.2935 356.504 47.0949 357.377C48.8592 358.268 50.252 359.085 51.2363 359.791L54.7649 352.362C52.1278 350.561 48.9892 349.149 45.3306 348.072C41.6535 347.014 37.6235 346.457 33.222 346.438C28.3934 346.457 24.1592 347.162 20.5192 348.518C16.842 349.874 13.7963 351.731 11.3263 354.052C8.85629 356.374 7.03629 358.992 5.75486 361.945C4.51057 364.879 3.89772 367.944 3.89772 371.138C3.89772 376.449 5.90343 381.129 9.89629 385.197C13.9077 389.282 19.9434 392.625 28.022 395.244C32.6649 396.692 36.5277 398.308 39.6477 400.072C42.7492 401.837 45.0892 403.898 46.6492 406.312C48.2277 408.727 49.0078 411.661 49.0078 415.097C49.0078 418.161 48.2277 421.002 46.6492 423.602C45.0706 426.202 42.6006 428.301 39.2763 429.917C35.9706 431.495 31.7177 432.331 26.5177 432.368C23.5463 432.349 20.7049 432.015 17.9749 431.365C15.2449 430.715 12.7563 429.917 10.4163 428.895C8.09486 427.874 6.03343 426.815 4.232 425.682L0.907715 433.427V433.445Z" fill="#133079"/>
<path d="M290.584 282.24C290.225 291.704 289.701 301.115 289.012 310.49C288.778 310.559 288.559 310.642 288.326 310.727C273.126 303.405 257.471 296.888 241.425 291.232C223.393 284.862 204.86 279.581 185.919 275.472C190.58 264.815 194.999 254.035 199.175 243.132C203.485 231.898 207.538 220.526 211.334 209.048C233.152 143.031 246.306 73.2004 249.507 0.973224C265.912 48.981 277.761 99.171 284.532 151.062C279.068 177.674 272.221 203.797 264.076 229.37C260.467 240.722 256.601 251.967 252.479 263.089C265.511 268.891 278.228 275.299 290.599 282.24L290.584 282.24Z" fill="#133079"/>
<path d="M318.128 260.416C321.754 262.746 325.337 265.123 328.893 267.56C328.664 277.64 328.256 287.683 327.653 297.66C327.346 297.748 327.054 297.849 326.748 297.951C319.749 293.309 312.61 288.851 305.347 284.591C302.687 283.018 299.999 281.476 297.297 279.964C284.927 273.023 272.209 266.616 259.177 260.814C263.3 249.691 267.165 238.447 270.774 227.095C278.919 201.522 285.766 175.398 291.23 148.787C297.479 118.425 301.953 87.4433 304.525 55.9522C315.109 97.1195 322.435 139.643 326.165 183.255C323.52 194.994 320.59 206.628 317.388 218.155C314.097 229.996 310.533 241.702 306.683 253.301C310.53 255.622 314.35 257.988 318.128 260.416Z" fill="#106FAE"/>
<path d="M362.066 215.118C363.087 238.62 363.017 261.902 361.885 284.949C361.577 285.021 361.255 285.109 360.934 285.212C352.59 278.585 344.022 272.249 335.217 266.234C331.66 263.797 328.077 261.42 324.451 259.09C320.673 256.662 316.854 254.296 313.006 251.975C316.856 240.376 320.42 228.67 323.712 216.828C326.913 205.302 329.844 193.668 332.488 181.928C339.028 153.168 343.87 123.814 346.941 93.945C355.133 133.232 360.268 173.718 362.066 215.118Z" fill="#13A7DD"/>
</svg>
