<svg width="219" height="176" viewBox="0 0 219 176" fill="none" xmlns="http://www.w3.org/2000/svg">
<path d="M63.2141 160.496H66.5456V140.636C66.5456 140.043 66.6137 139.478 66.7227 138.933C66.8317 138.374 66.9816 137.877 67.1519 137.434C67.513 136.514 68.0035 135.622 68.6371 134.736C69.2707 133.837 70.0201 133.033 70.8922 132.311C71.7643 131.575 72.7385 130.996 73.8013 130.553C74.8777 130.124 76.0359 129.892 77.2827 129.885C79.129 129.892 80.7164 130.349 82.0585 131.248C83.4075 132.147 84.4362 133.401 85.1652 135.002C85.8942 136.61 86.2553 138.497 86.2621 140.636V160.496H89.5936V139.682C89.6004 139.069 89.6685 138.49 89.8116 137.959C89.9479 137.414 90.0978 136.93 90.2749 136.487C90.636 135.649 91.1129 134.832 91.726 134.048C92.3256 133.265 93.0409 132.563 93.8653 131.943C94.6828 131.309 95.589 130.819 96.5904 130.444C97.5919 130.083 98.6547 129.899 99.7993 129.885C101.802 129.885 103.519 130.349 104.936 131.282C106.353 132.215 107.43 133.605 108.193 135.452C108.942 137.291 109.324 139.587 109.324 142.333V160.489H112.655V142.258C112.648 140.003 112.43 138.054 111.994 136.412C111.572 134.77 111.007 133.38 110.305 132.263C109.589 131.139 108.806 130.233 107.948 129.538C107.096 128.843 106.224 128.312 105.352 127.951C104.466 127.589 103.649 127.337 102.879 127.201C102.116 127.072 101.475 127.01 100.951 127.024C99.6017 127.024 98.4027 127.153 97.3535 127.399C96.3111 127.651 95.3573 128.012 94.4921 128.489C93.6405 128.966 92.8161 129.545 92.0326 130.226C91.4195 130.771 90.8199 131.418 90.2272 132.175C89.6481 132.924 89.1167 133.796 88.6262 134.784H88.4899C88.013 133.38 87.2908 132.1 86.3507 130.928C85.3969 129.763 84.2318 128.823 82.8693 128.121C81.4999 127.419 79.9397 127.058 78.2229 127.031C76.2403 127.038 74.5167 127.358 73.0451 127.971C71.5735 128.598 70.3063 129.436 69.2367 130.512C68.1739 131.575 67.2405 132.801 66.457 134.178H66.3208L66.0482 127.848H62.9143C63.0165 129.177 63.0846 130.492 63.1323 131.793C63.1664 133.094 63.1936 134.409 63.1936 135.738V160.496V160.475L63.2141 160.496ZM124.237 174.101H127.569V154.65H127.705C128.625 156.17 129.756 157.416 131.098 158.404C132.433 159.392 133.905 160.128 135.519 160.605C137.127 161.082 138.783 161.32 140.493 161.32C142.734 161.32 144.86 160.925 146.829 160.141C148.811 159.358 150.569 158.213 152.102 156.694C153.621 155.175 154.82 153.315 155.699 151.108C156.578 148.9 157.014 146.359 157.028 143.498C157.021 141.263 156.653 139.165 155.917 137.196C155.188 135.227 154.139 133.476 152.763 131.95C151.393 130.43 149.751 129.245 147.823 128.366C145.882 127.494 143.722 127.051 141.317 127.038C139.048 127.044 137.045 127.378 135.274 128.039C133.516 128.686 131.997 129.579 130.716 130.717C129.435 131.861 128.386 133.176 127.575 134.661H127.439L127.167 127.855H123.971C124.074 129.627 124.142 131.384 124.189 133.128C124.224 134.872 124.251 136.63 124.251 138.402V174.108L124.237 174.101ZM127.569 141.583C127.575 141.127 127.644 140.65 127.773 140.152C127.902 139.655 128.032 139.178 128.182 138.722C128.645 137.237 129.306 135.949 130.144 134.818C130.982 133.694 131.97 132.767 133.08 132.011C134.191 131.262 135.39 130.696 136.678 130.308C137.972 129.933 139.287 129.742 140.636 129.742C142.673 129.749 144.512 130.131 146.12 130.866C147.728 131.602 149.097 132.611 150.222 133.905C151.352 135.186 152.204 136.664 152.797 138.327C153.396 139.982 153.696 141.753 153.696 143.62C153.689 146.666 153.137 149.323 152.054 151.557C150.964 153.792 149.424 155.516 147.408 156.728C145.405 157.955 143.007 158.575 140.234 158.588C138.701 158.581 137.263 158.35 135.914 157.886C134.579 157.43 133.373 156.81 132.297 156.006C131.207 155.209 130.301 154.296 129.551 153.247C128.815 152.218 128.257 151.114 127.916 149.949C127.814 149.541 127.739 149.118 127.664 148.682C127.603 148.253 127.569 147.81 127.569 147.367V141.59V141.583ZM165.939 160.496H169.27V142.809C169.27 142.251 169.304 141.713 169.366 141.154C169.434 140.609 169.509 140.091 169.618 139.614C169.993 137.72 170.606 136.072 171.457 134.648C172.309 133.244 173.351 132.141 174.591 131.35C175.824 130.567 177.207 130.172 178.74 130.158C179.101 130.158 179.442 130.158 179.742 130.165C180.048 130.192 180.341 130.226 180.648 130.294V127.228C180.409 127.16 180.157 127.099 179.885 127.072C179.626 127.038 179.353 127.031 179.081 127.031C177.473 127.038 176.008 127.385 174.707 128.066C173.406 128.748 172.282 129.674 171.328 130.86C170.374 132.038 169.625 133.401 169.086 134.927H168.882L168.746 127.855H165.68C165.782 129.627 165.85 131.384 165.898 133.128C165.932 134.872 165.959 136.63 165.959 138.402V160.509L165.939 160.496ZM200.971 161.313C202.579 161.313 204.207 161.095 205.842 160.666C207.484 160.223 209.064 159.556 210.557 158.663C212.062 157.764 213.397 156.626 214.583 155.229C215.775 153.846 216.702 152.198 217.39 150.297C218.085 148.396 218.432 146.216 218.446 143.763C218.439 141.42 218.037 139.24 217.254 137.223C216.456 135.193 215.326 133.421 213.84 131.909C212.342 130.376 210.55 129.184 208.458 128.339C206.36 127.487 204.003 127.044 201.373 127.038C199.07 127.044 196.897 127.446 194.832 128.237C192.761 129.034 190.922 130.185 189.321 131.698C187.713 133.203 186.446 135.043 185.512 137.196C184.579 139.349 184.116 141.788 184.095 144.52C184.102 146.945 184.524 149.18 185.356 151.223C186.187 153.26 187.352 155.032 188.851 156.537C190.356 158.057 192.128 159.222 194.165 160.053C196.215 160.891 198.464 161.313 200.903 161.32H200.978L200.971 161.313ZM201.039 158.595C199.268 158.595 197.578 158.275 195.963 157.641C194.342 157.014 192.891 156.088 191.61 154.875C190.329 153.649 189.321 152.157 188.578 150.385C187.829 148.614 187.447 146.584 187.434 144.308C187.434 142.394 187.727 140.554 188.306 138.824C188.898 137.08 189.77 135.533 190.935 134.178C192.1 132.822 193.552 131.739 195.302 130.955C197.04 130.172 199.07 129.763 201.38 129.756C203.294 129.763 204.997 130.063 206.489 130.642C207.988 131.221 209.269 131.991 210.359 132.978C211.449 133.966 212.342 135.063 213.043 136.303C213.745 137.53 214.27 138.797 214.61 140.125C214.951 141.44 215.121 142.735 215.121 143.981C215.114 146.325 214.712 148.417 213.943 150.229C213.179 152.041 212.137 153.574 210.829 154.821C209.501 156.054 208.022 156.994 206.353 157.648C204.677 158.282 202.94 158.615 201.114 158.615H201.046L201.039 158.595ZM56.7554 127.842C56.7554 127.842 56.7554 127.842 56.7554 127.848L56.735 127.889L45.1872 154.242C44.0767 156.817 43.0343 159.092 42.0737 161.068C41.1062 163.037 40.1729 164.767 39.2668 166.225C38.347 167.697 37.4205 168.971 36.4735 170.047C35.5197 171.11 34.5045 172.044 33.4281 172.813C32.4879 173.495 31.6159 174.04 30.7847 174.449C29.9671 174.871 29.2654 175.178 28.6795 175.382C28.0868 175.586 27.678 175.702 27.4464 175.743L26.5607 172.95C27.1194 172.786 27.7189 172.575 28.3866 172.303C29.0542 172.03 29.7355 171.676 30.4509 171.26C31.1662 170.845 31.8679 170.34 32.5492 169.755C33.1283 169.278 33.7619 168.658 34.4773 167.874C35.179 167.091 35.908 166.13 36.6506 164.999C37.4 163.868 38.1154 162.526 38.8035 160.986C38.9397 160.68 39.0419 160.421 39.1101 160.216C39.1782 160.005 39.2122 159.828 39.2122 159.692C39.2122 159.556 39.1782 159.365 39.1032 159.126C39.0351 158.874 38.9125 158.568 38.7422 158.193L25.2049 127.855H28.809L38.5378 149.691C38.858 150.406 39.185 151.155 39.512 151.959C39.839 152.756 40.1456 153.547 40.4454 154.337C40.7383 155.134 40.9904 155.87 41.1948 156.558H41.3311C41.7058 155.536 42.1145 154.419 42.5642 153.213C43.007 152.014 43.5044 150.74 44.0494 149.411L53.1582 127.862L56.7691 127.855L56.7554 127.842ZM0.0449219 159.017C1.28487 159.746 2.68151 160.325 4.22123 160.741C5.77457 161.17 7.42329 161.388 9.16739 161.402C11.6541 161.375 13.7593 160.973 15.5238 160.141C17.2679 159.324 18.6101 158.213 19.5434 156.803C20.4768 155.386 20.9401 153.799 20.9469 152.007C20.9469 150.385 20.6199 148.989 19.9726 147.81C19.3118 146.638 18.3307 145.623 17.009 144.765C15.6805 143.9 14.025 143.143 12.0288 142.476C10.421 141.944 9.03113 141.399 7.90019 140.82C6.76243 140.241 5.8972 139.56 5.3181 138.756C4.71857 137.952 4.41199 136.95 4.41199 135.738C4.41199 134.682 4.67088 133.707 5.19547 132.822C5.72006 131.95 6.48992 131.234 7.51185 130.703C8.53379 130.172 9.79417 129.899 11.293 129.885C12.5398 129.892 13.6435 130.022 14.5836 130.26C15.5374 130.512 16.3277 130.792 16.9886 131.112C17.6358 131.439 18.1468 131.739 18.5079 131.997L19.8023 129.272C18.8349 128.611 17.6835 128.094 16.3414 127.698C14.9924 127.31 13.514 127.106 11.8994 127.099C10.128 127.106 8.57467 127.365 7.23934 127.862C5.89039 128.359 4.77307 129.041 3.86696 129.892C2.96084 130.744 2.29318 131.704 1.82309 132.788C1.36662 133.864 1.1418 134.988 1.1418 136.16C1.1418 138.109 1.87759 139.825 3.34236 141.317C4.81395 142.816 7.02814 144.043 9.99175 145.003C11.695 145.535 13.1121 146.127 14.2566 146.775C15.3944 147.422 16.2528 148.178 16.8251 149.064C17.4042 149.949 17.6903 151.026 17.6903 152.286C17.6903 153.41 17.4042 154.453 16.8251 155.407C16.246 156.36 15.3399 157.13 14.1204 157.723C12.9077 158.302 11.3475 158.609 9.4399 158.622C8.34984 158.615 7.30747 158.493 6.30597 158.254C5.30448 158.016 4.39155 157.723 3.53312 157.348C2.68151 156.973 1.92528 156.585 1.26443 156.17L0.0449219 159.011V159.017Z" fill="#133079"/>
<path d="M106.312 103.548C106.18 107.02 105.988 110.472 105.735 113.911C105.649 113.937 105.569 113.967 105.484 113.998C99.9073 111.312 94.1645 108.922 88.278 106.847C81.6629 104.51 74.8642 102.573 67.9158 101.065C69.6256 97.1557 71.2466 93.2011 72.7787 89.2014C74.3599 85.0801 75.8465 80.9086 77.239 76.6977C85.2433 52.4797 90.0685 26.8623 91.2429 0.365938C97.2609 17.9775 101.608 36.3896 104.092 55.4258C102.087 65.1882 99.5753 74.7715 96.5874 84.1528C95.2635 88.3173 93.8454 92.4424 92.3331 96.5227C97.1138 98.651 101.779 101.002 106.317 103.548L106.312 103.548Z" fill="#133079"/>
<path d="M116.417 95.5419C117.747 96.3968 119.061 97.2686 120.366 98.1627C120.282 101.86 120.132 105.545 119.911 109.205C119.798 109.237 119.691 109.274 119.579 109.312C117.011 107.609 114.392 105.973 111.728 104.41C110.752 103.833 109.766 103.268 108.775 102.713C104.237 100.167 99.5714 97.8163 94.7908 95.6879C96.3031 91.6076 97.7211 87.4825 99.045 83.3181C102.033 73.9368 104.545 64.3534 106.549 54.5911C108.841 43.4527 110.483 32.0873 111.426 20.5348C115.309 35.637 117.996 51.2365 119.365 67.2355C118.395 71.5421 117.32 75.8099 116.145 80.0384C114.938 84.3826 113.63 88.6767 112.218 92.9319C113.629 93.7833 115.031 94.6514 116.417 95.5419Z" fill="#106FAE"/>
<path d="M132.535 78.9246C132.91 87.5461 132.884 96.0871 132.469 104.542C132.356 104.568 132.238 104.601 132.12 104.638C129.059 102.207 125.916 99.8828 122.686 97.6762C121.381 96.7822 120.066 95.9103 118.736 95.0554C117.35 94.1649 115.949 93.2968 114.538 92.4454C115.95 88.1902 117.258 83.8961 118.465 79.552C119.64 75.3234 120.715 71.0557 121.685 66.749C124.084 56.1981 125.86 45.4299 126.987 34.4725C129.992 48.8847 131.876 63.7369 132.535 78.9246Z" fill="#13A7DD"/>
</svg>
